<?xml version="1.0" encoding="UTF-8"?>
<svg id="_3" data-name="3" xmlns="http://www.w3.org/2000/svg" viewBox="0 0 1600 1600">
  <defs>
    <style>
      .cls-1 {
        fill: #fff;
      }

      .cls-2 {
        stroke-width: 1.67px;
      }

      .cls-2, .cls-3, .cls-4, .cls-5 {
        stroke-miterlimit: 10;
      }

      .cls-2, .cls-3, .cls-4, .cls-6 {
        stroke: #000;
      }

      .cls-2, .cls-3, .cls-7 {
        fill: #737373;
      }

      .cls-3, .cls-4, .cls-5, .cls-6 {
        stroke-width: 2px;
      }

      .cls-4, .cls-5, .cls-6 {
        fill: none;
      }

      .cls-8 {
        fill: #2d2d30;
      }

      .cls-9 {
        fill: #d4d4d6;
      }

      .cls-5 {
        stroke: #d4d4d6;
      }

      .cls-6 {
        stroke-linecap: round;
        stroke-linejoin: round;
      }
    </style>
  </defs>
  <g>
    <g>
      <g>
        <path class="cls-9" d="m1338.78,797.58c-1.8.83-30.83,14.49-39.74,37.37l.24.79c-.4.13-.76.26-1.09.4l-1.7,33.53-15.16.91c-1.32-29.75-6.09-33.82-8.31-34.06,5.37-1.23,10.63-4.02,15.17-9.23,0,0-37.15-11.36-51.19-18.39,0,0-5.29-.08-12.59,1.73-40.93-35.03-89.45-39.17-89.45-39.17-16.68-3.75-53.79,21.44-53.79,21.44-29.28,16.17-62.91,4.9-63.65,4.65.45.96,29.29,62.1,31.82,86.42,0,0,51.84,33.19,71.62,69.45-9.94-1.94-19.47-4.82-28.57-8.47h0c-23.08-9.21-43.47-23.26-61.04-39.1-50.93-45.89-78.22-106.76-78.84-108.16,2.22,4.36,21.5,12,22.11,12.23-12.09-13.63-26.63-49.53-26.63-49.53,9.62-.44,18.69-4.9,26.9-11.41,0,0,53.76,48.82,123.54,15.12,69.79-33.7,148,36.11,148,36.11,0,0,36.14,23.59,47.24,23.98l8-1.08s26.57-38.29,36.29-38.69c.67,2.26,1.32,4.55,1.95,6.87,0,0,.01,2.49-.44,6.3h-.68Z"/>
        <path class="cls-8" d="m1338.78,797.58h.68c-1.2,9.95-5.6,28.85-21.86,35.5,0,0-.54.03-1.46.1-3.46.26-12.2,1.05-16.86,2.56l-.24-.79c8.91-22.88,37.94-36.54,39.74-37.37Z"/>
        <path class="cls-8" d="m1332.75,895.71s2.7,25.87-6.02,36.89l-.75-.89s-21.64-23.29-20.23-28.27c0,0,.99-12.11,13.06-11.07.12.01.24.02.37.04.32.04.64.08.97.13l.21.03c3.68.53,7.8,1.53,12.39,3.14Z"/>
        <path class="cls-8" d="m1303.64,938.07c.39-3.56.49-13.37-9.7-15.55,0,0-12-9.7-2.04-19.66,0,0,5.03-10.45,21.24-10.77,1.75-.04,3.64.04,5.67.28-12.07-1.04-13.06,11.07-13.06,11.07-1.41,4.98,20.23,28.27,20.23,28.27l.75.89c-.55.71-1.16,1.35-1.81,1.92-10.9,9.53-21.47,4.85-21.47,4.85,0,0,.1-.49.19-1.3Z"/>
        <path class="cls-7" d="m1294.78,695.24c-12.06-16.9-24.9-31.07-37.37-42.8,6-4.33,38.15-26.9,57.63-27.72,5.36-.22,9.64,4.43,9.09,9.77-2.02,19.56-8.51,71.44-20.73,73.53-2.82-4.42-5.69-8.68-8.62-12.78Z"/>
        <path class="cls-7" d="m1257.41,652.44c12.47,11.73,25.31,25.9,37.37,42.8,2.93,4.1,5.8,8.36,8.62,12.78,13.63,21.43,25.78,46.73,34.55,76.4-9.72.4-36.29,38.69-36.29,38.69l-8,1.08c-11.1-.39-47.24-23.98-47.24-23.98,0,0-78.21-69.81-148-36.11-69.78,33.7-123.54-15.12-123.54-15.12,16.5-13.04,29.55-34.28,36.67-47.55,3.85-7.16,5.96-12.01,5.96-12.01,7.75-25.03,50.58-59.01,50.58-59.01-4.01-16.75-5.91-36.64,4.23-45.16,0,0,19.81-18.77,35.27-26.27,5.86-2.85,12.83-1.96,17.78,2.27,10.63,9.08,32.25,29,47.6,52.74l2.59-8.91s12.17,2.89,18.63,11.06l-6.98-11.75s33.43,13.43,70.2,48.05Z"/>
        <path class="cls-1" d="m1316.14,833.18s.13,2.82-.17,7.03c-.57-1.29-1.42-2.22-2.53-2.64-3.86-1.48-9.44,3.72-12.45,11.6s-2.32,15.46,1.55,16.94c2.38.91,5.42-.72,8.11-3.95-2.42,4.94-5.88,9.36-10.84,12.11l-.73.36c-1.63-2.91-2.59-4.96-2.59-4.96l1.7-33.53c.33-.14.69-.27,1.09-.4,4.66-1.51,13.4-2.3,16.86-2.56Z"/>
        <path d="m1315.97,840.21c1.43,3.21,1.17,8.68-.98,14.3-1.15,3.02-2.68,5.64-4.34,7.65,3.63-7.43,4.9-16.05,5.32-21.95Z"/>
        <path d="m1313.44,837.57c1.11.42,1.96,1.35,2.53,2.64-.42,5.9-1.69,14.52-5.32,21.95-2.69,3.23-5.73,4.86-8.11,3.95-3.87-1.48-4.56-9.06-1.55-16.94s8.59-13.08,12.45-11.6Z"/>
        <path class="cls-9" d="m1281.33,870.58l15.16-.91s.96,2.05,2.59,4.96c3.04,5.41,8.37,13.79,14.06,17.46-16.21.32-21.24,10.77-21.24,10.77-9.96,9.96,2.04,19.66,2.04,19.66,10.19,2.18,10.09,11.99,9.7,15.55-5.29,7.93-20.25,11.43-20.25,11.43-.23.06-.45.13-.68.19h-.01c-7.05,1.94-13.48,3.31-19.32,4.18-63.46,9.57-58.63-38.41-58.63-38.41,0,0,18.43-36.43,71.85-44.6l4.73-.28Z"/>
        <path class="cls-7" d="m1281.33,870.58l-4.73.28c-53.42,8.17-71.85,44.6-71.85,44.6,0,0-4.83,47.98,58.63,38.41h0c-29.87,28.53-142.42-.45-142.42-.45-19.78-36.26-71.62-69.45-71.62-69.45-2.53-24.32-31.37-85.46-31.82-86.42.74.25,34.37,11.52,63.65-4.65,0,0,37.11-25.19,53.79-21.44,0,0,48.52,4.14,89.45,39.17-8.65,2.15-20.1,6.95-28.9,17.68,0,0,22.22-10.09,41.75,0,0,0,6.03,3.97,14.41,6.64-28.86-4.73-48.88,25.91-48.88,25.91,0,0,8.67,20.26,45.7,12.39,5.28-1.13,8.34-8.09,10.1-15.54.19-.43.37-.87.54-1.32,1.8-4.7,2.27-9.29,1.54-12.55.29-3.48.33-5.83.33-5.83l.12-.97c3.49.41,7.13.41,10.74-.28.38-.06.77-.14,1.15-.24h.01c2.22.24,6.99,4.31,8.31,34.06Z"/>
        <path class="cls-8" d="m1224.41,810.63c7.3-1.81,12.59-1.73,12.59-1.73,14.04,7.03,51.19,18.39,51.19,18.39-4.54,5.21-9.8,8-15.17,9.23h-.01c-.71-.07-1.15.24-1.15.24-3.61.69-7.25.69-10.74.28-3.33-.39-6.54-1.16-9.45-2.09-8.38-2.67-14.41-6.64-14.41-6.64-19.53-10.09-41.75,0-41.75,0,8.8-10.73,20.25-15.53,28.9-17.68Z"/>
        <path class="cls-1" d="m1261.12,837.04l-.12.97s-.04,2.35-.33,5.83c-.49-2.2-1.53-3.79-3.09-4.39-3.86-1.47-9.43,3.72-12.44,11.6-3.02,7.88-2.32,15.47,1.54,16.94,3.64,1.4,8.81-3.14,11.91-10.28-1.76,7.45-4.82,14.41-10.1,15.54-37.03,7.87-45.7-12.39-45.7-12.39,0,0,20.02-30.64,48.88-25.91,2.91.93,6.12,1.7,9.45,2.09Z"/>
        <path d="m1260.67,843.84c.73,3.26.26,7.85-1.54,12.55-.17.45-.35.89-.54,1.32,1.18-4.93,1.78-10.08,2.08-13.87Z"/>
        <path d="m1260.67,843.84c-.3,3.79-.9,8.94-2.08,13.87-3.1,7.14-8.27,11.68-11.91,10.28-3.86-1.47-4.56-9.06-1.54-16.94,3.01-7.88,8.58-13.07,12.44-11.6,1.56.6,2.6,2.19,3.09,4.39Z"/>
        <path class="cls-8" d="m1182.87,1171.63c-3.52,1.69-6.89,2.31-6.89,2.31-20.43,1.53-86.81,0-86.81,0-16.34-21.96-67.91-65.88-67.91-65.88-1.99-6.2-4.81-12.72-8.24-19.38-.1-.99-3.22-35.06,16.41-10.57,0,0,.51-31.32,17.36-3.75,0,0-2.37-30.64,12.35-3.57,0,0,1.93-33.58,15.75-4.24h.01c6.18,26.98,37.76,59.39,37.76,59.39,61.79-1.03,77.11,31.15,77.11,31.15,3.27,7.74-1.97,12.19-6.9,14.54Z"/>
        <path class="cls-9" d="m1092.38,944.95c-.47-.08-9.43.76-22,2.52-18.1,2.53-43.68,6.96-62.12,13.23-32.91,17.06-54.41,17.15-54.41,17.15-9.8.55-18.54,1.39-26.36,2.45-4.77.64-9.19,1.37-13.29,2.15,0,0,96.59-39.32,117.14-76.6,17.57,15.84,37.96,29.89,61.04,39.1Z"/>
        <path class="cls-7" d="m1073.85,1058.02c0,2.75.37,5.61,1.04,8.53-13.82-29.34-15.75,4.24-15.75,4.24-14.72-27.07-12.35,3.57-12.35,3.57-16.85-27.57-17.36,3.75-17.36,3.75-19.63-24.49-16.51,9.58-16.41,10.57-25.69-49.89-85.53-108.38-85.53-108.38,7.82-1.06,16.56-1.9,26.36-2.45,0,0,21.5-.09,54.41-17.15,18.44-6.27,44.02-10.7,62.12-13.23l3.47,110.55Z"/>
        <path class="cls-7" d="m695.62,942.78c-1.19,1.98-2.43,3.93-3.75,5.83,0,0,0,.01,0,.02-11.81,17.21-28.3,31.11-51.03,39.18,0,0-73.67,30.68-109.18,46.34-7.59,3.34-13.43,6-16.44,7.53,2.05-43.4-19.4-13.28-19.4-13.28-3.07-55.14-25.02-22.97-25.02-22.97-13.79-34.73-25.72,2.71-25.72,2.71-6.07-8.77-11.45-16.18-15.13-20.59,0,0,0-26.89,45.95-76.25,0,0-38.3-68.43-22.91-140.22.54-2.51,1.14-5.02,1.81-7.53,9.89-49.69,52.98-90.4,95.69-119.52,47.71-32.53,94.95-50.61,94.95-50.61,48-17.37,126.64,18.93,126.64,18.93,68.93,62.84,239.48,89.08,239.48,89.08-7.12,13.27-20.17,34.51-36.67,47.55-8.21,6.51-17.28,10.97-26.9,11.41,0,0,14.54,35.9,26.63,49.53-.61-.23-19.89-7.87-22.11-12.23.62,1.4,27.91,62.27,78.84,108.16-20.55,37.28-117.14,76.6-117.14,76.6-39.36,7.5-49.88,20.57-57.88,22.98-10.21,3.06-22.98,61.13-22.98,61.13-.42,1.34-.88,2.66-1.38,3.95,1.33-16.05-10.19,3.85-10.19,3.85,6.74-23.28-16.68-2.72-16.68-2.72,8.51-29.62-17.71-6.17-17.71-6.17,6.13-33.41-27.46-4.43-27.46-4.43,2.73-15.22-4.54-26.89-4.54-26.89-9.53-24.56-6.12-80.73-6.12-80.73-13.96.92-53.63-10.64-53.63-10.64h-.01Z"/>
        <path class="cls-8" d="m771.34,1183.7c-9.83,9.42-22.43.96-22.43.96-3.74-19.06-6.12-37.45-6.12-37.45-5.79,48.68-22.05,25.19-22.05,25.19-18.3-51.06,13.54-77.46,13.54-77.46,17.11-11.21,23.75-23.4,25.64-33.9,0,0,33.59-28.98,27.46,4.43,0,0,26.22-23.45,17.71,6.17,0,0,23.42-20.56,16.68,2.72,0,0,11.52-19.9,10.19-3.85v.02c-13.37,35.23-51.05,53.53-51.05,53.53-1.94,2.14-1.11,8.85-.03,14.2,1.25,6.29,1.57,12.75.72,19.1-1.89,14.11-5.79,22.07-10.26,26.34Z"/>
        <path class="cls-7" d="m691.86,948.63c-.57,1.58-37.68,103.13-93.75,129.48-.6-31.17-16.77-8.34-16.77-8.34-5.36-32.43-14.81-1.28-14.81-1.28-12.39-32.63-20.29,8.39-20.44,9.17-7.43-23.42-14.44-43.51-14.44-43.51,35.51-15.66,109.18-46.34,109.18-46.34,22.73-8.07,39.22-21.97,51.03-39.18Z"/>
        <path class="cls-8" d="m652.38,1145.49c3.73,4.53,2.92,8.87,2.92,8.87-7.15,3.07-83.75,0-83.75,0-12.25-2.38-8.85-15.32-8.85-15.32-2.15-13.92-9.56-39.14-16.61-61.37h0c.15-.79,8.05-41.81,20.44-9.18,0,0,9.45-31.15,14.81,1.28,0,0,16.17-22.83,16.77,8.34,0,0-18.9,34.46,1.87,47.06,0,0,44.35,2,52.4,20.32Z"/>
        <path class="cls-7" d="m550.12,282.1c.27,3.02.38,6.05.35,9.08-.14,14.5-1.85,57.61-16.09,111.25,7.93-63.75-64.61,9.63-64.61,9.63,11.74-73.53-69.45-.51-69.45-.51,2.04-56.68-78.13,1.02-78.13,1.02-3.06-55.14-106.89,36.38-106.89,36.38-3.61-9.75-7.95-19.84-13.11-30.25,0,0-5.83-11.05-11.88-29.05,0,0,77.24-148.65,114.01-73.08,0,0,34.41-99.01,70.82-21.42,0,0,45.6-87.85,80.33-17.38,0,0,36.41-89.44,93.26-8.48.53,4.16.99,8.43,1.39,12.81Z"/>
        <path class="cls-8" d="m469.77,412.06s72.54-73.38,64.61-9.63c-6.48,24.4-15.55,50.99-28.25,78.05,12.88-72.01-62.41-6.63-62.41-6.63,3.58-68.94-61.78,5.62-61.78,5.62.51-67.41-58.73,8.68-58.73,8.68-19.91-86.81-92.98,24.89-92.98,24.89-1.75-19.21-6.24-40.66-14.93-64.09,0,0,103.83-91.52,106.89-36.38,0,0,80.17-57.7,78.13-1.02,0,0,81.19-73.02,69.45.51Z"/>
        <path class="cls-8" d="m533.63,207.3c6.86,17.3,12.06,37.79,15.1,61.99-56.85-80.96-93.26,8.48-93.26,8.48-34.73-70.47-80.33,17.38-80.33,17.38-36.41-77.59-70.82,21.42-70.82,21.42-36.77-75.57-114.01,73.08-114.01,73.08-4.55-13.53-9.22-30.97-11.63-50.6,0,0,59.26-131.75,117.47-77.62,0,0,40.85-97.04,87.83-26.05,0,0,27.57-86.31,69.45,0,0,0,30.7-99.56,80.19-28.09.01,0,.01.01.01.01Z"/>
        <path class="cls-8" d="m522.22,1110.67s36.06,35.86,8.48,46.42c9.53-17.03-5.44-39.49-5.44-39.49-1.14-1.82-2.15-4.18-3.04-6.93Z"/>
        <path class="cls-8" d="m525.26,1117.6s14.97,22.46,5.44,39.49c0,0-33.02-13.62-38.81-52.77v-24.85s-27.08-42.81-46.82-71.33c0,0,11.93-37.44,25.72-2.71,0,0,21.95-32.17,25.02,22.97,0,0,21.45-30.12,19.4,13.28,0,0-.13,47.04,7.01,68.99.89,2.75,1.9,5.11,3.04,6.93Z"/>
        <path class="cls-7" d="m515.45,609.86c8.15,12.79,19.47,24.6,35.03,34.17-42.71,29.12-85.8,69.83-95.69,119.52-.67,2.51-1.27,5.02-1.81,7.53,0,0-97.99,38.42-170.21-3.04,0,0-26.45-76.66,46.06-61.34,0,0-26.55-73.53,67.91-46.47,0,0-18.89-70.46,61.79-31.66,0,0-.03-52.75,56.92-18.71Z"/>
        <path class="cls-7" d="m443.72,473.85s75.29-65.38,62.41,6.63c-4,8.52-6.73,17.58-8.09,26.89-2.18,15.03-3.76,38.16,1.34,62.22-61.88-67.32-62.29,10.47-62.29,10.47-82.22-54.63-75.58,28.6-75.58,28.6-81.19-60.77-76.6,38.3-76.6,38.3-51.12-46.57-59.27,51.37-59.41,53.07-5.4-13.09-9.78-28.02-12.89-45.03-3.33-18.2-1.23-36.96,5.73-54.1,7.36-18.13,15.49-48.21,11.89-87.86,0,0,73.07-111.7,92.98-24.89,0,0,59.24-76.09,58.73-8.68,0,0,65.36-74.56,61.78-5.62Z"/>
        <path class="cls-8" d="m499.38,569.59c2.87,13.56,7.87,27.41,16.07,40.27-56.95-34.04-56.92,18.71-56.92,18.71-80.68-38.8-61.79,31.66-61.79,31.66-94.46-27.06-67.91,46.47-67.91,46.47-72.51-15.32-46.06,61.34-46.06,61.34-23.06-13.23-43.5-34.62-57.27-68.01.14-1.7,8.29-99.64,59.41-53.07,0,0-4.59-99.07,76.6-38.3,0,0-6.64-83.23,75.58-28.6,0,0,.41-77.79,62.29-10.47Z"/>
        <path class="cls-7" d="m533.62,207.29c-49.49-71.47-80.19,28.09-80.19,28.09-41.88-86.31-69.45,0-69.45,0-46.98-70.99-87.83,26.05-87.83,26.05-58.21-54.13-117.47,77.62-117.47,77.62-7.46-60.74,6.76-142.34,113.38-193.03,0,0,182.49-87.71,241.56,61.27Z"/>
      </g>
      <g>
        <path class="cls-5" d="m914.2,982.45s96.59-39.32,117.14-76.6"/>
        <path class="cls-4" d="m1076.75,657.42s-5.14-12.29-8.66-27.01c-4.01-16.75-5.91-36.64,4.23-45.16,0,0,19.81-18.77,35.27-26.27,5.86-2.85,12.83-1.96,17.78,2.27,10.63,9.08,32.25,29,47.6,52.74,4.28,6.63,8.08,13.55,11.01,20.62"/>
        <path class="cls-4" d="m1078.79,601.93s20.08-38.13,38.81,0c0,0-4.43,27.57,0,36.42,0,0,7.49,3.07,20.42,0"/>
        <path class="cls-4" d="m1172.97,613.99l2.59-8.91s12.17,2.89,18.63,11.06l-6.98-11.75s33.43,13.43,70.2,48.05c12.47,11.73,25.31,25.9,37.37,42.8,2.93,4.1,5.8,8.36,8.62,12.78,13.63,21.43,25.78,46.73,34.55,76.4.67,2.26,1.32,4.55,1.95,6.87,0,0,.01,2.49-.44,6.3-1.2,9.94-5.6,28.84-21.86,35.49,0,0-.54.03-1.46.1-3.46.26-12.2,1.05-16.86,2.56-.4.13-.76.26-1.09.4l-1.7,33.53s.96,2.05,2.59,4.96c3.04,5.41,8.37,13.79,14.06,17.46.15.11.31.21.46.3"/>
        <path class="cls-4" d="m1338.87,797.54s-.03.01-.09.04c-1.8.83-30.83,14.49-39.74,37.37"/>
        <path class="cls-4" d="m1256.43,653.16s.34-.25.98-.72c6-4.33,38.15-26.9,57.63-27.72,5.36-.22,9.64,4.43,9.09,9.77-2.02,19.56-8.51,71.44-20.73,73.53"/>
        <path class="cls-4" d="m1319.73,636.05s-21.05,26.45-24.95,59.19"/>
        <path class="cls-4" d="m1310.65,862.16c-2.42,4.94-5.88,9.36-10.84,12.11"/>
        <path class="cls-4" d="m1316.14,833.18s.13,2.82-.17,7.03"/>
        <path class="cls-4" d="m1273.02,836.52c5.37-1.23,10.63-4.02,15.17-9.23,0,0-37.15-11.36-51.19-18.39,0,0-5.29-.08-12.59,1.73-8.65,2.15-20.1,6.95-28.9,17.68,0,0,22.22-10.09,41.75,0,0,0,6.03,3.97,14.41,6.64,2.91.93,6.12,1.7,9.45,2.09,3.49.41,7.13.41,10.74-.28.38-.06.77-.14,1.15-.24"/>
        <path class="cls-4" d="m1260.67,843.84c.29-3.48.33-5.83.33-5.83"/>
        <path class="cls-4" d="m1251.67,834.95c-28.86-4.73-48.88,25.91-48.88,25.91,0,0,8.67,20.26,45.7,12.39,5.28-1.13,8.34-8.09,10.1-15.54"/>
        <path class="cls-4" d="m1285.77,782.97s10.87,20.31,9.01,40.14"/>
        <path class="cls-4" d="m1017.52,797.55c.45.96,29.29,62.1,31.82,86.42,0,0,51.84,33.19,71.62,69.45,0,0,112.55,28.98,142.42.46"/>
        <path class="cls-4" d="m1224.42,810.64h-.01c-40.93-35.04-89.45-39.18-89.45-39.18-16.68-3.75-53.79,21.44-53.79,21.44-29.28,16.17-62.91,4.9-63.65,4.65h-.01"/>
        <path class="cls-4" d="m1281.34,870.86c0-.09-.01-.19-.01-.28-1.32-29.75-6.09-33.82-8.31-34.06h-.01c-.71-.07-1.15.24-1.15.24"/>
        <path class="cls-4" d="m1282.71,949.69c.23-.06.45-.13.68-.19,0,0,14.96-3.5,20.25-11.43.18-.27.35-.54.51-.82"/>
        <path class="cls-4" d="m1296.49,869.67l-15.16.91-4.73.28c-53.42,8.17-71.85,44.6-71.85,44.6,0,0-4.83,47.98,58.63,38.41,5.84-.87,12.27-2.24,19.32-4.18"/>
        <path class="cls-4" d="m1320.36,892.57c3.68.53,7.8,1.53,12.39,3.14,0,0,2.7,25.87-6.02,36.89-.55.71-1.16,1.35-1.81,1.92-10.9,9.53-21.47,4.85-21.47,4.85,0,0,.1-.49.19-1.3.39-3.56.49-13.37-9.7-15.55,0,0-12-9.7-2.04-19.66,0,0,5.03-10.45,21.24-10.77,1.75-.04,3.64.04,5.67.28"/>
        <path class="cls-4" d="m1319.18,892.41c.32.04.64.08.97.13"/>
        <path class="cls-4" d="m1325.98,931.71s-21.64-23.29-20.23-28.27c0,0,.99-12.11,13.06-11.07.12.01.24.02.37.04.31.03.64.07.97.13l.21.03"/>
        <path class="cls-4" d="m1250.92,915.37s20.04,29.04,31.78,34.32h.01"/>
        <path class="cls-4" d="m1246.54,916.13c.64,0,4.6-2.81,10.85,1.28"/>
        <path class="cls-4" d="m1092.39,944.95c9.1,3.65,18.63,6.53,28.57,8.47"/>
        <path class="cls-4" d="m952.5,797.69c.62,1.4,27.91,62.27,78.84,108.16,17.57,15.84,37.96,29.89,61.04,39.1"/>
        <path class="cls-4" d="m974.62,809.93h-.01c-.61-.24-19.89-7.88-22.11-12.24,0-.01-.01-.01-.01-.02"/>
        <path class="cls-4" d="m1068.09,630.41s-42.83,33.98-50.58,59.01c0,0-2.11,4.85-5.96,12.01-7.12,13.27-20.17,34.51-36.67,47.55-8.21,6.51-17.28,10.97-26.9,11.41,0,0,14.54,35.9,26.63,49.53"/>
        <path class="cls-4" d="m1092.39,944.95h0c-.47-.08-9.43.76-22,2.52-18.1,2.53-43.68,6.96-62.12,13.23"/>
        <path class="cls-6" d="m974.88,748.98s53.76,48.82,123.54,15.12c69.79-33.7,148,36.11,148,36.11,0,0,36.14,23.59,47.24,23.98l8-1.08s26.57-38.29,36.29-38.69"/>
        <path class="cls-4" d="m691.86,948.63c-11.81,17.21-28.3,31.11-51.03,39.18,0,0-73.67,30.68-109.18,46.34-7.59,3.34-13.43,6-16.44,7.53,0,0-.13,47.04,7.01,68.99.89,2.75,1.9,5.11,3.04,6.93,0,0,14.97,22.46,5.44,39.49,0,0-33.02-13.62-38.81-52.77v-24.85s-27.08-42.81-46.82-71.33c-6.07-8.77-11.45-16.18-15.13-20.59,0,0,0-26.89,45.95-76.25,0,0-38.3-68.43-22.91-140.22.54-2.51,1.14-5.02,1.81-7.53,9.89-49.69,52.98-90.4,95.69-119.52,47.71-32.53,94.95-50.61,94.95-50.61,48-17.37,126.64,18.93,126.64,18.93,68.93,62.84,239.48,89.08,239.48,89.08"/>
        <path class="cls-4" d="m708.23,744.23s31.81,124.88-12.61,198.55c-1.19,1.98-2.43,3.93-3.75,5.83"/>
        <path class="cls-4" d="m522.22,1110.67s36.06,35.86,8.48,46.42"/>
        <path class="cls-4" d="m445.07,1008.14s11.93-37.44,25.72-2.71c0,0,21.95-32.17,25.02,22.97,0,0,21.45-30.12,19.4,13.28"/>
        <path class="cls-4" d="m533.63,207.3c6.86,17.3,12.06,37.79,15.1,61.99.53,4.16.99,8.43,1.39,12.81.27,3.02.38,6.05.35,9.08-.14,14.5-1.85,57.61-16.09,111.25-6.48,24.4-15.55,50.99-28.25,78.05-4,8.52-6.73,17.58-8.09,26.89-2.18,15.03-3.76,38.16,1.34,62.22,2.87,13.56,7.87,27.41,16.07,40.27,8.15,12.79,19.47,24.6,35.03,34.17"/>
        <path class="cls-4" d="m452.98,771.08s-97.99,38.42-170.21-3.04c-23.06-13.23-43.5-34.62-57.27-68.01-5.4-13.09-9.78-28.02-12.89-45.03-3.33-18.2-1.23-36.96,5.73-54.1,7.36-18.13,15.49-48.21,11.89-87.86-1.75-19.21-6.24-40.66-14.93-64.09-3.61-9.75-7.95-19.84-13.11-30.25,0,0-5.83-11.05-11.88-29.05-4.55-13.53-9.22-30.97-11.63-50.6-7.46-60.74,6.76-142.34,113.38-193.03,0,0,182.49-87.71,241.56,61.27"/>
        <path class="cls-4" d="m546.09,1077.67c7.05,22.23,14.46,47.45,16.61,61.37,0,0-3.4,12.94,8.85,15.32,0,0,76.6,3.07,83.75,0,0,0,.81-4.34-2.92-8.87-3.51-4.26-11.03-8.7-27.04-9.85"/>
        <path class="cls-4" d="m531.65,1034.15s7.01,20.09,14.44,43.51"/>
        <path class="cls-4" d="m691.87,948.61s0,.01,0,.02c-.57,1.58-37.68,103.13-93.75,129.48,0,0-18.9,34.46,1.87,47.06,0,0,44.35,2,52.4,20.32.01.01.01.03.02.04"/>
        <path class="cls-4" d="m546.09,1077.67h0c.15-.79,8.05-41.81,20.44-9.18,0,0,9.45-31.15,14.81,1.28,0,0,16.17-22.83,16.77,8.34"/>
        <path class="cls-4" d="m831.96,1070.51c.5-1.29.96-2.61,1.38-3.95,0,0,12.77-58.07,22.98-61.13,8-2.41,18.52-15.48,57.88-22.98,4.1-.78,8.52-1.51,13.29-2.15,7.82-1.06,16.56-1.9,26.36-2.45,0,0,21.5-.09,54.41-17.15"/>
        <path class="cls-4" d="m695.63,942.78s39.67,11.56,53.63,10.64c0,0-3.41,56.17,6.12,80.73,0,0,7.27,11.67,4.54,26.89-1.89,10.5-8.53,22.69-25.64,33.9,0,0-31.84,26.4-13.54,77.46,0,0,16.26,23.49,22.05-25.19,0,0,2.38,18.39,6.12,37.45,0,0,12.6,8.46,22.43-.96,4.47-4.27,8.37-12.23,10.26-26.34.85-6.35.53-12.81-.72-19.1-1.08-5.35-1.91-12.06.03-14.2,0,0,37.68-18.3,51.05-53.53"/>
        <path class="cls-4" d="m766.45,1140.06s2.46,12.83,4.89,43.64v.02"/>
        <path class="cls-4" d="m1074.89,1066.55c-.67-2.92-1.04-5.78-1.04-8.53l-3.47-110.55"/>
        <path class="cls-4" d="m927.49,980.3s59.84,58.49,85.53,108.38c3.43,6.66,6.25,13.18,8.24,19.38,0,0,51.57,43.92,67.91,65.88,0,0,66.38,1.53,86.81,0,0,0,3.37-.62,6.89-2.31,4.93-2.35,10.17-6.8,6.9-14.54,0,0-15.32-32.18-77.11-31.15,0,0-31.58-32.41-37.76-59.38"/>
        <path class="cls-4" d="m1127.21,1142.28s36.52.99,55.66,29.35"/>
        <path class="cls-4" d="m282.77,768.04s-26.45-76.66,46.06-61.34c0,0-26.55-73.53,67.91-46.47,0,0-18.89-70.46,61.79-31.66,0,0-.03-52.75,56.92-18.71"/>
        <path class="cls-4" d="m225.5,700.05v-.02c.14-1.7,8.29-99.64,59.41-53.07,0,0-4.59-99.07,76.6-38.3,0,0-6.64-83.23,75.58-28.6,0,0,.41-77.79,62.29-10.47"/>
        <path class="cls-4" d="m230.23,513.04s73.07-111.7,92.98-24.89c0,0,59.24-76.09,58.73-8.68,0,0,65.36-74.56,61.78-5.62,0,0,75.29-65.38,62.41,6.63"/>
        <path class="cls-4" d="m215.3,448.95s103.83-91.52,106.89-36.38c0,0,80.17-57.7,78.13-1.02,0,0,81.19-73.02,69.45.51,0,0,72.54-73.38,64.61-9.63"/>
        <path class="cls-4" d="m190.31,389.65s77.24-148.65,114.01-73.08c0,0,34.41-99.01,70.82-21.42,0,0,45.6-87.85,80.33-17.38,0,0,36.41-89.44,93.26-8.48,0,0,0,.01,0,.01"/>
        <path class="cls-4" d="m178.68,339.05s59.26-131.75,117.47-77.62c0,0,40.85-97.04,87.83-26.05,0,0,27.57-86.31,69.45,0,0,0,30.7-99.56,80.19-28.09.01,0,.01.01.01.01"/>
        <path class="cls-4" d="m759.92,1061.04s33.59-28.98,27.46,4.43c0,0,26.22-23.45,17.71,6.17,0,0,23.42-20.56,16.68,2.72,0,0,11.52-19.9,10.19-3.85v.02"/>
        <path class="cls-4" d="m1013.02,1088.7v-.02c-.1-.99-3.22-35.06,16.41-10.57,0,0,.51-31.32,17.36-3.75,0,0-2.37-30.64,12.35-3.57,0,0,1.93-33.58,15.75-4.24h.01"/>
      </g>
    </g>
    <path class="cls-9" d="m1078.65,600.27s.79-30.98,29.62-24.85c0,0,16.57,6.88,21.34,31.87,0,0-11.23,31.65,16.68,23.04l-9.12,8.1s-24.49,4.93-21.47-8.1c0,0,1.21-13.53,1.28-26.39.04-6.73-6.26-18.04-18.01-18.56,0,0-11.7-1.11-20.32,14.89Z"/>
    <path class="cls-6" d="m1078.65,601.84s20.09-38.13,38.81,0c0,0-4.43,27.57,0,36.43,0,0,7.49,3.06,20.43,0"/>
    <path class="cls-9" d="m1286.28,682.49s17.11-45.55,32.09-46.53c0,0-22.47,33.15-24.24,56.56l-7.85-10.03Z"/>
    <path class="cls-6" d="m749.26,953.42s12.6-45.56,27.91-78.35"/>
    <path class="cls-9" d="m715.21,891.98s43.64,13.92,49.19,11.83l-15.91,48.43c-14.04,1.18-50.53-9.84-51.4-10.13s10.47-10.72,18.13-50.13Z"/>
  </g>
  <g>
    <path class="cls-3" d="m657.48,595.59s-8.5-9.62-20.08-11.48c-.37-.06-.74-.11-1.11-.15-12.14-1.39,36.88-1.14,45.81,9.84"/>
    <path class="cls-3" d="m751.67,605.3s-7.62-19.36-15.79-19.85,24.6-4.96,41.41,31.32"/>
    <path class="cls-3" d="m626.95,681.64s-19.91-28.6-39.32-27.06,23.77-9.82,48.65-.06c0,0-3.21-17.15-13.16-17.99-9.96-.84,25.57-.33,34.36,11.41"/>
    <path class="cls-3" d="m908.06,940.1s-19.91-28.6-39.32-27.06,23.77-9.82,48.65-.06c0,0-3.21-17.15-13.16-17.99-9.96-.84,25.57-.33,34.36,11.41"/>
    <path class="cls-3" d="m1073.51,685.17c-23.49-7.49-49.36,4.77-36.77,3.74,12.6-1.02,21.11,9.4,21.11,9.4,0,0-5.79-2.97-16.77,2.62,0,0,12.77,1.76,10.72,10.96"/>
    <path class="cls-3" d="m818.28,824.19l-16.85-17.18s20.43-8.17,30.64,8.59"/>
    <path class="cls-3" d="m683.95,856s-20.68-29.91-42.89-29.13c0,0,29.87-10.21,42.89,4.1"/>
    <path class="cls-3" d="m843.46,732.19s-19.19-24.42-43.55-23.7c-24.36.72,49.68-10.17,80.83,11.11,0,0-14.3-19.88-23.49-22.28,0,0,24,.66,36,9.6"/>
    <path class="cls-3" d="m525.94,762.46s-29.62-20.94-53.11-18.38c0,0,16.85-15.01,34.21-9.8,0,0-6.64-12.66-12.77-12.66s18.89-11.74,29.11,3.57"/>
    <path class="cls-3" d="m777.89,945.74s-13.01-21.45-28.53-21.49c0,0,22.01-7.97,41.16,7.1,0,0-6.1-18.99-12.63-20.34,0,0,26.23.25,27.09,13.24"/>
    <path class="cls-3" d="m278.78,216.19s-13.01-21.45-28.53-21.49c0,0,22.01-7.97,41.16,7.1,0,0-6.1-18.99-12.63-20.34,0,0,26.23.25,27.09,13.24"/>
    <path class="cls-3" d="m1116.12,892.54s-22.95-.01-45.42-28.61c0,0,17.25,8.54,23.69,5.29,0,0-23.18-16.52-23.69-20.1,0,0,26.55,12.58,31.15,11.65"/>
    <path class="cls-3" d="m571.96,968.01s-35.4,9.87-51.74,3.06c0,0,18.04-4.09,25.87-10.89,0,0-11.57,3.4-22.47-2.04,0,0,22.68-1.02,28.7-10.21"/>
    <path class="cls-3" d="m479.28,877.33c-16.34,12.26-34.21,2.55-34.21,2.55,0,0,15.83-5.62,17.11-13.28"/>
    <path class="cls-2" d="m1008.26,1021.07s-22.71-10.53-30.42-22.95c0,0-5.69,9.66,13.67,25.47,0,0-13.21,1.35-19.82-7.98,0,0-2.54,11.8,21.85,18.54"/>
    <path class="cls-3" d="m638.01,982.45s-11.06,17.77-29.79,24.72c0,0,6.47-10.08,4.09-16.89"/>
    <path class="cls-3" d="m540.23,304.83s20.94-10.21,19.4-27.06c0,0-4.6,47.49-15.83,55.15,0,0,11.39-7.15,15.91-16.34,0,0-8.76,32.17-19.48,38.3"/>
    <path class="cls-3" d="m411.44,127.69s-11.25-14.66-29.86-13.3c0,0,18.55-6.57,45.57,2.65,0,0-4.77-7.82-10.85-8.61s38.25-.8,43.77,25.17"/>
    <path class="cls-3" d="m425.43,347.23s45.96-13.28,48-34.72c0,0,1.53,21.45-4.6,26.55,0,0,14.3-7.15,14.3-14.3,0,0,3.57,7.4,0,14.55"/>
    <path class="cls-3" d="m225.5,204.23s-23.59,0-35.2,11.23c0,0,8.06-13.79,24.65-19.15,0,0-7.15-4.34-15.32-3.32,0,0,35.74-21.7,49.79-18.64"/>
    <path class="cls-3" d="m260.4,557.6s33.7-17.87,33.19-39.83c0,0,6.64,12.77,5.62,21.96,0,0,11.74-9.7,12.77-18.38,0,0,6.13,7.66,3.06,16.34"/>
    <path class="cls-3" d="m244.57,392.15s18.89-19.91,15.83-33.19c0,0,5.62,15.32,2.55,25.53"/>
    <path class="cls-3" d="m451.26,501.86s23.77-13.73,24.61-27.33c0,0,1.03,16.28-4.81,25.21"/>
    <path class="cls-3" d="m213.77,435.72s-16-16-25.02-14.64c0,0,8.34-11.4,18.72-4.43,0,0-13.05-9.02-17.16-9.19,0,0,4.23-7.83,12.06-3.23"/>
    <path class="cls-3" d="m396.76,784.86s-31.16,5.97-39.67,15.14c0,0-1.7-2.66.98-7.89,0,0-10.09-.96-18,3.57,0,0,7.15-10.47,18.32-14.55"/>
    <path class="cls-3" d="m425.67,689.75s-5.31-6.77-35.69-5.95c0,0,33.91-14.18,43.54-8.15,0,0-1.46-12.09-10.37-15.93,0,0,22.59-4.69,30.02,9.05"/>
  </g>
</svg>