<?xml version="1.0" encoding="UTF-8"?>
<svg id="_5" data-name="5" xmlns="http://www.w3.org/2000/svg" viewBox="0 0 1600 1600">
  <defs>
    <style>
      .cls-1 {
        fill: #fff;
      }

      .cls-2, .cls-3 {
        stroke-miterlimit: 10;
      }

      .cls-2, .cls-3, .cls-4 {
        stroke: #000;
        stroke-width: 2px;
      }

      .cls-2, .cls-5 {
        fill: #737373;
      }

      .cls-3, .cls-4 {
        fill: none;
      }

      .cls-6 {
        fill: #2d2d30;
      }

      .cls-7 {
        fill: #d4d4d6;
      }

      .cls-4 {
        stroke-linecap: round;
        stroke-linejoin: round;
      }
    </style>
  </defs>
  <g>
    <g>
      <g>
        <path class="cls-7" d="m975.17,810.24c-12.08-13.62-26.63-49.52-26.63-49.52,9.62-.44,18.69-4.91,26.91-11.41,0,0,53.75,48.82,123.54,15.12,69.78-33.71,148,36.1,148,36.1,0,0,36.14,23.59,47.23,23.98l8-1.07s26.58-38.3,36.29-38.7c.67,2.26,1.32,4.55,1.95,6.87,0,0,.01,2.49-.44,6.3h-.67c-1.8.83-30.84,14.49-39.74,37.36l.24.8c-.4.13-.76.26-1.09.4l-1.08,21.2-.63,12.33-15.15.91c-1.32-29.75-6.1-33.82-8.32-34.06,5.38-1.23,10.64-4.03,15.18-9.24,0,0-37.15-11.36-51.2-18.38,0,0-5.29-.08-12.58,1.73-40.93-35.03-89.46-39.18-89.46-39.18-16.68-3.74-53.78,21.45-53.78,21.45-29.29,16.16-62.91,4.9-63.65,4.65.45.96,29.28,62.09,31.82,86.42,0,0,51.83,33.19,71.62,69.44-9.94-1.94-19.47-4.82-28.58-8.46-89.98-35.91-139.05-145.38-139.89-147.26,2.23,4.35,21.5,11.99,22.11,12.22Z"/>
        <path class="cls-6" d="m1339.35,797.91h.67c-1.2,9.94-5.6,28.84-21.86,35.49,0,0-.54.03-1.45.1-3.45.26-12.2,1.05-16.86,2.57l-.24-.8c8.9-22.87,37.94-36.53,39.74-37.36Z"/>
        <path class="cls-6" d="m1333.31,896.04s2.7,25.87-6.02,36.89l-.75-.89s-21.63-23.3-20.23-28.28c0,0,.98-12.01,12.92-11.08,4.1.45,8.77,1.5,14.08,3.36Z"/>
        <path class="cls-6" d="m1313.7,892.42c1.71-.04,3.56.04,5.53.26-11.94-.93-12.92,11.08-12.92,11.08-1.4,4.98,20.23,28.28,20.23,28.28l.75.89c-.55.71-1.16,1.35-1.81,1.92-10.89,9.53-21.47,4.85-21.47,4.85,0,0,.11-.5.2-1.32.38-3.57.46-13.35-9.71-15.53,0,0-12-9.7-2.04-19.66,0,0,5.03-10.45,21.24-10.77Z"/>
        <path class="cls-5" d="m1295.34,695.56c-12.05-16.9-24.9-31.06-37.36-42.79,6-4.33,38.15-26.91,57.62-27.72,5.36-.23,9.65,4.43,9.1,9.76-2.02,19.56-8.52,71.44-20.74,73.54-2.81-4.43-5.69-8.69-8.62-12.79Z"/>
        <path class="cls-5" d="m1068.65,630.74c-4-16.75-5.92-36.65,4.23-45.17,0,0,19.81-18.76,35.27-26.27,5.86-2.84,12.83-1.96,17.79,2.27,10.62,9.08,32.24,29,47.59,52.74l2.59-8.91s12.17,2.9,18.64,11.07l-6.98-11.75s33.43,13.43,70.2,48.05c12.46,11.73,25.31,25.89,37.36,42.79,2.93,4.1,5.81,8.36,8.62,12.79,13.63,21.42,25.78,46.72,34.55,76.39-9.71.4-36.29,38.7-36.29,38.7l-8,1.07c-11.09-.39-47.23-23.98-47.23-23.98,0,0-78.22-69.81-148-36.1-69.79,33.7-123.54-15.12-123.54-15.12,16.49-13.05,29.54-34.28,36.67-47.55,3.84-7.17,5.96-12.02,5.96-12.02,7.74-25.02,50.57-59,50.57-59Z"/>
        <path class="cls-1" d="m1316.71,833.5s.13,2.83-.18,7.05c-.56-1.3-1.41-2.23-2.53-2.65-3.86-1.48-9.43,3.71-12.44,11.59-1.1,2.9-1.71,5.75-1.84,8.28l-2.04-.1,1.08-21.2c.33-.14.69-.27,1.09-.4,4.66-1.52,13.41-2.31,16.86-2.57Z"/>
        <path d="m1316.53,840.55c1.43,3.22,1.16,8.68-.98,14.29-1.15,3-2.67,5.62-4.33,7.62,3.63-7.42,4.89-16.02,5.31-21.91Z"/>
        <path d="m1314,837.9c1.12.42,1.97,1.35,2.53,2.65-.42,5.89-1.68,14.49-5.31,21.91-2.68,3.25-5.73,4.89-8.12,3.98-2.44-.94-3.62-4.32-3.38-8.67.13-2.53.74-5.38,1.84-8.28,3.01-7.88,8.58-13.07,12.44-11.59Z"/>
        <path class="cls-1" d="m1303.1,866.44c2.39.91,5.44-.73,8.12-3.98-2.42,4.95-5.88,9.38-10.85,12.13l-.73.37c-1.63-2.91-2.59-4.96-2.59-4.96l.63-12.33,2.04.1c-.24,4.35.94,7.73,3.38,8.67Z"/>
        <path class="cls-7" d="m1283.27,950.01c-7.06,1.95-13.48,3.32-19.33,4.19-63.46,9.56-58.63-38.42-58.63-38.42,0,0,18.43-36.42,71.85-44.59l4.74-.28,15.15-.91s.96,2.05,2.59,4.96c3.04,5.41,8.37,13.79,14.06,17.46-16.21.32-21.24,10.77-21.24,10.77-9.96,9.96,2.04,19.66,2.04,19.66,10.17,2.18,10.09,11.96,9.71,15.53-5.28,7.94-20.26,11.45-20.26,11.45-.23.06-.45.13-.68.18Z"/>
        <path class="cls-5" d="m1281.9,870.91l-4.74.28c-53.42,8.17-71.85,44.59-71.85,44.59,0,0-4.83,47.98,58.63,38.42-29.87,28.53-142.41-.46-142.41-.46-19.79-36.25-71.62-69.44-71.62-69.44-2.54-24.33-31.37-85.46-31.82-86.42.74.25,34.36,11.51,63.65-4.65,0,0,37.1-25.19,53.78-21.45,0,0,48.53,4.15,89.46,39.18-8.65,2.14-20.11,6.94-28.9,17.68,0,0,22.21-10.09,41.74,0,0,0,6.03,3.96,14.41,6.63-28.86-4.72-48.88,25.92-48.88,25.92,0,0,8.67,20.26,45.7,12.38,5.29-1.12,8.35-8.11,10.12-15.57h0c.18-.42.36-.85.52-1.28,1.79-4.69,2.27-9.27,1.55-12.53.28-3.5.32-5.85.32-5.85l.12-.98c3.5.42,7.14.41,10.74-.27.38-.07.77-.15,1.15-.24h.01c2.22.24,7,4.31,8.32,34.06Z"/>
        <path class="cls-6" d="m1288.76,827.61c-4.54,5.21-9.8,8.01-15.18,9.24h-.01c-.71-.07-1.15.24-1.15.24-3.6.68-7.24.69-10.74.27-3.33-.39-6.54-1.16-9.45-2.09-8.38-2.67-14.41-6.63-14.41-6.63-19.53-10.09-41.74,0-41.74,0,8.79-10.74,20.25-15.54,28.9-17.68,7.29-1.81,12.58-1.73,12.58-1.73,14.05,7.02,51.2,18.38,51.2,18.38Z"/>
        <path class="cls-1" d="m1261.68,837.36l-.12.98s-.04,2.35-.32,5.85c-.49-2.22-1.53-3.82-3.09-4.41-3.87-1.48-9.44,3.71-12.45,11.6-3.01,7.88-2.32,15.46,1.54,16.94,3.66,1.4,8.83-3.17,11.93-10.32-1.77,7.46-4.83,14.45-10.12,15.57-37.03,7.88-45.7-12.38-45.7-12.38,0,0,20.02-30.64,48.88-25.92,2.91.93,6.12,1.7,9.45,2.09Z"/>
        <path d="m1261.24,844.19c.72,3.26.24,7.84-1.55,12.53-.16.43-.34.86-.52,1.27,1.16-4.91,1.76-10.02,2.07-13.8Z"/>
        <path d="m1261.24,844.19c-.31,3.78-.91,8.89-2.07,13.8h0c-3.1,7.16-8.27,11.73-11.93,10.33-3.86-1.48-4.55-9.06-1.54-16.94,3.01-7.89,8.58-13.08,12.45-11.6,1.56.59,2.6,2.19,3.09,4.41Z"/>
        <path class="cls-6" d="m1070.47,1131.6c.15,1.11,4.18,30.37-1.33,33.72,0,0-18.38-1.54-24.17-48.51l-.94-11.15s-33.7-25.68-55.55-37.98c0,0-24.36-32.49,11.38-27.9,0,0-13.02-22.97,25.28-8.93,0,0-13.28-24.76,17.35-7.16-.36-.52-10.73-15.55,7.5-6.32,6.17,5.32,10.69,9.81,12.68,12.97,0,0,38.3,71.49,47.49,91.91,0,0,10.21,35.24,3.58,49.53,0,0-5.62,3.2-7.41.9,0,0,.26,7.66-8.3,5.74,0,0-14.92-5.49-27.56-46.82Z"/>
        <path class="cls-5" d="m953.06,798.02c.84,1.88,49.91,111.35,139.89,147.26-.65-.26-97,23.23-119.47,16.1,24.63,16.7,58,40.04,76.51,55.99-18.23-9.23-7.86,5.8-7.5,6.32-30.63-17.6-17.35,7.16-17.35,7.16-38.3-14.04-25.28,8.93-25.28,8.93-35.74-4.59-11.38,27.9-11.38,27.9-4.02-2.25-7.64-4.06-10.57-5.17,0,0-16.67-4.29-40.94-11.27-19.75-5.68-44.54-13.14-69.45-21.51-33.5-11.25-67.24-24.15-89.31-36.6,24.47,77.18-5.84,125.29-5.84,125.29-.26,3.27,5.05,11.36,12.21,20.64-24.81-17.15-18.59,6.68-18.59,6.68-16.85-9.7-12,8.68-12,8.68-23.84-9.03-10.19,13.3-9.72,14.06-24.67-15.88-48.24-29.89-48.24-29.89-2.78-60.24-35.72-105.04-56.4-127.45-9.64-10.46-16.62-16.04-16.62-16.04-129.51-44.02-151.47-147.88-153.57-202.87-.83-21.55,1.4-35.59,1.4-35.59,3.39-17.01,10.26-32.79,19.4-47.27,3-4.74,6.23-9.35,9.67-13.81,12.69-16.49,28.11-31.07,44.12-43.69,48.31-38.06,101.96-58.13,101.96-58.13,48-17.36,126.64,18.93,126.64,18.93,68.93,62.85,239.48,89.09,239.48,89.09h.01c-7.13,13.27-20.18,34.5-36.67,47.55-8.22,6.5-17.29,10.97-26.91,11.41,0,0,14.55,35.9,26.63,49.52-.61-.23-19.88-7.87-22.11-12.22Z"/>
        <path class="cls-6" d="m978.76,1193.57v3.24l-.27.09c-1.51-3.87-10.09-9.26-40.07-14.56,0,0-.32-.21-.86-.61,0,0,39.84-3.48,41.2,11.84Z"/>
        <path class="cls-6" d="m978.49,1196.9c1.31,3.33-2.63,5.52-2.63,5.52-4.08-.68-74.21-4.76-74.21-4.76-11.05-13.44-20.12-61.43-26.13-102.69,0,0,1.02-21.74,11.75-12.29,0,0,10.98-15.83,16.85-.51,0,0,11.74-8.94,16.08,14.3,0,0,3.34-16.33,6.27-.01h0c-.82,4.2-1.32,6.9-1.32,6.9-4.41,11.23,0,63.32,0,63.32,1.71,6.79,9.75,13.12,12.41,15.05.54.4.86.61.86.61,29.98,5.3,38.56,10.69,40.07,14.56Z"/>
        <path class="cls-5" d="m936.97,1051.24c-2.64,5.62-8.02,32.38-10.5,45.22-2.93-16.32-6.27.01-6.27.01-4.34-23.24-16.08-14.3-16.08-14.3-5.87-15.32-16.85.51-16.85.51-10.73-9.45-11.75,12.29-11.75,12.29-5.11-35.05-8-65.24-8-65.24,24.91,8.37,49.7,15.83,69.45,21.51Z"/>
        <path class="cls-6" d="m896.06,1216.44c-15.53,1.76-96.52-5.85-96.52-5.85-2.42-6.79-29.44-25.46-55.26-42.09,0,0,0,0-.01-.02-.47-.76-14.12-23.09,9.72-14.06,0,0-4.85-18.38,12-8.68,0,0-6.22-23.83,18.59-6.68,14.07,18.26,35.28,41.15,35.28,41.15,98.56,8.17,82.47,31.4,82.47,31.4-.25,3.58-4.85,4.6-4.85,4.6-.38.09-.86.16-1.42.23Z"/>
        <path class="cls-5" d="m643.64,305.14c23.75,67.69,13.59,135.57-7.54,193.09,2.36-77.12-85.09-4.57-85.09-4.57-1.02-77.62-76.59,11.83-76.59,11.83-6.13-87.23-84.77,15.74-84.77,15.74,1.01-86.61-94.21,3.49-96.84,5.99,32.52-39.92,30.37-70.47,23.79-88.19,0,0,18.71-92.44,68.6-40.35,0,0,16.71-86.81,72.36-40.34,0,0,9.2-78.64,73.03-28.6,0,0,6.12-81.19,78.63-10.21,0,0-12.86-79.28,34.42-14.39Z"/>
        <path class="cls-6" d="m541.81,218.41c-.85-.87-39.23-40.71-5.5-38.74,65.7,46.96,103.32,114.84,103.32,114.84,1.43,3.54,2.77,7.09,4.01,10.63-47.28-64.89-34.42,14.39-34.42,14.39-72.51-70.98-78.63,10.21-78.63,10.21-63.83-50.04-73.03,28.6-73.03,28.6-55.65-46.47-72.36,40.34-72.36,40.34-49.89-52.09-68.6,40.35-68.6,40.35-2.09-5.63-4.62-9.96-6.64-12.89-1.84-2.66-4.24-4.87-7.04-6.49,0,0-69.01-109.82,25.96-102.16,0,0-19.4-87.83,77.11-42.9,0,0-21.96-80.68,65.36-38.29,0,0-19.91-71.99,70.46-17.89Z"/>
        <path class="cls-6" d="m551.01,493.66s87.45-72.55,85.09,4.57c-10.5,28.58-23.71,54.6-36.82,76.78,14.57-66.73-63.59-7.31-63.59-7.31,6.64-62.3-66.43,9.7-66.43,9.7-15.89-64.34-96.46,3.58-96.46,3.58-7.66-81.71-118.92,2.85-118.92,2.85h-.01c10.75-22.75,21.14-37.32,21.14-37.32,6.84-6.64,12.73-13.06,17.77-19.26l.03-.03c2.63-2.5,97.85-92.6,96.84-5.99,0,0,78.64-102.97,84.77-15.74,0,0,75.57-89.45,76.59-11.83Z"/>
        <path class="cls-5" d="m623.01,995.1s6.98,5.58,16.62,16.04c0,0-89.13,88.04-149.38,104.94,0,0-1.73,1-4.33,3.03,9.79-31.23-16.66-10.64-16.66-10.64,2.51-35.37-19.35-12.26-19.35-12.26-3.41-31.31-15.08,0-15.08,0-.1-13.72-1.29-26.15-4.33-34.72,0,0,37.68-31.66,38.76-53.62,0,0-56.02-112.88-27.42-195.09,9.3-5.05,18.48-11.8,27.42-20.54h.18c2.1,54.98,24.06,158.84,153.57,202.86Z"/>
        <path class="cls-5" d="m535.69,567.7s78.16-59.42,63.59,7.31c-27.85,47.11-55.25,76.86-55.25,76.86-16.01,12.62-31.43,27.2-44.12,43.69-33.75-71.79-59.2,0-59.2,0-63.32-57.5-67.4,36.05-67.4,36.05-55.15-67.4-50.04,4.09-50.04,4.09-75.58-40.85-47.78,39.56-47.78,39.56-9.54-7.9-15.03-13.52-15.03-13.52-49.51-59.09-27.39-133.85-6.59-177.91h.01s111.26-84.56,118.92-2.85c0,0,80.57-67.92,96.46-3.58,0,0,73.07-72,66.43-9.7Z"/>
        <path class="cls-5" d="m536.31,179.67c-33.73-1.97,4.65,37.87,5.5,38.74-90.37-54.1-70.46,17.89-70.46,17.89-87.32-42.39-65.36,38.29-65.36,38.29-96.51-44.93-77.11,42.9-77.11,42.9-94.97-7.66-25.96,102.16-25.96,102.16-183.5-106.45-70.04-203.27-70.04-203.27,126.37-114.37,231.66-88.02,303.43-36.71Z"/>
        <path class="cls-6" d="m507.68,1191.05c-18.88,3.61-48.88,5.83-81.26-5.48,0,0,8.71-49.99,8.41-89.36,0,0,11.67-31.31,15.08,0,0,0,21.86-23.11,19.35,12.26,0,0,26.45-20.59,16.66,10.64-8.26,6.45-25.31,23.31-23.76,51.65,0,0,44.94-13.78,65.87,14.81,0,0-7.67,3.05-20.35,5.48Z"/>
        <path class="cls-6" d="m499.91,695.56c-3.44,4.46-6.67,9.07-9.67,13.81-26.81-36.29-39.06,17.14-39.06,17.14-50.55-33.7-65.98,25.27-65.98,25.27-38.4-25.27-48.91,14.56-48.91,14.56-34.47-16.09-38.06,25.9-38.06,25.9-8.97-6.01-16.67-11.96-22.74-16.98,0,0-27.8-80.41,47.78-39.56,0,0-5.11-71.49,50.04-4.09,0,0,4.08-93.55,67.4-36.05,0,0,25.45-71.79,59.2,0Z"/>
        <path class="cls-5" d="m451.18,726.51s12.25-53.43,39.06-17.14c-9.14,14.48-16.01,30.26-19.4,47.27,0,0-2.23,14.04-1.4,35.59h-.18c-8.94,8.75-18.12,15.5-27.42,20.55-52.16,28.34-107.9,3.39-143.61-20.54,0,0,3.59-41.99,38.06-25.9,0,0,10.51-39.83,48.91-14.56,0,0,15.43-58.97,65.98-25.27Z"/>
      </g>
      <g>
        <path class="cls-3" d="m1173.53,614.32c4.29,6.62,8.08,13.54,11.01,20.61"/>
        <path class="cls-3" d="m1077.31,657.74s-5.14-12.29-8.66-27c-4-16.75-5.92-36.65,4.23-45.17,0,0,19.81-18.76,35.27-26.27,5.86-2.84,12.83-1.96,17.79,2.27,10.62,9.08,32.24,29,47.59,52.74"/>
        <path class="cls-3" d="m1173.53,614.32h0s2.59-8.92,2.59-8.92c0,0,12.17,2.9,18.64,11.07l-6.98-11.75s33.43,13.43,70.2,48.05c12.46,11.73,25.31,25.89,37.36,42.79,2.93,4.1,5.81,8.36,8.62,12.79,13.63,21.42,25.78,46.72,34.55,76.39.67,2.26,1.32,4.55,1.95,6.87,0,0,.01,2.49-.44,6.3-1.2,9.94-5.6,28.84-21.86,35.49,0,0-.54.03-1.45.1-3.45.26-12.2,1.05-16.86,2.57-.4.13-.76.26-1.09.4l-1.08,21.2-.63,12.33s.96,2.05,2.59,4.96c3.04,5.41,8.37,13.79,14.06,17.46.15.11.31.21.46.3"/>
        <path class="cls-3" d="m1339.44,797.87s-.03.01-.09.04c-1.8.83-30.84,14.49-39.74,37.36"/>
        <path class="cls-3" d="m1257,653.49s.34-.25.98-.72c6-4.33,38.15-26.91,57.62-27.72,5.36-.23,9.65,4.43,9.1,9.76-2.02,19.56-8.52,71.44-20.74,73.54"/>
        <path class="cls-3" d="m1320.29,636.38s-21.05,26.45-24.95,59.18"/>
        <path class="cls-3" d="m1311.22,862.46c-2.42,4.95-5.88,9.38-10.85,12.13"/>
        <path class="cls-3" d="m1316.71,833.5s.13,2.83-.18,7.05"/>
        <path class="cls-3" d="m1273.58,836.85c5.38-1.23,10.64-4.03,15.18-9.24,0,0-37.15-11.36-51.2-18.38,0,0-5.29-.08-12.58,1.73-8.65,2.14-20.11,6.94-28.9,17.68,0,0,22.21-10.09,41.74,0,0,0,6.03,3.96,14.41,6.63,2.91.93,6.12,1.7,9.45,2.09,3.5.42,7.14.41,10.74-.27.38-.07.77-.15,1.15-.24"/>
        <path class="cls-3" d="m1261.24,844.19c.28-3.5.32-5.85.32-5.85"/>
        <path class="cls-3" d="m1252.23,835.27c-28.86-4.72-48.88,25.92-48.88,25.92,0,0,8.67,20.26,45.7,12.38,5.29-1.12,8.35-8.11,10.12-15.57"/>
        <path class="cls-3" d="m1286.33,783.3s10.87,20.3,9.01,40.14"/>
        <path class="cls-3" d="m1018.09,797.88c.45.96,29.28,62.09,31.82,86.42,0,0,51.83,33.19,71.62,69.44,0,0,112.54,28.99,142.41.46"/>
        <path class="cls-3" d="m1224.98,810.96c-40.93-35.03-89.46-39.18-89.46-39.18-16.68-3.74-53.78,21.45-53.78,21.45-29.29,16.16-62.91,4.9-63.65,4.65h-.01"/>
        <path class="cls-3" d="m1281.91,871.19c0-.09-.01-.19-.01-.28-1.32-29.75-6.1-33.82-8.32-34.06h-.01c-.71-.07-1.15.24-1.15.24"/>
        <path class="cls-3" d="m1297.05,870l-15.15.91-4.74.28c-53.42,8.17-71.85,44.59-71.85,44.59,0,0-4.83,47.98,58.63,38.42,5.85-.87,12.27-2.24,19.33-4.19.23-.05.45-.12.68-.18,0,0,14.98-3.51,20.26-11.45.18-.26.35-.53.5-.81"/>
        <path class="cls-3" d="m1304.21,938.38c.38-3.57.46-13.35-9.71-15.53,0,0-12-9.7-2.04-19.66,0,0,5.03-10.45,21.24-10.77,1.71-.04,3.56.04,5.53.26,4.1.45,8.77,1.5,14.08,3.36,0,0,2.7,25.87-6.02,36.89-.55.71-1.16,1.35-1.81,1.92-10.89,9.53-21.47,4.85-21.47,4.85,0,0,.11-.5.2-1.32Z"/>
        <path class="cls-3" d="m1326.54,932.04s-21.63-23.3-20.23-28.28c0,0,.98-12.01,12.92-11.08.54.04,1.1.11,1.69.21"/>
        <path class="cls-3" d="m1251.48,915.7s20.05,29.05,31.79,34.31"/>
        <path class="cls-3" d="m1247.1,916.46c.64,0,4.6-2.81,10.86,1.28"/>
        <path class="cls-3" d="m953.06,798.02c.84,1.88,49.91,111.35,139.89,147.26,9.11,3.64,18.64,6.52,28.58,8.46"/>
        <path class="cls-3" d="m975.18,810.25h0c-.61-.24-19.88-7.88-22.11-12.23,0,0-.01,0-.01-.02"/>
        <path class="cls-3" d="m1068.65,630.74s-42.83,33.98-50.57,59c0,0-2.12,4.85-5.96,12.02-7.13,13.27-20.18,34.5-36.67,47.55-8.22,6.5-17.29,10.97-26.91,11.41,0,0,14.55,35.9,26.63,49.52"/>
        <path class="cls-3" d="m1070.46,1131.57s0,.01.01.03c.15,1.11,4.18,30.37-1.33,33.72,0,0-18.38-1.54-24.17-48.51l-.94-11.15s-33.7-25.68-55.55-37.98c-4.02-2.25-7.64-4.06-10.57-5.17,0,0-16.67-4.29-40.94-11.27-19.75-5.68-44.54-13.14-69.45-21.51-33.5-11.25-67.24-24.15-89.31-36.6-12.28-6.92-20.95-13.7-23.96-19.98,0,0-19.75-8.17-19.92-24.85,0,0,5.79,4.76,7.83,3.57,0,0,1.53-64.34,13.11-91.23"/>
        <path class="cls-3" d="m948.54,865.4s-16.08,57.45-5.87,75.45c0,0,13.16,8.56,30.81,20.53,24.63,16.7,58,40.04,76.51,55.99,6.17,5.32,10.69,9.81,12.68,12.97,0,0,38.3,71.49,47.49,91.91,0,0,10.21,35.24,3.58,49.53,0,0-5.62,3.2-7.41.9,0,0,.26,7.66-8.3,5.74,0,0-14.92-5.49-27.56-46.82"/>
        <path class="cls-3" d="m1094.25,1130.08s12.59,22.81,11.91,42.13"/>
        <path class="cls-3" d="m1092.95,945.28c-.65-.26-97,23.23-119.47,16.1"/>
        <path class="cls-3" d="m744.28,1168.5c25.82,16.63,52.84,35.3,55.26,42.09,0,0,80.99,7.61,96.52,5.85.56-.07,1.04-.14,1.42-.23,0,0,4.6-1.02,4.85-4.6,0,0,16.09-23.23-82.47-31.4,0,0-21.21-22.89-35.28-41.15-7.16-9.28-12.47-17.37-12.21-20.64,0,0,30.31-48.11,5.84-125.29"/>
        <path class="cls-3" d="m1012.11,701.76s-170.55-26.24-239.48-89.09c0,0-78.64-36.29-126.64-18.93,0,0-53.65,20.07-101.96,58.13-16.01,12.62-31.43,27.2-44.12,43.69-3.44,4.46-6.67,9.07-9.67,13.81-9.14,14.48-16.01,30.26-19.4,47.27,0,0-2.23,14.04-1.4,35.59,2.1,54.99,24.06,158.85,153.57,202.87,0,0,6.98,5.58,16.62,16.04,20.68,22.41,53.62,67.21,56.4,127.45,0,0,23.57,14.01,48.24,29.89"/>
        <path class="cls-3" d="m859.61,1195.44s23.19,7.44,36.45,21"/>
        <path class="cls-3" d="m744.28,1168.5s0,0-.01-.02c-.47-.76-14.12-23.09,9.72-14.06,0,0-4.85-18.38,12-8.68,0,0-6.22-23.83,18.59-6.68"/>
        <path class="cls-3" d="m1042.5,1023.7s-.01,0-.01-.01c-.36-.52-10.73-15.55,7.5-6.32"/>
        <path class="cls-3" d="m988.48,1067.68s-24.36-32.49,11.38-27.9c0,0-13.02-22.97,25.28-8.93,0,0-13.28-24.76,17.35-7.16"/>
        <path class="cls-3" d="m926.47,1096.46c2.48-12.84,7.86-39.6,10.5-45.22"/>
        <path class="cls-3" d="m867.52,1029.73s2.89,30.19,8,65.24c6.01,41.26,15.08,89.25,26.13,102.69,0,0,70.13,4.08,74.21,4.76,0,0,3.94-2.19,2.63-5.52-1.51-3.87-10.09-9.26-40.07-14.56,0,0-.32-.21-.86-.61-2.66-1.93-10.7-8.26-12.41-15.05,0,0-4.41-52.09,0-63.32,0,0,.5-2.7,1.32-6.89"/>
        <path class="cls-3" d="m875.52,1094.97s1.02-21.74,11.75-12.29c0,0,10.98-15.83,16.85-.51,0,0,11.74-8.94,16.08,14.3,0,0,3.34-16.33,6.27-.01h0"/>
        <path class="cls-3" d="m937.56,1181.73s39.84-3.48,41.2,11.84v3.24"/>
        <path class="cls-3" d="m639.63,1011.14s-89.13,88.04-149.38,104.94c0,0-1.73,1-4.33,3.03-8.26,6.45-25.31,23.31-23.76,51.65,0,0,44.94-13.78,65.87,14.81,0,0-7.67,3.05-20.35,5.48-18.88,3.61-48.88,5.83-81.26-5.48,0,0,8.71-49.99,8.41-89.36-.1-13.72-1.29-26.15-4.33-34.72,0,0,37.68-31.66,38.76-53.62,0,0-56.02-112.88-27.42-195.09"/>
        <path class="cls-3" d="m292.78,527.25c-5.04,6.2-10.93,12.62-17.77,19.26,0,0-10.39,14.57-21.14,37.32-20.8,44.06-42.92,118.82,6.59,177.91,0,0,5.49,5.62,15.03,13.52,6.07,5.02,13.77,10.97,22.74,16.98,35.71,23.93,91.45,48.88,143.61,20.54,9.3-5.05,18.48-11.8,27.42-20.54"/>
        <path class="cls-3" d="m544.03,651.87s27.4-29.75,55.25-76.86c13.11-22.18,26.32-48.2,36.82-76.78,21.13-57.52,31.29-125.4,7.54-193.09-1.24-3.54-2.58-7.09-4.01-10.63,0,0-37.62-67.88-103.32-114.84-71.77-51.31-177.06-77.66-303.43,36.71,0,0-113.46,96.82,70.04,203.27,2.8,1.62,5.2,3.83,7.04,6.49,2.02,2.93,4.55,7.26,6.64,12.89,6.58,17.72,8.73,48.27-23.79,88.19"/>
        <path class="cls-3" d="m481.31,1174.85s20.31,3.54,26.37,16.2"/>
        <path class="cls-3" d="m275.49,775.26s-27.8-80.41,47.78-39.56c0,0-5.11-71.49,50.04-4.09,0,0,4.08-93.55,67.4-36.05,0,0,25.45-71.79,59.2,0"/>
        <path class="cls-3" d="m292.75,527.28l.03-.03.03-.03c2.63-2.5,97.85-92.6,96.84-5.99,0,0,78.64-102.97,84.77-15.74,0,0,75.57-89.45,76.59-11.83,0,0,87.45-72.55,85.09,4.57"/>
        <path class="cls-3" d="m541.82,218.42s-.01,0-.01,0c-.85-.87-39.23-40.71-5.5-38.74"/>
        <path class="cls-3" d="m302.92,419.65s-69.01-109.82,25.96-102.16c0,0-19.4-87.83,77.11-42.9,0,0-21.96-80.68,65.36-38.29,0,0-19.91-71.99,70.46-17.89"/>
        <path class="cls-3" d="m434.83,1096.21s11.67-31.31,15.08,0c0,0,21.86-23.11,19.35,12.26,0,0,26.45-20.59,16.66,10.64"/>
        <path class="cls-3" d="m316.6,439.03s18.71-92.44,68.6-40.35c0,0,16.71-86.81,72.36-40.34,0,0,9.2-78.64,73.03-28.6,0,0,6.12-81.19,78.63-10.21,0,0-12.86-79.28,34.42-14.39,0,.01.01.01.01.02"/>
        <path class="cls-3" d="m253.88,583.83s111.26-84.56,118.92-2.85c0,0,80.57-67.92,96.46-3.58,0,0,73.07-72,66.43-9.7,0,0,78.16-59.42,63.59,7.31"/>
        <path class="cls-3" d="m298.23,792.24s3.59-41.99,38.06-25.9c0,0,10.51-39.83,48.91-14.56,0,0,15.43-58.97,65.98-25.27,0,0,12.25-53.43,39.06-17.14"/>
        <path class="cls-3" d="m975.45,749.31s53.75,48.82,123.54,15.12c69.78-33.71,148,36.1,148,36.1,0,0,36.14,23.59,47.23,23.98l8-1.07s26.58-38.3,36.29-38.7"/>
      </g>
    </g>
    <path class="cls-7" d="m1079.36,600.68s.79-30.98,29.62-24.85c0,0,16.57,6.88,21.34,31.87,0,0-11.23,31.65,16.68,23.04l-9.12,8.1s-24.49,4.93-21.47-8.1c0,0,1.21-13.53,1.28-26.39.04-6.73-6.26-18.04-18.01-18.56,0,0-11.7-1.11-20.32,14.89Z"/>
    <path class="cls-4" d="m1079.36,602.25s20.09-38.13,38.81,0c0,0-4.43,27.57,0,36.43,0,0,7.49,3.06,20.43,0"/>
    <path class="cls-7" d="m940.61,904.29s57.45,12.91,92.97,4.98c0,0,36.47,29.16,56.3,36.01,0,0-96.04,22.26-118.7,14.54,0,0-21.3-16.16-27.86-19.74-3.38-6.34-3.58-19.88-2.72-35.8Z"/>
    <path class="cls-7" d="m1286.99,682.91s17.11-45.55,32.09-46.53c0,0-22.47,33.15-24.24,56.56l-7.85-10.03Z"/>
  </g>
  <g>
    <path class="cls-2" d="m657.34,595.46s-8.5-9.62-20.08-11.48c-.37-.06-.74-.11-1.11-.15-12.14-1.39,36.88-1.14,45.81,9.84"/>
    <path class="cls-2" d="m751.54,605.16s-7.62-19.36-15.79-19.85,24.6-4.96,41.41,31.32"/>
    <path class="cls-2" d="m655.48,355.92s12.87-17.23,11.85-37.99c0,0,1.33,87.15-11.25,95.32,0,0,12.61-1.1,22.57-9.28,0,0-9.54,24.33-25.83,33.23"/>
    <path class="cls-2" d="m413.37,137.67s-23.23-15.32-33.7-12.77,24.31-19.63,76.6,18.64"/>
    <path class="cls-2" d="m212.43,244.39s1.59-8.51-8.96.34-1.39-15.28,30.66-27.78"/>
    <path class="cls-2" d="m427.49,204.56s-28.5-35.23-49.78-29.87c0,0,11.15-10.98,48.25,2.13"/>
    <path class="cls-2" d="m626.82,681.5s-19.91-28.6-39.32-27.06,23.77-9.82,48.65-.06c0,0-3.21-17.15-13.16-17.99-9.96-.84,25.57-.33,34.36,11.41"/>
    <path class="cls-2" d="m1073.37,685.03c-23.49-7.49-49.36,4.77-36.77,3.74,12.6-1.02,21.11,9.4,21.11,9.4,0,0-5.79-2.97-16.77,2.62,0,0,12.77,1.76,10.72,10.96"/>
    <path class="cls-2" d="m776.94,886.26l-16.85-17.18s20.43-8.17,30.64,8.59"/>
    <path class="cls-2" d="m665.88,896.22s-20.68-29.91-42.89-29.13c0,0,29.87-10.21,42.89,4.1"/>
    <path class="cls-2" d="m490.25,639.76s37.82-17.37,51.58-39c0,0-3.09,21.86-13.82,29.99,0,0,15.74-5.24,17.28-8.98,0,0,1.36,9.7-5.28,13.45"/>
    <path class="cls-2" d="m300.01,247.46s-12.77-25.53-32.68-20.43c0,0,16.85-14.12,49.27-.68"/>
    <path class="cls-2" d="m843.33,732.05s-19.19-24.42-43.55-23.7c-24.36.72,49.68-10.17,80.83,11.11,0,0-14.3-19.88-23.49-22.28,0,0,24,.66,36,9.6"/>
    <path class="cls-2" d="m481.31,994.52s-6.7-40.28-19.85-40.78c0,0,19.15-7.58,26.63,13.02"/>
    <path class="cls-2" d="m559.92,777.5s-29.62-20.94-53.11-18.38c0,0,16.85-15.01,34.21-9.8,0,0-6.64-12.66-12.77-12.66s18.89-11.74,29.11,3.57"/>
    <path class="cls-2" d="m896.06,966.77s-13.01-21.45-28.53-21.49c0,0,22.01-7.97,41.16,7.1,0,0-6.1-18.99-12.63-20.34,0,0,26.23.25,27.09,13.24"/>
    <path class="cls-2" d="m750.13,1060.14s-11.49-26.04-24.51-26.81c0,0,30.64-2.97,34.47,7.71,0,0-8.43-18.14-14.55-21.35-6.13-3.21,21.45,4.6,26.04,20.23"/>
    <path class="cls-2" d="m528.09,1053.24s14.64-16,10.21-25.19c0,0,9.5,6.81.83,26.89,0,0,9.72,1.36,13.12-11.23,0,0-3.74,17.36-12.09,19.74"/>
    <path class="cls-2" d="m573.96,371.54s19.91-22.98,17.62-42.13c0,0,14.43,10.72,9.52,36.77"/>
    <path class="cls-2" d="m292.76,612.56s21.29-19.91,18.48-36.51c0,0,9.19,11.74,8.17,26.55,0,0,7.98-11.15,9.7-18.78,0,0,.26,14.69-1.02,21.84"/>
    <path class="cls-2" d="m404.69,453.5s15.12-6.13,21.73-29.11c0,0,9.88,15.32,1.35,26.04"/>
    <path class="cls-2" d="m1115.98,892.41s-22.95-.01-45.42-28.61c0,0,17.25,8.54,23.69,5.29,0,0-23.18-16.52-23.69-20.1,0,0,26.55,12.58,31.15,11.65"/>
  </g>
  <path class="cls-2" d="m1212.67,850.51s41.41-4.32,49.44.28c0,0,2.42-10.06-.91-12.95,0,0-10.3-8.27-28.43-1.71,0,0-12.83,5.95-20.11,14.38Z"/>
  <path class="cls-2" d="m1299.11,847.3s17.42-3.24,18.56-.85c1.14,2.38.85-13.44.85-13.44,0,0-16.21,2.16-18.51,2.93l-.9,11.36Z"/>
</svg>