<?xml version="1.0" encoding="UTF-8"?>
<svg id="_6" data-name="6" xmlns="http://www.w3.org/2000/svg" viewBox="0 0 1600 1600">
  <defs>
    <style>
      .cls-1 {
        fill: #fff;
      }

      .cls-2, .cls-3 {
        stroke-miterlimit: 10;
      }

      .cls-2, .cls-3, .cls-4 {
        stroke: #000;
        stroke-width: 2px;
      }

      .cls-2, .cls-5 {
        fill: #737373;
      }

      .cls-3, .cls-4 {
        fill: none;
      }

      .cls-6 {
        fill: #2d2d30;
      }

      .cls-7 {
        fill: #d4d4d6;
      }

      .cls-4 {
        stroke-linecap: round;
        stroke-linejoin: round;
      }
    </style>
  </defs>
  <g>
    <g>
      <g>
        <path class="cls-7" d="m975.16,810.34c-12.09-13.62-26.63-49.52-26.63-49.52,9.62-.44,18.69-4.91,26.9-11.41,0,0,53.76,48.82,123.54,15.12,69.79-33.7,148,36.1,148,36.1,0,0,36.14,23.59,47.24,23.98l8-1.07s26.57-38.3,36.29-38.7c.67,2.27,1.32,4.56,1.95,6.88,0,0,.01,2.49-.44,6.3h-.68c-1.8.82-30.83,14.48-39.74,37.35l.24.8c-.4.13-.76.26-1.09.4l-1.07,21.19-.63,12.34-15.16.91c-1.32-29.75-6.09-33.82-8.31-34.06,5.37-1.23,10.63-4.02,15.17-9.23,0,0-37.15-11.37-51.19-18.39,0,0-5.29-.08-12.58,1.73-40.93-35.03-89.46-39.17-89.46-39.17-16.68-3.75-53.79,21.44-53.79,21.44-29.29,16.16-62.91,4.9-63.65,4.65.45.96,29.29,62.1,31.82,86.42,0,0,51.84,33.19,71.62,69.44-30.59-5.97-57.28-20.86-79.85-39.19-57.21-46.47-87.95-115.04-88.61-116.53,2.22,4.35,21.5,11.99,22.11,12.22Z"/>
        <path class="cls-6" d="m1339.33,798.01h.68c-1.2,9.95-5.6,28.84-21.86,35.49,0,0-.54.03-1.46.1-3.46.26-12.2,1.05-16.86,2.57l-.24-.8c8.91-22.87,37.94-36.53,39.74-37.36Z"/>
        <path class="cls-6" d="m1333.3,896.14s2.7,25.87-6.02,36.89l-.75-.89s-21.64-23.3-20.23-28.28c0,0,.98-12.01,12.92-11.08,4.1.45,8.77,1.5,14.08,3.36Z"/>
        <path class="cls-6" d="m1313.69,892.52c1.71-.04,3.56.04,5.53.26-11.94-.93-12.92,11.08-12.92,11.08-1.41,4.98,20.23,28.28,20.23,28.28l.75.89c-.55.71-1.16,1.35-1.81,1.92-10.9,9.53-21.47,4.85-21.47,4.85,0,0,.11-.5.2-1.32.38-3.57.46-13.35-9.71-15.53,0,0-12-9.7-2.04-19.66,0,0,5.03-10.45,21.24-10.77Z"/>
        <path class="cls-5" d="m1295.33,695.66c-12.06-16.9-24.9-31.06-37.37-42.79,6-4.33,38.15-26.91,57.63-27.72,5.36-.23,9.64,4.43,9.09,9.76-2.02,19.56-8.51,71.44-20.73,73.54-2.82-4.43-5.7-8.69-8.62-12.79Z"/>
        <path class="cls-5" d="m1068.64,630.84c-4-16.75-5.92-36.65,4.23-45.17,0,0,19.8-18.76,35.27-26.27,5.86-2.84,12.83-1.96,17.78,2.27,10.63,9.08,32.25,29,47.6,52.74l2.58-8.91s12.17,2.9,18.64,11.07l-6.98-11.75s33.43,13.43,70.2,48.05c12.47,11.73,25.31,25.89,37.37,42.79,2.92,4.1,5.8,8.36,8.62,12.79,13.63,21.43,25.78,46.73,34.55,76.39-9.72.4-36.29,38.7-36.29,38.7l-8,1.07c-11.1-.39-47.24-23.98-47.24-23.98,0,0-78.21-69.8-148-36.1-69.78,33.7-123.54-15.12-123.54-15.12,16.49-13.04,29.55-34.28,36.67-47.55,3.84-7.17,5.96-12.02,5.96-12.02,7.75-25.02,50.58-59,50.58-59Z"/>
        <path class="cls-1" d="m1316.69,833.6s.13,2.82-.17,7.03c-.57-1.29-1.42-2.21-2.53-2.63-3.86-1.48-9.44,3.71-12.45,11.59-1.1,2.9-1.71,5.75-1.84,8.27l-2.03-.1,1.07-21.19c.33-.14.69-.27,1.09-.4,4.66-1.52,13.4-2.31,16.86-2.57Z"/>
        <path d="m1316.52,840.63c1.43,3.21,1.17,8.69-.98,14.31-1.15,3.02-2.69,5.64-4.35,7.65,3.64-7.44,4.9-16.06,5.33-21.96Z"/>
        <path d="m1313.99,838c1.11.42,1.96,1.34,2.53,2.63-.43,5.9-1.69,14.52-5.33,21.96-2.69,3.23-5.72,4.86-8.1,3.95-2.45-.94-3.63-4.32-3.39-8.68.13-2.52.74-5.37,1.84-8.27,3.01-7.88,8.59-13.07,12.45-11.59Z"/>
        <path class="cls-1" d="m1303.09,866.54c2.38.91,5.41-.72,8.1-3.95-2.42,4.94-5.88,9.36-10.83,12.1l-.73.37c-1.63-2.91-2.59-4.96-2.59-4.96l.63-12.34,2.03.1c-.24,4.36.94,7.74,3.39,8.68Z"/>
        <path class="cls-7" d="m1281.88,871.01l15.16-.91s.96,2.05,2.59,4.96c3.04,5.41,8.37,13.79,14.06,17.46-16.21.32-21.24,10.77-21.24,10.77-9.96,9.96,2.04,19.66,2.04,19.66,10.17,2.18,10.09,11.96,9.71,15.53-5.29,7.94-20.27,11.45-20.27,11.45-.22.06-.45.12-.67.18-7.06,1.94-13.48,3.31-19.33,4.19-63.46,9.57-58.63-38.41-58.63-38.41,0,0,18.43-36.43,71.85-44.6l4.73-.28Z"/>
        <path class="cls-5" d="m1281.88,871.01l-4.73.28c-53.42,8.17-71.85,44.6-71.85,44.6,0,0-4.83,47.98,58.63,38.41-29.87,28.53-142.42-.46-142.42-.46-19.78-36.25-71.62-69.44-71.62-69.44-2.53-24.32-31.37-85.46-31.82-86.42.74.25,34.36,11.51,63.65-4.65,0,0,37.11-25.19,53.79-21.44,0,0,48.53,4.14,89.46,39.17-8.65,2.14-20.12,6.94-28.91,17.68,0,0,22.21-10.09,41.75,0,0,0,6,3.95,14.35,6.62-28.83-4.67-48.82,25.93-48.82,25.93,0,0,8.67,20.26,45.7,12.38,5.28-1.12,8.34-8.08,10.1-15.53.19-.43.37-.87.54-1.32,1.8-4.7,2.27-9.3,1.54-12.56.29-3.48.33-5.82.33-5.82l.12-.97c3.49.41,7.13.4,10.74-.28.38-.06.77-.14,1.15-.24h0c2.22.24,6.99,4.31,8.31,34.06Z"/>
        <path class="cls-6" d="m1252.16,835.36c-8.35-2.67-14.35-6.62-14.35-6.62-19.54-10.09-41.75,0-41.75,0,8.79-10.74,20.26-15.54,28.91-17.68,7.29-1.81,12.58-1.73,12.58-1.73,14.04,7.02,51.19,18.39,51.19,18.39-4.54,5.21-9.8,8-15.17,9.23h0c-.71-.07-1.15.24-1.15.24-3.61.68-7.25.69-10.74.28-3.36-.39-6.58-1.17-9.51-2.11Z"/>
        <path class="cls-1" d="m1261.67,837.47l-.12.97s-.04,2.34-.33,5.82c-.49-2.2-1.53-3.79-3.09-4.38-3.86-1.48-9.43,3.71-12.44,11.6-3.02,7.88-2.32,15.46,1.54,16.94,3.64,1.4,8.81-3.15,11.91-10.28-1.76,7.45-4.82,14.41-10.1,15.53-37.03,7.88-45.7-12.38-45.7-12.38,0,0,19.99-30.6,48.82-25.93,2.93.94,6.15,1.72,9.51,2.11Z"/>
        <path d="m1261.22,844.26c.73,3.26.26,7.86-1.54,12.56-.17.45-.35.89-.54,1.32,1.18-4.94,1.78-10.09,2.08-13.88Z"/>
        <path d="m1261.22,844.26c-.3,3.79-.9,8.94-2.08,13.88-3.1,7.13-8.27,11.68-11.91,10.28-3.86-1.48-4.56-9.06-1.54-16.94,3.01-7.89,8.58-13.08,12.44-11.6,1.56.59,2.6,2.18,3.09,4.38Z"/>
        <path class="cls-6" d="m1243.43,1193.04c-7.85.53-17.31.61-27.25.43-33.51-.61-72.33-4.27-72.33-4.27-26.84-15.72-63.91-41.69-97.79-66.45h0s-4.86-33.66,14.03-16.81c0,0-7.15-33.19,20.43-16.85,0,0-.51-33.19,19.4-11.24,0,0,3.68-19.07,15.37-4.94,27.73,60.29,73.48,81.28,73.48,81.28,72.77,12.26,58.31,38.56,58.31,38.56-1.18.11-2.4.21-3.66.29Z"/>
        <path class="cls-5" d="m715.36,905.56l-1.98-.3s-65.16,47.19-139.15,80.74c-37.32,16.93-76.88,30.39-111.45,32.58-.48.03-.95.09-1.43.19-3.06.63-14.67,3.54-28.81,13.57h0c13.29-30.2-8.18-23.93-8.18-23.93,5.1-28.09-18.39-18.9-18.39-18.9,5.62-21.44-15.17-14.3-15.17-14.3.09-7.37-.14-11.74-.14-11.74,41.87-16,55.4-50.64,55.4-50.64-7.41-65.92,5.59-120.16,27.98-164.01,20.32-39.82,48.38-71.09,75.94-94.79,48.79-41.94,96-60.19,96-60.19,48-17.36,126.64,18.93,126.64,18.93,68.93,62.85,239.48,89.09,239.48,89.09-7.12,13.27-20.18,34.51-36.67,47.55-8.21,6.5-17.28,10.97-26.9,11.41,0,0,14.54,35.9,26.63,49.52-.61-.23-19.89-7.87-22.11-12.22.66,1.49,31.4,70.06,88.61,116.53,9.53,8.15,61.85,125.76,61.85,125.76,3.28,11.92,7.3,22.73,11.79,32.5-11.69-14.13-15.37,4.94-15.37,4.94-19.91-21.95-19.4,11.24-19.4,11.24-27.58-16.34-20.43,16.85-20.43,16.85-18.89-16.85-14.03,16.8-14.03,16.8h0c-46.39-33.91-86.81-65.57-86.81-65.57-12.57-2.76-24.72-5.87-36.43-9.23-45.19-12.97-83.81-29.78-114.27-45.59-28.36-14.73-49.65-28.6-62.6-37.7-9.52-6.69-14.53-10.81-14.53-10.81-20.76,5.01-34.38-4.67-34.38-4.67,9.68-6.98,15.28-23.41,18.32-43.61Z"/>
        <path class="cls-6" d="m925.12,1189.2c-3.61,3.59-11.83,4.36-11.83,4.36-1.97.41-3.93.76-5.87,1.04-38.27,5.71-72.25-10.8-72.25-10.8,3.45-15.85,1.31-42.52-2.96-70.6,0,0,8.15-24.45,14.62-5.73,0,0,16.34-13.24,16.68-.66,0,0,12.6-14.36,14.29,0,0,0,9.79-15.05,7.28,4.04-1.37,2.07-2.17,3.26-2.17,3.26-20.42,37.27,6.13,56,6.13,56,32.68.68,37.45,13.44,37.45,13.44.77,2.4.05,4.24-1.37,5.65Z"/>
        <path class="cls-5" d="m922.82,1047.94c-1.67,8.05-29.67,50.72-37.74,62.91,2.51-19.09-7.28-4.04-7.28-4.04-1.69-14.36-14.29,0-14.29,0-.34-12.58-16.68.66-16.68.66-6.47-18.72-14.62,5.73-14.62,5.73-8.05-52.91-23.66-110.85-23.66-110.85,30.46,15.81,69.08,32.62,114.27,45.59Z"/>
        <path class="cls-5" d="m731.42,953.84s5.01,4.12,14.53,10.81c-12.88,41.52-99.46,126.99-99.46,126.99-.71,1.06-1.28,2.2-1.74,3.4-10.42-23.97-22.26-3.23-22.26-3.23-10.56-18.38-22.47,4.43-22.47,4.43-10.56-17.71-15.41,6.91-15.41,6.91-15.19-14.53-26.98-24.79-26.98-24.79,2.05-32.17,16.6-92.36,16.6-92.36,73.99-33.55,139.15-80.74,139.15-80.74l1.98.3c-3.04,20.2-8.64,36.63-18.32,43.61,0,0,13.62,9.68,34.38,4.67Z"/>
        <path class="cls-6" d="m666.4,1157c62.3,3.58,50.55,23.49,50.55,23.49-4.59,1.53-67.91,0-67.91,0-7.83-20.65-40.39-54.35-64.43-77.34,0,0,4.85-24.62,15.41-6.91,0,0,11.91-22.81,22.47-4.43,0,0,11.84-20.74,22.26,3.23h0c-8.08,21.25,21.65,61.96,21.65,61.96Z"/>
        <path class="cls-5" d="m584.7,167.9s110.98,101.73-55.89,228.78c20.71-48.49-59.52-59.25-59.52-59.25,36.26-65.88-72.51-53.11-72.51-53.11,16.34-70.47-66.89-38.3-66.89-38.3-3.54-63.35-107.84,18.89-109.41,20.13,38.25-90.71,141.26-247.65,364.22-98.25Z"/>
        <path class="cls-5" d="m549.98,654.03c-27.56,23.7-55.62,54.97-75.94,94.79,0,0-92.79,8.92-171.67-23.29,0,0-3.37-52.87,44.12-39.08,0,0,1.63-36.62,60.6-24.51,3.74.76,7.95-43.66,50.65-12.26,0,0,.61-35.62,33.07-13.67.02.02.05.03.07.05,14.35,9.76,33.61,16.25,59.1,17.97Z"/>
        <path class="cls-6" d="m469.29,337.43s80.23,10.76,59.52,59.25c-6.96,5.3-14.41,10.65-22.37,16.03-2.77,1.87-5.42,3.88-7.95,6.02,18.48-46.87-72.09-49.13-72.09-49.13,45.96-52.6-59.23-46.47-59.23-46.47,23.49-74.04-64.85-33.19-64.85-33.19,2.53-55.32-92.86,11.42-94.02,12.24,1.31-6.51,3.14-12.93,5.48-19.19,1.96-5.26,4.19-10.9,6.69-16.83h.01c1.57-1.25,105.87-83.49,109.41-20.14,0,0,83.23-32.17,66.89,38.3,0,0,108.77-12.77,72.51,53.11Z"/>
        <path class="cls-5" d="m426.4,369.6s90.57,2.26,72.09,49.13c-13.07,11.01-22.93,25.41-28.37,41.74-1.67,5.01-3.37,10.46-5.03,16.25.62-58.74-43.54-14.7-43.54-14.7,0-72-66.91-13.81-66.91-13.81-2.58-57.47-74.03,5.39-74.03,5.39-15.22-74.57-69.58,17.16-70.31,18.39,4.42-31.49,6.07-73.69-2.62-122.82-2.76-15.62-2.52-31.56.61-46.99h.01c1.16-.82,96.55-67.56,94.02-12.24,0,0,88.34-40.85,64.85,33.19,0,0,105.19-6.13,59.23,46.47Z"/>
        <path class="cls-6" d="m468.46,612.77c5.55,8.89,12.87,16.78,22.35,23.24-32.46-21.95-33.07,13.67-33.07,13.67-42.7-31.4-46.91,13.02-50.65,12.26-58.97-12.11-60.6,24.51-60.6,24.51-47.49-13.79-44.12,39.08-44.12,39.08-14.04-5.73-27.64-12.76-40.19-21.39,0,0,2.35-90.46,57.5-52.16,0,0,4.59-81.96,73.53-17.62,0,0-3.06-62.04,46.72-12.25,0,0-10.35-36.28,28.52-9.34h.01Z"/>
        <path class="cls-6" d="m421.55,462.02s44.16-44.04,43.54,14.7c-2.72,9.51-5.3,19.93-7.34,30.81h-.01c-7.46-35.68-43.08-11.04-43.08-11.04-9.96-55.91-65.88-4.59-65.88-4.59-5.36-55.92-73.53,1.53-73.53,1.53-15.32-62.05-70.95,10.42-70.95,10.42,2.12-8.82,4.28-19.51,6-31.85h0c.73-1.24,55.09-92.97,70.31-18.4,0,0,71.45-62.86,74.03-5.39,0,0,66.91-58.19,66.91,13.81Z"/>
        <path class="cls-5" d="m457.74,507.53h.01c-6.69,35.48-7.7,75.81,10.7,105.24-38.87-26.94-28.52,9.34-28.52,9.34-49.78-49.79-46.72,12.25-46.72,12.25-68.94-64.34-73.53,17.62-73.53,17.62-55.15-38.3-57.5,52.16-57.5,52.16-45.88-31.48-77.85-84.11-66.59-171.65,0,0,4.29-10.24,8.71-28.64,0,0,55.63-72.47,70.95-10.42,0,0,68.17-57.45,73.53-1.53,0,0,55.92-51.32,65.88,4.59,0,0,35.62-24.64,43.08,11.04Z"/>
        <path class="cls-6" d="m378.15,1186.75c-1.34,2.87-4.35,2.42-4.35,2.42-52.08-8.68-32.17-70.98-32.17-70.98,43.63-37.52,48.84-113.78,49.17-142.98,0,0,20.79-7.14,15.17,14.3,0,0,23.49-9.19,18.39,18.9,0,0,21.47-6.27,8.18,23.92h0c-18.77,13.3-42.01,39.12-55.72,88.77-.32,1.16-.44,2.36-.38,3.56.21,3.82.91,13,3.13,22.75,0,0,0,.01.01.02,2.14,9.41,5.69,19.37,11.56,25.59,2.53,2.68,3.58,6.52,2.59,10.06-.07.24-.14.48-.23.72-1.38,3.75-5.27,6.59-15.35,2.95Z"/>
      </g>
      <g>
        <path class="cls-3" d="m1173.52,614.42c4.29,6.62,8.08,13.54,11.01,20.61"/>
        <path class="cls-3" d="m1077.3,657.84s-5.14-12.29-8.66-27c-4-16.75-5.92-36.65,4.23-45.17,0,0,19.8-18.76,35.27-26.27,5.86-2.84,12.83-1.96,17.78,2.27,10.63,9.08,32.25,29,47.6,52.74"/>
        <path class="cls-3" d="m1079.34,602.35s20.08-38.12,38.81,0c0,0-4.43,27.58,0,36.43,0,0,7.49,3.06,20.42,0"/>
        <path class="cls-3" d="m1173.52,614.42h0s2.58-8.92,2.58-8.92c0,0,12.17,2.9,18.64,11.07l-6.98-11.75s33.43,13.43,70.2,48.05c12.47,11.73,25.31,25.89,37.37,42.79,2.92,4.1,5.8,8.36,8.62,12.79,13.63,21.43,25.78,46.73,34.55,76.39.67,2.27,1.32,4.56,1.95,6.88,0,0,.01,2.49-.44,6.3-1.2,9.94-5.6,28.83-21.86,35.48,0,0-.54.03-1.46.1-3.46.26-12.2,1.05-16.86,2.57-.4.13-.76.26-1.09.4l-1.07,21.19-.63,12.34s.96,2.05,2.59,4.96c3.04,5.41,8.37,13.79,14.06,17.46.15.11.31.21.46.3"/>
        <path class="cls-3" d="m1339.42,797.97s-.03.01-.09.04c-1.8.83-30.83,14.49-39.74,37.36"/>
        <path class="cls-3" d="m1256.98,653.59s.34-.25.98-.72c6-4.33,38.15-26.91,57.63-27.72,5.36-.23,9.64,4.43,9.09,9.76-2.02,19.56-8.51,71.44-20.73,73.54"/>
        <path class="cls-3" d="m1320.27,636.48s-21.04,26.45-24.94,59.18"/>
        <path class="cls-3" d="m1311.19,862.59c-2.42,4.94-5.88,9.36-10.83,12.1"/>
        <path class="cls-3" d="m1316.69,833.6s.13,2.82-.17,7.03"/>
        <path class="cls-3" d="m1273.57,836.95c5.37-1.23,10.63-4.02,15.17-9.23,0,0-37.15-11.37-51.19-18.39,0,0-5.29-.08-12.58,1.73-8.65,2.14-20.12,6.94-28.91,17.68,0,0,22.21-10.09,41.75,0,0,0,6,3.95,14.35,6.62,2.93.94,6.15,1.72,9.51,2.11,3.49.41,7.13.4,10.74-.28.38-.06.77-.14,1.15-.24"/>
        <path class="cls-3" d="m1261.22,844.26c.29-3.48.33-5.82.33-5.82"/>
        <path class="cls-3" d="m1252.22,835.37s-.04,0-.06,0c-28.83-4.67-48.82,25.93-48.82,25.93,0,0,8.67,20.26,45.7,12.38,5.28-1.12,8.34-8.08,10.1-15.53"/>
        <path class="cls-3" d="m1286.32,783.4s10.87,20.3,9.01,40.14"/>
        <path class="cls-3" d="m1018.07,797.98c.45.96,29.29,62.1,31.82,86.42,0,0,51.84,33.19,71.62,69.44,0,0,112.55,28.99,142.42.46"/>
        <path class="cls-3" d="m1224.97,811.06c-40.93-35.03-89.46-39.17-89.46-39.17-16.68-3.75-53.79,21.44-53.79,21.44-29.29,16.16-62.91,4.9-63.65,4.65h0"/>
        <path class="cls-3" d="m1281.89,871.29c0-.09-.01-.19-.01-.28-1.32-29.75-6.09-33.82-8.31-34.06h0c-.71-.07-1.15.24-1.15.24"/>
        <path class="cls-3" d="m1297.04,870.1l-15.16.91-4.73.28c-53.42,8.17-71.85,44.6-71.85,44.6,0,0-4.83,47.98,58.63,38.41,5.85-.88,12.27-2.25,19.33-4.19.22-.06.45-.12.67-.18,0,0,14.98-3.51,20.27-11.45.18-.26.34-.53.5-.81"/>
        <path class="cls-3" d="m1304.2,938.48c.38-3.57.46-13.35-9.71-15.53,0,0-12-9.7-2.04-19.66,0,0,5.03-10.45,21.24-10.77,1.71-.04,3.56.04,5.53.26,4.1.45,8.77,1.5,14.08,3.36,0,0,2.7,25.87-6.02,36.89-.55.71-1.16,1.35-1.81,1.92-10.9,9.53-21.47,4.85-21.47,4.85,0,0,.11-.5.2-1.32Z"/>
        <path class="cls-3" d="m1326.53,932.14s-21.64-23.3-20.23-28.28c0,0,.98-12.01,12.92-11.08.54.04,1.1.11,1.69.21"/>
        <path class="cls-3" d="m1251.47,915.8s20.05,29.05,31.79,34.31"/>
        <path class="cls-3" d="m1247.09,916.56c.64,0,4.6-2.81,10.85,1.28"/>
        <path class="cls-3" d="m953.05,798.12c.66,1.49,31.4,70.06,88.61,116.53,22.57,18.33,49.26,33.22,79.85,39.19"/>
        <path class="cls-3" d="m975.17,810.35h-.01c-.61-.24-19.89-7.88-22.11-12.23,0,0-.01,0-.01-.02"/>
        <path class="cls-3" d="m1068.64,630.84s-42.83,33.98-50.58,59c0,0-2.12,4.85-5.96,12.02-7.12,13.27-20.18,34.51-36.67,47.55-8.21,6.5-17.28,10.97-26.9,11.41,0,0,14.54,35.9,26.63,49.52"/>
        <path class="cls-3" d="m1012.1,701.86s-170.55-26.24-239.48-89.09c0,0-78.64-36.29-126.64-18.93,0,0-47.21,18.25-96,60.19-27.56,23.7-55.62,54.97-75.94,94.79-22.39,43.85-35.39,98.09-27.98,164.01,0,0-13.53,34.64-55.4,50.64,0,0,.23,4.37.14,11.74-.33,29.2-5.54,105.46-49.17,142.98,0,0-19.91,62.3,32.17,70.98,0,0,3.01.45,4.35-2.42,1.51-3.26.85-10.82-8.94-28.22"/>
        <path class="cls-4" d="m975.43,749.41s53.76,48.82,123.54,15.12c69.79-33.7,148,36.1,148,36.1,0,0,36.14,23.59,47.24,23.98l8-1.07s26.57-38.3,36.29-38.7"/>
        <path class="cls-3" d="m379.58,1147.43c2.14,9.41,5.69,19.37,11.56,25.59,2.53,2.68,3.58,6.52,2.59,10.06-.07.24-.14.48-.23.72-1.38,3.75-5.27,6.59-15.35,2.95"/>
        <path class="cls-3" d="m713.38,905.26s-65.16,47.19-139.15,80.74c-37.32,16.93-76.88,30.39-111.45,32.58-.48.03-.95.09-1.43.19-3.06.63-14.67,3.54-28.81,13.57-18.77,13.29-42.01,39.11-55.72,88.76-.32,1.16-.44,2.36-.38,3.56.21,3.82.91,13,3.13,22.75"/>
        <path class="cls-3" d="m379.57,1147.41s0,.01.01.02c.69.87,28.17,36.04,13.92,36.37"/>
        <path class="cls-3" d="m713.38,771.51s10.07,80.34,1.98,134.05c-3.04,20.2-8.64,36.63-18.32,43.61,0,0,13.62,9.68,34.38,4.67,0,0,5.01,4.12,14.53,10.81,12.95,9.1,34.24,22.97,62.6,37.7,30.46,15.81,69.08,32.62,114.27,45.59,11.71,3.36,23.86,6.47,36.43,9.23,0,0,40.42,31.66,86.81,65.58,33.88,24.76,70.95,50.73,97.79,66.45,0,0,38.82,3.66,72.33,4.27,9.94.18,19.4.1,27.25-.43,1.26-.08,2.48-.18,3.66-.29,0,0,14.46-26.3-58.31-38.56,0,0-45.75-20.99-73.48-81.28-4.49-9.77-8.51-20.58-11.79-32.5,0,0-52.32-117.61-61.85-125.76"/>
        <path class="cls-3" d="m1179.08,1176.24s29.27-12.18,37.1,17.23"/>
        <path class="cls-3" d="m1213.12,1168.75s21.13-2.83,30.31,24.29"/>
        <path class="cls-3" d="m644.75,1095.04c.46-1.2,1.03-2.34,1.74-3.4,0,0,86.58-85.47,99.46-126.99"/>
        <path class="cls-3" d="m574.23,986s-14.55,60.19-16.6,92.36c0,0,11.79,10.26,26.98,24.79,24.04,22.99,56.6,56.69,64.43,77.34,0,0,63.32,1.53,67.91,0,0,0,11.75-19.91-50.55-23.49,0,0-29.73-40.71-21.65-61.95"/>
        <path class="cls-3" d="m808.55,1002.35s15.61,57.94,23.66,110.85c4.27,28.08,6.41,54.75,2.96,70.6,0,0,33.98,16.51,72.25,10.8,1.94-.28,3.9-.63,5.87-1.04,0,0,8.22-.77,11.83-4.36,1.42-1.41,2.14-3.25,1.37-5.65,0,0-4.77-12.76-37.45-13.44,0,0-26.55-18.73-6.13-56,0,0,.8-1.19,2.17-3.26,8.07-12.19,36.07-54.86,37.74-62.91"/>
        <path class="cls-3" d="m875.76,1176.41c.1,0,23.51.02,31.66,18.19.18.39.35.79.51,1.2"/>
        <path class="cls-3" d="m677.12,1164.15s27.58,4.29,30.13,16.7"/>
        <path class="cls-3" d="m907.93,1176.41s11.92,1.58,17.19,12.79"/>
        <path class="cls-3" d="m1046.07,1122.74s-4.86-33.65,14.03-16.8c0,0-7.15-33.19,20.43-16.85,0,0-.51-33.19,19.4-11.24,0,0,3.68-19.07,15.37-4.94"/>
        <path class="cls-3" d="m832.21,1113.2s8.15-24.45,14.62-5.73c0,0,16.34-13.24,16.68-.66,0,0,12.6-14.36,14.29,0,0,0,9.79-15.05,7.28,4.04"/>
        <path class="cls-3" d="m584.61,1103.15s4.85-24.62,15.41-6.91c0,0,11.91-22.81,22.47-4.43,0,0,11.84-20.74,22.26,3.23h0"/>
        <path class="cls-3" d="m390.8,975.21s20.79-7.14,15.17,14.3c0,0,23.49-9.19,18.39,18.9,0,0,21.47-6.27,8.18,23.92"/>
        <path class="cls-3" d="m490.88,636.06c14.35,9.76,33.61,16.25,59.1,17.97"/>
        <path class="cls-3" d="m468.46,612.77c5.55,8.89,12.87,16.78,22.35,23.24"/>
        <path class="cls-3" d="m220.48,266.15c38.25-90.71,141.26-247.65,364.22-98.25,0,0,110.98,101.73-55.89,228.78-6.96,5.3-14.41,10.65-22.37,16.03-2.77,1.87-5.42,3.88-7.95,6.02-13.07,11.01-22.93,25.41-28.37,41.74-1.67,5.01-3.37,10.46-5.03,16.25-2.72,9.51-5.3,19.93-7.34,30.81-6.69,35.48-7.7,75.81,10.7,105.24"/>
        <path class="cls-3" d="m208.3,302.18c1.31-6.51,3.14-12.93,5.48-19.19,1.96-5.26,4.19-10.9,6.69-16.83"/>
        <path class="cls-3" d="m210.3,471.99c4.42-31.49,6.07-73.69-2.62-122.82-2.76-15.62-2.52-31.56.61-46.99"/>
        <path class="cls-3" d="m474.04,748.82s-92.79,8.92-171.67-23.29c-14.04-5.73-27.64-12.76-40.19-21.39-45.88-31.48-77.85-84.11-66.59-171.65,0,0,4.29-10.24,8.71-28.64,2.12-8.82,4.28-19.51,6-31.85"/>
        <path class="cls-3" d="m220.46,266.17h.01s.01-.02.01-.02c1.57-1.24,105.87-83.48,109.41-20.13,0,0,83.23-32.17,66.89,38.3,0,0,108.77-12.77,72.51,53.11,0,0,80.23,10.76,59.52,59.25"/>
        <path class="cls-3" d="m208.29,302.18h.01c1.16-.82,96.55-67.56,94.02-12.24,0,0,88.34-40.85,64.85,33.19,0,0,105.19-6.13,59.23,46.47,0,0,90.57,2.26,72.09,49.13"/>
        <path class="cls-3" d="m210.3,472h0c.73-1.24,55.09-92.97,70.31-18.4,0,0,71.45-62.86,74.03-5.39,0,0,66.91-58.19,66.91,13.81,0,0,44.16-44.04,43.54,14.7v.04"/>
        <path class="cls-3" d="m204.3,503.85s55.63-72.47,70.95-10.42c0,0,68.17-57.45,73.53-1.53,0,0,55.92-51.32,65.88,4.59,0,0,35.62-24.64,43.08,11.04"/>
        <path class="cls-3" d="m262.18,704.14s2.35-90.46,57.5-52.16c0,0,4.59-81.96,73.53-17.62,0,0-3.06-62.04,46.72-12.25,0,0-10.35-36.28,28.52-9.34h.01"/>
        <path class="cls-3" d="m302.37,725.53s-3.37-52.87,44.12-39.08c0,0,1.63-36.62,60.6-24.51,3.74.76,7.95-43.66,50.65-12.26,0,0,.61-35.62,33.07-13.67.02.02.05.03.07.05"/>
      </g>
    </g>
    <path class="cls-7" d="m1079.36,600.84s.79-30.98,29.62-24.85c0,0,16.57,6.88,21.34,31.87,0,0-11.23,31.65,16.68,23.04l-9.12,8.1s-24.49,4.93-21.47-8.1c0,0,1.21-13.53,1.28-26.39.04-6.73-6.26-18.04-18.01-18.56,0,0-11.7-1.11-20.32,14.89Z"/>
    <path class="cls-4" d="m1079.36,602.41s20.09-38.13,38.81,0c0,0-4.43,27.57,0,36.43,0,0,7.49,3.06,20.43,0"/>
    <path class="cls-7" d="m1286.98,683.06s17.11-45.55,32.09-46.53c0,0-22.47,33.15-24.24,56.56l-7.85-10.03Z"/>
  </g>
  <g>
    <path class="cls-2" d="m658.06,595.62s-8.5-9.62-20.08-11.48c-.37-.06-.74-.11-1.11-.15-12.14-1.39,36.88-1.14,45.81,9.84"/>
    <path class="cls-2" d="m752.26,605.32s-7.62-19.36-15.79-19.85,24.6-4.96,41.41,31.32"/>
    <path class="cls-2" d="m627.53,681.66s-19.91-28.6-39.32-27.06,23.77-9.82,48.65-.06c0,0-3.21-17.15-13.16-17.99s25.57-.33,34.36,11.41"/>
    <path class="cls-2" d="m1074.09,685.2c-23.49-7.49-49.36,4.77-36.77,3.74,12.6-1.02,21.11,9.4,21.11,9.4,0,0-5.79-2.97-16.77,2.62,0,0,12.77,1.76,10.72,10.96"/>
    <path class="cls-2" d="m777.66,886.43l-16.85-17.18s20.43-8.17,30.64,8.59"/>
    <path class="cls-2" d="m666.6,896.39s-20.68-29.91-42.89-29.13c0,0,29.87-10.21,42.89,4.1"/>
    <path class="cls-2" d="m844.04,732.22s-19.19-24.42-43.55-23.7c-24.36.72,49.68-10.17,80.83,11.11,0,0-14.3-19.88-23.49-22.28,0,0,24,.66,36,9.6"/>
    <path class="cls-2" d="m560.64,777.66s-29.62-20.94-53.11-18.38c0,0,16.85-15.01,34.21-9.8,0,0-6.64-12.66-12.77-12.66s18.89-11.74,29.11,3.57"/>
    <path class="cls-2" d="m896.78,966.93s-13.01-21.45-28.53-21.49c0,0,22.01-7.97,41.16,7.1,0,0-6.1-18.99-12.63-20.34,0,0,26.23.25,27.09,13.24"/>
    <path class="cls-2" d="m1116.7,892.57s-22.95-.01-45.42-28.61c0,0,17.25,8.54,23.69,5.29,0,0-23.18-16.52-23.69-20.1,0,0,26.55,12.58,31.15,11.65"/>
    <path class="cls-2" d="m606.83,303.05s16.68-6.13,23.83-15.66c0,0-18.35,34.29-35.39,41.99"/>
    <path class="cls-2" d="m558.32,154.45s.6-21.7-13.19-28.34c0,0,18.81,3.32,29.89,23.13,0,0,3.52-5.75,1.67-14.36,0,0,13.58,22.59,15.66,49.63"/>
    <path class="cls-2" d="m518.06,268.02s33.45-18.08,30.04-38.85c0,0,9.77,18.72,3.65,38.85,0,0,14.8-1.31,16.98-16.63,0,0,5.75,15.57-5.31,29.19"/>
    <path class="cls-2" d="m211.81,360.79s-22.79-34.98-18.48-52.41c0,0,4.27,16.52,12.46,21,0,0-5.98-11.99-5.34-16.59,0,0,2.43,6.64,10.47,8.04"/>
    <path class="cls-2" d="m243.26,628.87s-20.09-7.88-22.13-39.36c0,0,11.23,18.22,19.74,16.52,0,0-10.21-10.55-8.68-20.09,0,0,6.64,13.62,14.47,14.47"/>
    <path class="cls-2" d="m368.19,585.94s-17.87-9.02-20.43-27.91c0,0,16.6,17.62,26.3,17.62"/>
    <path class="cls-2" d="m275.94,394.28s-22.47-28.96-15.32-50.91c0,0,12.6,28.78,21.45,29.46,0,0-6.13-7.49-3.4-13.96,0,0,9.87,11.91,15.32,12.26"/>
    <path class="cls-2" d="m433.55,721.43s-30.49,5.62-36.95-8.43c0,0,9.88-.51,15.25-4.85,0,0-10.98-5.11-12-8.17,0,0,14.37,2.04,17.91-2.04"/>
    <path class="cls-2" d="m329.76,128.99s-5.82-.58-16.37-13.86c0,0,13.96,5.45,23.83,2.38,0,0-6.13-6.81-7.83-8.17s22.81,8.41,44.94,9.82"/>
    <path class="cls-2" d="m553.72,931.13s-35.4,9.87-51.74,3.06c0,0,18.04-4.09,25.87-10.89,0,0-11.57,3.4-22.47-2.04,0,0,22.68-1.02,28.7-10.21"/>
    <path class="cls-2" d="m493.3,871.56c-16.34,12.26-34.21,2.55-34.21,2.55,0,0,15.83-5.62,17.11-13.28"/>
    <path class="cls-2" d="m1062.41,992.22s-27.37-13.91-37.08-29.39c0,0-6.26,11.48,17.4,31.64,0,0-15.56,1-23.82-10.66,0,0-2.43,14.24,26.73,23.62"/>
    <path class="cls-2" d="m568.11,1019.02s-13.02,35.48-19.49,40.8c0,0,6.61,4.56,16.55-1.74"/>
    <path class="cls-2" d="m698.4,1002.35s-5.79,17.29-17.36,23.42c0,0,15.66-.23,21.45-6.75"/>
    <path class="cls-2" d="m557.64,989.35s-11.06,17.77-29.79,24.72c0,0,6.47-10.08,4.09-16.89"/>
  </g>
  <path class="cls-2" d="m1203.62,861.21s22.67-35.86,57.7-23.91c0,0,4.77,24.73-8.52,35.62,0,0-35.02,11.81-49.18-11.71Z"/>
  <path class="cls-2" d="m1299.02,836.49s14.96-6.27,17.98-1.69c3.02,4.59.29,32.15-14.86,39.81,0,0-3.74-1.08-4.43-5.51l1.31-32.62Z"/>
</svg>