<?xml version="1.0" encoding="UTF-8"?>
<svg id="_4" data-name="4" xmlns="http://www.w3.org/2000/svg" viewBox="0 0 1600 1600">
  <defs>
    <style>
      .cls-1 {
        fill: #fff;
      }

      .cls-2 {
        stroke-width: 1.67px;
      }

      .cls-2, .cls-3, .cls-4, .cls-5 {
        stroke-miterlimit: 10;
      }

      .cls-2, .cls-3, .cls-4, .cls-6 {
        stroke: #000;
      }

      .cls-2, .cls-3, .cls-7 {
        fill: #737373;
      }

      .cls-3, .cls-4, .cls-5, .cls-6 {
        stroke-width: 2px;
      }

      .cls-4, .cls-5, .cls-6 {
        fill: none;
      }

      .cls-8 {
        fill: #2d2d30;
      }

      .cls-9 {
        fill: #d4d4d6;
      }

      .cls-5 {
        stroke: #d4d4d6;
      }

      .cls-6 {
        stroke-linecap: round;
        stroke-linejoin: round;
      }
    </style>
  </defs>
  <g>
    <g>
      <g>
        <path class="cls-9" d="m1338.78,797.58c-1.8.83-30.83,14.49-39.74,37.37l.24.79c-.4.13-.76.26-1.09.4l-1.7,33.53-15.16.91c-1.32-29.75-6.09-33.82-8.31-34.06,5.37-1.23,10.63-4.02,15.17-9.23,0,0-37.15-11.36-51.19-18.39,0,0-5.29-.08-12.59,1.73-40.93-35.03-89.45-39.17-89.45-39.17-16.68-3.75-53.79,21.44-53.79,21.44-29.28,16.17-62.91,4.9-63.65,4.65.45.96,29.29,62.1,31.82,86.42,0,0,51.84,33.19,71.62,69.45-21.79-4.26-41.6-13.04-59.35-24.37-6.22-3.96-12.18-8.24-17.89-12.75-58.88-46.46-90.55-117.1-91.22-118.61,2.22,4.36,21.5,12,22.11,12.23-12.09-13.63-26.63-49.53-26.63-49.53,9.62-.44,18.69-4.9,26.9-11.41,0,0,53.76,48.82,123.54,15.12,69.79-33.7,148,36.11,148,36.11,0,0,36.14,23.59,47.24,23.98l8-1.08s26.57-38.29,36.29-38.69c.67,2.26,1.32,4.55,1.95,6.87,0,0,.01,2.49-.44,6.3h-.68Z"/>
        <path class="cls-8" d="m1338.78,797.58h.68c-1.2,9.95-5.6,28.85-21.86,35.5,0,0-.54.03-1.46.1-3.46.26-12.2,1.05-16.86,2.56l-.24-.79c8.91-22.88,37.94-36.54,39.74-37.37Z"/>
        <path class="cls-8" d="m1332.75,895.71s2.7,25.87-6.02,36.89l-.75-.89s-21.64-23.29-20.23-28.27c0,0,.99-12.11,13.06-11.07.12.01.24.02.37.04.32.04.64.08.97.13l.21.03c3.68.53,7.8,1.53,12.39,3.14Z"/>
        <path class="cls-8" d="m1303.64,938.07c.39-3.56.49-13.37-9.7-15.55,0,0-12-9.7-2.04-19.66,0,0,5.03-10.45,21.24-10.77,1.75-.04,3.64.04,5.67.28-12.07-1.04-13.06,11.07-13.06,11.07-1.41,4.98,20.23,28.27,20.23,28.27l.75.89c-.55.71-1.16,1.35-1.81,1.92-10.9,9.53-21.47,4.85-21.47,4.85,0,0,.1-.49.19-1.3Z"/>
        <path class="cls-7" d="m1294.78,695.24c-12.06-16.9-24.9-31.07-37.37-42.8,6-4.33,38.15-26.9,57.63-27.72,5.36-.22,9.64,4.43,9.09,9.77-2.02,19.56-8.51,71.44-20.73,73.53-2.82-4.42-5.69-8.68-8.62-12.78Z"/>
        <path class="cls-7" d="m1257.41,652.44c12.47,11.73,25.31,25.9,37.37,42.8,2.93,4.1,5.8,8.36,8.62,12.78,13.63,21.43,25.78,46.73,34.55,76.4-9.72.4-36.29,38.69-36.29,38.69l-8,1.08c-11.1-.39-47.24-23.98-47.24-23.98,0,0-78.21-69.81-148-36.11-69.78,33.7-123.54-15.12-123.54-15.12,16.5-13.04,29.55-34.28,36.67-47.55,3.85-7.16,5.96-12.01,5.96-12.01,7.75-25.03,50.58-59.01,50.58-59.01-4.01-16.75-5.91-36.64,4.23-45.16,0,0,19.81-18.77,35.27-26.27,5.86-2.85,12.83-1.96,17.78,2.27,10.63,9.08,32.25,29,47.6,52.74l2.59-8.91s12.17,2.89,18.63,11.06l-6.98-11.75s33.43,13.43,70.2,48.05Z"/>
        <path class="cls-1" d="m1316.14,833.18s.13,2.82-.17,7.03c-.57-1.29-1.42-2.22-2.53-2.64-3.86-1.48-9.44,3.72-12.45,11.6s-2.32,15.46,1.55,16.94c2.38.91,5.42-.72,8.11-3.95-2.42,4.94-5.88,9.36-10.84,12.11l-.73.36c-1.63-2.91-2.59-4.96-2.59-4.96l1.7-33.53c.33-.14.69-.27,1.09-.4,4.66-1.51,13.4-2.3,16.86-2.56Z"/>
        <path d="m1315.97,840.21c1.43,3.21,1.17,8.68-.98,14.3-1.15,3.02-2.68,5.64-4.34,7.65,3.63-7.43,4.9-16.05,5.32-21.95Z"/>
        <path d="m1313.44,837.57c1.11.42,1.96,1.35,2.53,2.64-.42,5.9-1.69,14.52-5.32,21.95-2.69,3.23-5.73,4.86-8.11,3.95-3.87-1.48-4.56-9.06-1.55-16.94s8.59-13.08,12.45-11.6Z"/>
        <path class="cls-9" d="m1281.33,870.58l15.16-.91s.96,2.05,2.59,4.96c3.04,5.41,8.37,13.79,14.06,17.46-16.21.32-21.24,10.77-21.24,10.77-9.96,9.96,2.04,19.66,2.04,19.66,10.19,2.18,10.09,11.99,9.7,15.55-5.29,7.93-20.25,11.43-20.25,11.43-.23.06-.45.13-.68.19h-.01c-7.05,1.94-13.48,3.31-19.32,4.18-63.46,9.57-58.63-38.41-58.63-38.41,0,0,18.43-36.43,71.85-44.6l4.73-.28Z"/>
        <path class="cls-7" d="m1281.33,870.58l-4.73.28c-53.42,8.17-71.85,44.6-71.85,44.6,0,0-4.83,47.98,58.63,38.41h0c-29.87,28.53-142.42-.45-142.42-.45-19.78-36.26-71.62-69.45-71.62-69.45-2.53-24.32-31.37-85.46-31.82-86.42.74.25,34.37,11.52,63.65-4.65,0,0,37.11-25.19,53.79-21.44,0,0,48.52,4.14,89.45,39.17-8.65,2.15-20.1,6.95-28.9,17.68,0,0,22.22-10.09,41.75,0,0,0,6.03,3.97,14.41,6.64-28.86-4.73-48.88,25.91-48.88,25.91,0,0,8.67,20.26,45.7,12.39,5.28-1.13,8.34-8.09,10.1-15.54.19-.43.37-.87.54-1.32,1.8-4.7,2.27-9.29,1.54-12.55.29-3.48.33-5.83.33-5.83l.12-.97c3.49.41,7.13.41,10.74-.28.38-.06.77-.14,1.15-.24h.01c2.22.24,6.99,4.31,8.31,34.06Z"/>
        <path class="cls-8" d="m1224.41,810.63c7.3-1.81,12.59-1.73,12.59-1.73,14.04,7.03,51.19,18.39,51.19,18.39-4.54,5.21-9.8,8-15.17,9.23h-.01c-.71-.07-1.15.24-1.15.24-3.61.69-7.25.69-10.74.28-3.33-.39-6.54-1.16-9.45-2.09-8.38-2.67-14.41-6.64-14.41-6.64-19.53-10.09-41.75,0-41.75,0,8.8-10.73,20.25-15.53,28.9-17.68Z"/>
        <path class="cls-1" d="m1261.12,837.04l-.12.97s-.04,2.35-.33,5.83c-.49-2.2-1.53-3.79-3.09-4.39-3.86-1.47-9.43,3.72-12.44,11.6-3.02,7.88-2.32,15.47,1.54,16.94,3.64,1.4,8.81-3.14,11.91-10.28-1.76,7.45-4.82,14.41-10.1,15.54-37.03,7.87-45.7-12.39-45.7-12.39,0,0,20.02-30.64,48.88-25.91,2.91.93,6.12,1.7,9.45,2.09Z"/>
        <path d="m1260.67,843.84c.73,3.26.26,7.85-1.54,12.55-.17.45-.35.89-.54,1.32,1.18-4.93,1.78-10.08,2.08-13.87Z"/>
        <path d="m1260.67,843.84c-.3,3.79-.9,8.94-2.08,13.87-3.1,7.14-8.27,11.68-11.91,10.28-3.86-1.47-4.56-9.06-1.54-16.94,3.01-7.88,8.58-13.07,12.44-11.6,1.56.6,2.6,2.19,3.09,4.39Z"/>
        <path class="cls-8" d="m1125.42,1173.53c-36.15-2.72-100.08-7.25-100.08-7.25-4.28-14.42-30.16-60.9-45.43-87.7,0,0,.15-38.26,21.26-15.45,0,0,0-33.36,18.38-4.09,0,0,8.85-33.02,20.09-1.36,0,0,9.6-29.7,17.39-2.76-1.5,23.91-2.75,41.57-2.75,41.57,0,9.53,19.32,30.72,19.32,30.72,68.17,15.32,81.19,49.02,75.83,48.26-1.43-.21-10.89-.95-24.01-1.94Z"/>
        <path class="cls-7" d="m1061.61,929.05c2.13,11.66-1.69,80.18-4.58,125.87-7.79-26.94-17.39,2.76-17.39,2.76-11.24-31.66-20.09,1.36-20.09,1.36-18.38-29.27-18.38,4.09-18.38,4.09-21.11-22.81-21.26,15.45-21.26,15.45-6.62-11.62-11.25-19.54-11.25-19.54-13.79-32.93-86.65-84-86.65-84,10.61-4.49,21.35-8.51,31.5-11.49,46.98-13.78,117.44-31.18,130.21-47.25,5.71,4.51,11.67,8.79,17.89,12.75Z"/>
        <path class="cls-7" d="m722.61,875.06c-8.59,28.75-23.97,48.35-35.43,59.78-8.39,8.38-14.69,12.37-14.69,12.37-36.26,10.22-121.53,65.88-121.53,65.88.85-22.81-14.13-9.2-14.13-9.2-.34-31.32-20.43-14.98-20.43-14.98-5.1-32.68-27.24-2.63-27.24-2.63-8.31-13.31-15.82-18.13-15.82-18.13,18.38-30.38,20.6-61.28,20.6-61.28-37.45-62.64-28.94-150.13-28.94-150.13.99-5,2.3-9.89,3.89-14.67,12.27-36.95,41.28-67.49,72.32-91.08,49.53-37.64,104.22-57.57,104.22-57.57,48-17.37,126.64,18.93,126.64,18.93,68.93,62.84,239.48,89.08,239.48,89.08-7.12,13.27-20.17,34.51-36.67,47.55-8.21,6.51-17.28,10.97-26.9,11.41,0,0,14.54,35.9,26.63,49.53-.61-.23-19.89-7.87-22.11-12.23.67,1.51,32.34,72.15,91.22,118.61-12.77,16.07-83.23,33.47-130.21,47.25-10.15,2.98-20.89,7-31.5,11.49-38.5,16.27-75.22,38.56-75.22,38.56,0,12.93-1.85,24.69-3.94,33.84,1.15-22.08-9.68.03-9.68.03.68-33.02-17.02-7.83-17.02-7.83-2.04-34.04-23.15-4.73-23.15-4.73-1.01-28.58-24.78-.64-25.31-.01.84-28.1-7.3-65.85-11.02-81.48h-.01c-1.08-4.56-1.79-7.23-1.79-7.23,5.02-10.4,30.17-31.11,44.71-42.53-20.14-1.68-36.97-28.6-36.97-28.6Z"/>
        <path class="cls-8" d="m706.14,1124.48c-19.87,36.15-23.44,19.33-23.44,19.33-13.79-60.77,42.39-89.87,42.39-89.87,1.6-5.38,2.39-11.89,2.6-19.04.53-.63,24.3-28.57,25.31.01,0,0,21.11-29.31,23.15,4.73,0,0,17.7-25.19,17.02,7.83,0,0,10.83-22.11,9.68-.03v.03c-2.69,11.79-5.76,19.23-5.76,19.23-16.16,9.28-37.41,33.38-49.57,48.14h0c-5.9,7.16-9.66,12.12-9.66,12.12-8.69,12.39-15.86,20.56-21.71,25.87h-.01c-16.8,15.24-22.71,6.81-22.71,6.81-2.48-5.45,11.84-33.46,12.71-35.16Z"/>
        <path class="cls-8" d="m747.52,1114.85c.03.72,1.21,36.11-31.37,37.98,5.85-5.31,13.02-13.48,21.71-25.87,0,0,3.76-4.96,9.66-12.11Z"/>
        <path class="cls-9" d="m695.82,941.22c-5.65-3.83-8.64-6.38-8.64-6.38,11.46-11.43,26.84-31.03,35.43-59.78,0,0,16.83,26.92,36.97,28.6-14.54,11.42-39.69,32.13-44.71,42.53,0,0,.71,2.67,1.79,7.23-8.85-4.47-15.87-8.83-20.84-12.2Z"/>
        <path class="cls-7" d="m695.82,941.22c1.15,28.91-35.08,56.55-35.08,56.55-21.78,10.19-47.69,41.66-61.72,60.3,4.15-20.38-17.93-14.45-17.93-14.45.51-16.44-16.35-5-16.35-5,3.25-14.39-14.57-5.8-17.85-4.12.9-8.25,2.32-18.5,4.07-21.41,0,0,85.27-55.66,121.53-65.88,0,0,6.3-3.99,14.69-12.37,0,0,2.99,2.55,8.64,6.38Z"/>
        <path class="cls-8" d="m641.98,1159.59c-37.68,6.81-86.39-4.04-86.39-4.04l-4.6-35.25.16-1.04c1.42.22,2.89.41,4.4.55,0,0,22.98,3.06,16.34-6.13,0,0-25.53-47.49-26.04-67.91,0,0,.38-5.07,1.04-11.27,3.28-1.68,21.1-10.27,17.85,4.12,0,0,16.86-11.44,16.35,5,0,0,22.08-5.93,17.93,14.45-6.36,8.44-10.28,14.25-10.28,14.25-7.14,54.13,21.45,56.17,21.45,56.17,44.43,4.6,46.98,27.06,46.98,27.06-4.73,1.75-9.84,3.07-15.19,4.04Z"/>
        <path class="cls-7" d="m355.13,178.19s350.04-52.08,267.32,174.64c0,0-8.43,32.94-86.56,36.77,0,0-10.73.49-26.49,4.93,38.61-41.78-13.34-47.83-13.34-47.83,43.66-66.64-64.94-60.51-64.94-60.51,23.73-69.94-55.64-38.77-56.83-38.31,42.1-67.39-68.66-54.49-68.66-54.49h0c14.96-6.53,31.41-11.68,49.5-15.2Z"/>
        <path class="cls-8" d="m546.89,1034.5c-.66,6.2-1.04,11.27-1.04,11.27.51,20.42,26.04,67.91,26.04,67.91,6.64,9.19-16.34,6.13-16.34,6.13-1.51-.14-2.98-.33-4.4-.55-54.7-8.52-42.58-74-42.58-74-3.87-28.27-11.95-47.04-19.41-58.98,0,0,22.14-30.05,27.24,2.63,0,0,20.09-16.34,20.43,14.98,0,0,14.98-13.61,14.13,9.2-1.75,2.91-3.17,13.16-4.07,21.41Z"/>
        <path class="cls-7" d="m431.12,612.38c21.03,26.92,55.05,46.26,110.09,38.61-31.04,23.59-60.05,54.13-72.32,91.08,0,0-93.3,52.37-180.48,10.2,0,0-44.86-60.89,33.78-48.63,0,0-48-56.68,39.83-47.49,0,0-19.26-59.24,35.05-25.53,0,0-11.86-51.87,34.05-18.24Z"/>
        <path class="cls-8" d="m374.29,247.88c1.19-.46,80.56-31.63,56.83,38.31,0,0,108.6-6.13,64.94,60.51,0,0,51.95,6.05,13.34,47.83-7.08,2-15.18,4.8-23.78,8.72h0c31.68-46.87-37.05-35.87-37.05-35.87,45.96-55.91-57.44-47.49-57.44-47.49,31.4-55.15-52.09-43.66-52.09-43.66,35.24-57.44-92.01-44.46-92.01-44.46,16.4-15.34,35.76-28.45,58.6-38.39h0s110.76-12.89,68.66,54.5Z"/>
        <path class="cls-7" d="m448.57,367.38s68.73-11,37.05,35.86h0c-20.4,9.28-43.6,24.84-62.74,50.87,18.1-37.04-33.15-14.36-34.04-13.97,19.13-47.47-50.56-10.71-50.56-10.71,20.46-49.84-57.29-11.49-57.29-11.49,21.49-61.74-115.07-6.9-116.44-6.35,9-62.51,31.33-131.99,82.48-179.82,0,0,127.25-12.98,92.01,44.46,0,0,83.49-11.49,52.09,43.66,0,0,103.4-8.42,57.44,47.49Z"/>
        <path class="cls-8" d="m388.84,440.14c.89-.39,52.14-23.07,34.04,13.97-9.82,13.36-16.53,28.45-19.99,44.25h-.01c1.79-40.73-49.48-13.02-49.48-13.02,3.63-35.23-45,0-45,0,9.96-54.38-62.04-2.3-62.04-2.3,3.78-56.74-85.1,13.56-87.27,15.28-.29-24.51.83-54.7,5.45-86.72h.01c1.37-.56,137.93-55.4,116.44,6.34,0,0,77.75-38.35,57.29,11.49,0,0,69.69-36.76,50.56,10.71Z"/>
        <path class="cls-8" d="m409.15,571.18c4.99,14.06,12.03,28.48,21.97,41.2-45.91-33.63-34.05,18.24-34.05,18.24-54.31-33.71-35.05,25.53-35.05,25.53-87.83-9.19-39.83,47.49-39.83,47.49-78.64-12.26-33.78,48.63-33.78,48.63-24.23-11.71-47.98-30.72-69.12-60.19,0,0,3.74-56.87,56.38-31.85,0,0-8.12-72.51,55.2-42.38,0,0,5.11-65.36,41.87-27.06,0,0,5.93-50.97,36.41-19.61Z"/>
        <path class="cls-7" d="m403.78,553.34c1.45,5.77,3.22,11.77,5.37,17.84-30.48-31.36-36.41,19.61-36.41,19.61-36.76-38.3-41.87,27.06-41.87,27.06-63.32-30.13-55.2,42.38-55.2,42.38-52.64-25.02-56.38,31.85-56.38,31.85-22.31-31.08-41.71-73.78-55.71-131.8-.51-2.11-.89-4.25-1.15-6.4-.92-7.76-3.02-28.09-3.34-55.56,2.17-1.72,91.05-72.02,87.27-15.28,0,0,72-52.08,62.04,2.3,0,0,48.63-35.23,45,0,0,0,51.27-27.71,49.48,13.02h.01c-3.95,17.91-3.71,36.74.89,54.98Z"/>
      </g>
      <g>
        <path class="cls-5" d="m722.61,875.06s16.83,26.92,36.97,28.6"/>
        <path class="cls-4" d="m1076.75,657.42s-5.14-12.29-8.66-27.01c-4.01-16.75-5.91-36.64,4.23-45.16,0,0,19.81-18.77,35.27-26.27,5.86-2.85,12.83-1.96,17.78,2.27,10.63,9.08,32.25,29,47.6,52.74,4.28,6.63,8.08,13.55,11.01,20.62"/>
        <path class="cls-4" d="m1078.79,601.93s20.08-38.13,38.81,0c0,0-4.43,27.57,0,36.42,0,0,7.49,3.07,20.42,0"/>
        <path class="cls-4" d="m1172.97,613.99l2.59-8.91s12.17,2.89,18.63,11.06l-6.98-11.75s33.43,13.43,70.2,48.05c12.47,11.73,25.31,25.9,37.37,42.8,2.93,4.1,5.8,8.36,8.62,12.78,13.63,21.43,25.78,46.73,34.55,76.4.67,2.26,1.32,4.55,1.95,6.87,0,0,.01,2.49-.44,6.3-1.2,9.94-5.6,28.84-21.86,35.49,0,0-.54.03-1.46.1-3.46.26-12.2,1.05-16.86,2.56-.4.13-.76.26-1.09.4l-1.7,33.53s.96,2.05,2.59,4.96c3.04,5.41,8.37,13.79,14.06,17.46.15.11.31.21.46.3"/>
        <path class="cls-4" d="m1338.87,797.54s-.03.01-.09.04c-1.8.83-30.83,14.49-39.74,37.37"/>
        <path class="cls-4" d="m1256.43,653.16s.34-.25.98-.72c6-4.33,38.15-26.9,57.63-27.72,5.36-.22,9.64,4.43,9.09,9.77-2.02,19.56-8.51,71.44-20.73,73.53"/>
        <path class="cls-4" d="m1319.73,636.05s-21.05,26.45-24.95,59.19"/>
        <path class="cls-4" d="m1310.65,862.16c-2.42,4.94-5.88,9.36-10.84,12.11"/>
        <path class="cls-4" d="m1316.14,833.18s.13,2.82-.17,7.03"/>
        <path class="cls-4" d="m1273.02,836.52c5.37-1.23,10.63-4.02,15.17-9.23,0,0-37.15-11.36-51.19-18.39,0,0-5.29-.08-12.59,1.73-8.65,2.15-20.1,6.95-28.9,17.68,0,0,22.22-10.09,41.75,0,0,0,6.03,3.97,14.41,6.64,2.91.93,6.12,1.7,9.45,2.09,3.49.41,7.13.41,10.74-.28.38-.06.77-.14,1.15-.24"/>
        <path class="cls-4" d="m1260.67,843.84c.29-3.48.33-5.83.33-5.83"/>
        <path class="cls-4" d="m1251.67,834.95c-28.86-4.73-48.88,25.91-48.88,25.91,0,0,8.67,20.26,45.7,12.39,5.28-1.13,8.34-8.09,10.1-15.54"/>
        <path class="cls-4" d="m1285.77,782.97s10.87,20.31,9.01,40.14"/>
        <path class="cls-4" d="m1017.52,797.55c.45.96,29.29,62.1,31.82,86.42,0,0,51.84,33.19,71.62,69.45,0,0,112.55,28.98,142.42.46"/>
        <path class="cls-4" d="m1224.42,810.64h-.01c-40.93-35.04-89.45-39.18-89.45-39.18-16.68-3.75-53.79,21.44-53.79,21.44-29.28,16.17-62.91,4.9-63.65,4.65h-.01"/>
        <path class="cls-4" d="m1281.34,870.86c0-.09-.01-.19-.01-.28-1.32-29.75-6.09-33.82-8.31-34.06h-.01c-.71-.07-1.15.24-1.15.24"/>
        <path class="cls-4" d="m1282.71,949.69c.23-.06.45-.13.68-.19,0,0,14.96-3.5,20.25-11.43.18-.27.35-.54.51-.82"/>
        <path class="cls-4" d="m1296.49,869.67l-15.16.91-4.73.28c-53.42,8.17-71.85,44.6-71.85,44.6,0,0-4.83,47.98,58.63,38.41,5.84-.87,12.27-2.24,19.32-4.18"/>
        <path class="cls-4" d="m1320.36,892.57c3.68.53,7.8,1.53,12.39,3.14,0,0,2.7,25.87-6.02,36.89-.55.71-1.16,1.35-1.81,1.92-10.9,9.53-21.47,4.85-21.47,4.85,0,0,.1-.49.19-1.3.39-3.56.49-13.37-9.7-15.55,0,0-12-9.7-2.04-19.66,0,0,5.03-10.45,21.24-10.77,1.75-.04,3.64.04,5.67.28"/>
        <path class="cls-4" d="m1319.18,892.41c.32.04.64.08.97.13"/>
        <path class="cls-4" d="m1325.98,931.71s-21.64-23.29-20.23-28.27c0,0,.99-12.11,13.06-11.07.12.01.24.02.37.04.31.03.64.07.97.13l.21.03"/>
        <path class="cls-4" d="m1250.92,915.37s20.04,29.04,31.78,34.32h.01"/>
        <path class="cls-4" d="m1246.54,916.13c.64,0,4.6-2.81,10.85,1.28"/>
        <path class="cls-4" d="m952.5,797.69c.67,1.51,32.34,72.15,91.22,118.61,5.71,4.51,11.67,8.79,17.89,12.75,17.75,11.33,37.56,20.11,59.35,24.37"/>
        <path class="cls-4" d="m974.62,809.93h-.01c-.61-.24-19.89-7.88-22.11-12.24,0-.01-.01-.01-.01-.02"/>
        <path class="cls-4" d="m1068.09,630.41s-42.83,33.98-50.58,59.01c0,0-2.11,4.85-5.96,12.01-7.12,13.27-20.17,34.51-36.67,47.55-8.21,6.51-17.28,10.97-26.9,11.41,0,0,14.54,35.9,26.63,49.53"/>
        <path class="cls-4" d="m1011.55,701.43s-170.55-26.24-239.48-89.08c0,0-78.64-36.3-126.64-18.93,0,0-54.69,19.93-104.22,57.57-31.04,23.59-60.05,54.13-72.32,91.08-1.59,4.78-2.9,9.67-3.89,14.67,0,0-8.51,87.49,28.94,150.13,0,0-2.22,30.9-20.6,61.28,0,0,7.51,4.82,15.82,18.13,7.46,11.94,15.54,30.71,19.41,58.98,0,0-12.12,65.48,42.58,74,1.42.22,2.89.41,4.4.55,0,0,22.98,3.06,16.34-6.13,0,0-25.53-47.49-26.04-67.91,0,0,.38-5.07,1.04-11.27.9-8.25,2.32-18.5,4.07-21.41,0,0,85.27-55.66,121.53-65.88,0,0,6.3-3.99,14.69-12.37,11.46-11.43,26.84-31.03,35.43-59.78,1.35-4.49,2.53-9.21,3.5-14.15"/>
        <path class="cls-6" d="m974.88,748.98s53.76,48.82,123.54,15.12c69.79-33.7,148,36.11,148,36.11,0,0,36.14,23.59,47.24,23.98l8-1.08s26.57-38.29,36.29-38.69"/>
        <path class="cls-4" d="m802.85,1047.44c2.09-9.15,3.94-20.91,3.94-33.84,0,0,36.72-22.29,75.22-38.56,10.61-4.49,21.35-8.51,31.5-11.49,46.98-13.78,117.44-31.18,130.21-47.25"/>
        <path class="cls-4" d="m747.52,1114.84c12.16-14.76,33.41-38.86,49.57-48.14,0,0,3.07-7.44,5.76-19.23"/>
        <path class="cls-4" d="m716.15,1152.83c5.85-5.31,13.02-13.48,21.71-25.87,0,0,3.76-4.96,9.66-12.11"/>
        <path class="cls-4" d="m706.14,1124.48c-.87,1.7-15.19,29.71-12.71,35.16,0,0,5.91,8.43,22.71-6.81"/>
        <path class="cls-4" d="m716.67,953.42c3.72,15.63,11.86,53.38,11.02,81.48-.21,7.15-1,13.66-2.6,19.04,0,0-56.18,29.1-42.39,89.87,0,0,3.57,16.82,23.44-19.33h.01l.04-.08"/>
        <path class="cls-4" d="m770.02,895.64s-4.26,3.18-10.44,8.02c-14.54,11.42-39.69,32.13-44.71,42.53,0,0,.71,2.67,1.79,7.23"/>
        <path class="cls-4" d="m747.52,1114.84h0c.03.73,1.21,36.12-31.37,37.99h-.01"/>
        <path class="cls-4" d="m882.01,975.04s72.86,51.07,86.65,84c0,0,4.63,7.92,11.25,19.54,15.27,26.8,41.15,73.28,45.43,87.7,0,0,63.93,4.53,100.08,7.25,13.12.99,22.58,1.73,24.01,1.94,5.36.76-7.66-32.94-75.83-48.26,0,0-19.32-21.19-19.32-30.72,0,0,1.25-17.66,2.75-41.57,2.89-45.69,6.71-114.21,4.58-125.87"/>
        <path class="cls-4" d="m1081,1145.34s15.3-.81,44.42,28.19"/>
        <path class="cls-4" d="m979.91,1078.58s.15-38.26,21.26-15.45c0,0,0-33.36,18.38-4.09,0,0,8.85-33.02,20.09-1.36,0,0,9.6-29.7,17.39-2.76"/>
        <path class="cls-4" d="m727.68,1034.91h.01c.53-.64,24.3-28.58,25.31,0,0,0,21.11-29.31,23.15,4.73,0,0,17.7-25.19,17.02,7.83,0,0,10.83-22.11,9.68-.03v.03"/>
        <path class="cls-4" d="m489.16,986.28s22.14-30.05,27.24,2.63c0,0,20.09-16.34,20.43,14.98,0,0,14.98-13.61,14.13,9.2"/>
        <path class="cls-4" d="m537.17,1084.32s19.4,18.64,18.38,35.49"/>
        <path class="cls-4" d="m687.18,934.84s2.99,2.55,8.64,6.38c4.97,3.37,11.99,7.73,20.84,12.2h.01"/>
        <path class="cls-4" d="m550.99,1120.3l4.6,35.25s48.71,10.85,86.39,4.04c5.35-.97,10.46-2.29,15.19-4.04,0,0-2.55-22.46-46.98-27.06,0,0-28.59-2.04-21.45-56.17,0,0,3.92-5.81,10.28-14.25,14.03-18.64,39.94-50.11,61.72-60.3,0,0,36.23-27.64,35.08-56.55,0-.08-.01-.16-.01-.24"/>
        <path class="cls-4" d="m546.38,1034.77s.18-.1.51-.27c3.28-1.68,21.1-10.27,17.85,4.12,0,0,16.86-11.44,16.35,5,0,0,22.08-5.93,17.93,14.45"/>
        <path class="cls-4" d="m605.94,1139.38s23.41-2.81,36.04,20.21"/>
        <path class="cls-4" d="m164.55,411.59c9-62.51,31.33-131.99,82.48-179.82,16.4-15.34,35.76-28.45,58.6-38.39,14.96-6.52,31.41-11.67,49.5-15.19,0,0,350.04-52.08,267.32,174.64,0,0-8.43,32.94-86.56,36.77,0,0-10.73.49-26.49,4.93-7.08,2-15.18,4.8-23.78,8.72-20.4,9.27-43.6,24.83-62.74,50.86-9.82,13.36-16.53,28.45-19.99,44.25-3.95,17.91-3.71,36.74.89,54.98,1.45,5.77,3.22,11.77,5.37,17.84,4.99,14.06,12.03,28.48,21.97,41.2,21.03,26.92,55.05,46.26,110.09,38.61h.02"/>
        <path class="cls-4" d="m468.89,742.07s-93.3,52.37-180.48,10.2c-24.23-11.71-47.98-30.72-69.12-60.19-22.31-31.08-41.71-73.78-55.71-131.8-.51-2.11-.89-4.25-1.15-6.4-.92-7.76-3.02-28.09-3.34-55.56-.29-24.51.83-54.7,5.45-86.72"/>
        <path class="cls-4" d="m288.41,752.27s-44.86-60.89,33.78-48.63c0,0-48-56.68,39.83-47.49,0,0-19.26-59.24,35.05-25.53,0,0-11.86-51.87,34.05-18.24"/>
        <path class="cls-4" d="m219.29,692.08s3.74-56.87,56.38-31.85c0,0-8.12-72.51,55.2-42.38,0,0,5.11-65.36,41.87-27.06,0,0,5.93-50.97,36.41-19.61"/>
        <path class="cls-4" d="m159.05,498.36l.04-.04c2.17-1.72,91.05-72.02,87.27-15.28,0,0,72-52.08,62.04,2.3,0,0,48.63-35.23,45,0,0,0,51.27-27.71,49.48,13.02"/>
        <path class="cls-4" d="m388.83,440.15h.01c.89-.4,52.14-23.08,34.04,13.96"/>
        <path class="cls-4" d="m164.54,411.6h.01c1.37-.56,137.93-55.4,116.44,6.34,0,0,77.75-38.35,57.29,11.49,0,0,69.69-36.76,50.56,10.71"/>
        <path class="cls-4" d="m374.28,247.89h.01c1.19-.47,80.56-31.64,56.83,38.3,0,0,108.6-6.13,64.94,60.51,0,0,51.95,6.05,13.34,47.83"/>
        <path class="cls-4" d="m305.63,193.39s110.76-12.9,68.66,54.49"/>
        <path class="cls-4" d="m247.03,231.77s127.25-12.98,92.01,44.46c0,0,83.49-11.49,52.09,43.66,0,0,103.4-8.42,57.44,47.49,0,0,68.73-11,37.05,35.86"/>
      </g>
    </g>
    <path class="cls-9" d="m1078.79,600.33s.79-30.98,29.62-24.85c0,0,16.57,6.88,21.34,31.87,0,0-11.23,31.65,16.68,23.04l-9.12,8.1s-24.49,4.93-21.47-8.1c0,0,1.21-13.53,1.28-26.39.04-6.73-6.26-18.04-18.01-18.56,0,0-11.7-1.11-20.32,14.89Z"/>
    <path class="cls-6" d="m1078.79,601.9s20.09-38.13,38.81,0c0,0-4.43,27.57,0,36.43,0,0,7.49,3.06,20.43,0"/>
    <path class="cls-9" d="m1286.42,682.55s17.11-45.55,32.09-46.53c0,0-22.47,33.15-24.24,56.56l-7.85-10.03Z"/>
  </g>
  <g>
    <path class="cls-3" d="m657.38,595.44s-8.5-9.62-20.08-11.48c-.37-.06-.74-.11-1.11-.15-12.14-1.39,36.88-1.14,45.81,9.84"/>
    <path class="cls-3" d="m751.58,605.14s-7.62-19.36-15.79-19.85,24.6-4.96,41.41,31.32"/>
    <path class="cls-3" d="m626.85,681.48s-19.91-28.6-39.32-27.06,23.77-9.82,48.65-.06c0,0-3.21-17.15-13.16-17.99-9.96-.84,25.57-.33,34.36,11.41"/>
    <path class="cls-3" d="m907.96,939.94s-19.91-28.6-39.32-27.06,23.77-9.82,48.65-.06c0,0-3.21-17.15-13.16-17.99-9.96-.84,25.57-.33,34.36,11.41"/>
    <path class="cls-3" d="m1073.41,685.01c-23.49-7.49-49.36,4.77-36.77,3.74,12.6-1.02,21.11,9.4,21.11,9.4,0,0-5.79-2.97-16.77,2.62,0,0,12.77,1.76,10.72,10.96"/>
    <path class="cls-3" d="m818.18,824.03l-16.85-17.18s20.43-8.17,30.64,8.59"/>
    <path class="cls-3" d="m683.85,855.84s-20.68-29.91-42.89-29.13c0,0,29.87-10.21,42.89,4.1"/>
    <path class="cls-3" d="m843.36,732.03s-19.19-24.42-43.55-23.7c-24.36.72,49.68-10.17,80.83,11.11,0,0-14.3-19.88-23.49-22.28,0,0,24,.66,36,9.6"/>
    <path class="cls-3" d="m542.27,791.27s-29.62-20.94-53.11-18.38c0,0,16.85-15.01,34.21-9.8,0,0-6.64-12.66-12.77-12.66s18.89-11.74,29.11,3.57"/>
    <path class="cls-3" d="m777.92,916.3s-13.01-21.45-28.53-21.49c0,0,22.01-7.97,41.16,7.1,0,0-6.1-18.99-12.63-20.34,0,0,26.23.25,27.09,13.24"/>
    <path class="cls-3" d="m1116.02,892.39s-22.95-.01-45.42-28.61c0,0,17.25,8.54,23.69,5.29,0,0-23.18-16.52-23.69-20.1,0,0,26.55,12.58,31.15,11.65"/>
    <path class="cls-3" d="m634,955.08s-35.4,9.87-51.74,3.06c0,0,18.04-4.09,25.87-10.89,0,0-11.57,3.4-22.47-2.04,0,0,22.68-1.02,28.7-10.21"/>
    <path class="cls-2" d="m961.66,998.31s-22.71-10.53-30.42-22.95c0,0-5.69,9.66,13.67,25.47,0,0-13.21,1.35-19.82-7.98,0,0-2.54,11.8,21.85,18.54"/>
    <path class="cls-3" d="m673.75,982.09s-5.94,20.07-22.14,31.75c0,0,3.55-11.43-.55-17.36"/>
    <path class="cls-2" d="m779.47,997.96s-5.34-18.44-14.16-22.6c0,0,15.43,2.65,20.54,18.02,0,0,0-12.21-2.55-16.04,0,0,9.45,10.98,10.21,18.38"/>
    <path class="cls-2" d="m542.27,862.45s-21.44-5.62-31.14,0c0,0,2.55-7.04,28.09-13.48"/>
    <path class="cls-2" d="m397.07,177s25.03-19.06,42.74-18.72c0,0-4.09,2.04-6.13,6.47,0,0,20.77-4.77,27.91-2.38,0,0-14.3,9.19-19.74,14.64"/>
    <path class="cls-2" d="m500.91,225.17s48.51-11.74,75.06,13.79c0,0-21.45-2.55-26.55,2.55,0,0,18.38,2.04,19.91,9.19,0,0-14.3-2.04-21.96,0"/>
    <path class="cls-2" d="m544.82,389s50.05-5.87,56.69,5.53h0s.51-8-5.28-9.96c0,0,6.91-3.15,12.11-2.13,0,0-.89-8.62-9.81-12.09"/>
    <path class="cls-2" d="m185.17,338.36s-8.51-27.23-2.04-53.11c0,0,2.04,13.96,5.79,16.68,0,0,1.02-12.26,5.79-16.68,0,0,2.72,9.53,6.81,16.34"/>
    <path class="cls-2" d="m256.83,362.53s-6.13-28.6,3.06-42.89c0,0,2.04,19.4,7.15,21.45,0,0,3.06-14.81,5.62-15.83,0,0,3.38,11.23,8.33,18.89"/>
    <path class="cls-2" d="m207.81,595.44s-20.94-11.8-22.47-40.9c0,0,9.19,17.41,19.4,20.45,0,0-8.68-16.37-5.11-20.45,0,0,9.7,14.81,14.3,15.83"/>
    <path class="cls-2" d="m394.19,506.79s10.28-12,20.46-14.55c0,0-5.86,12.77-5.5,21.45,0,0,4.95-5.62,10.06-5.62,0,0-16.19,32.17-22.14,40.34"/>
    <path class="cls-2" d="m422.28,732.74s-29.87,15.57-63.06,11.49c0,0,12-4.85,19.15-15.06,0,0-15.83-3.32-21.96-8.68,0,0,20.17,1.02,31.15-9.7"/>
    <path class="cls-2" d="m203.21,660.06s-9.53-10.55-24.17-14.64c0,0,7.49-5.45,20.6,0"/>
    <path class="cls-2" d="m1026.36,1004.57s-5.96-19.23-14.81-23.83c0,0,14.81-.6,25.02,12.64,0,0,2.95-6.52-2.1-12.64,0,0,11.63,3.06,13,11.92"/>
  </g>
</svg>