<?xml version="1.0" encoding="UTF-8"?>
<svg id="_1" data-name="1" xmlns="http://www.w3.org/2000/svg" viewBox="0 0 1600 1600">
  <defs>
    <style>
      .cls-1 {
        fill: #fff;
      }

      .cls-2, .cls-3 {
        stroke-miterlimit: 10;
      }

      .cls-2, .cls-3, .cls-4 {
        stroke: #000;
        stroke-width: 2px;
      }

      .cls-2, .cls-5 {
        fill: #737373;
      }

      .cls-3, .cls-4 {
        fill: none;
      }

      .cls-6 {
        fill: #2d2d30;
      }

      .cls-7 {
        fill: #d4d4d6;
      }

      .cls-4 {
        stroke-linecap: round;
        stroke-linejoin: round;
      }
    </style>
  </defs>
  <g>
    <g>
      <g>
        <path class="cls-7" d="m1339.58,797.59c-1.8.83-30.84,14.48-39.74,37.36l.24.79c-.4.13-.76.26-1.09.4l-1.07,21.2-.63,12.33-15.16.91c-1.33-29.92-6.15-33.86-8.35-34.05,5.39-1.22,10.65-4.02,15.21-9.24,0,0-37.15-11.36-51.19-18.38,0,0-5.3-.08-12.59,1.73-40.92-35.03-89.45-39.18-89.45-39.18-16.68-3.74-53.79,21.45-53.79,21.45-29.29,16.16-62.91,4.9-63.65,4.65.45.96,29.29,62.09,31.82,86.41,0,0,51.84,33.19,71.62,69.45-9.94-1.94-19.46-4.82-28.57-8.46-89.98-35.92-139.05-145.39-139.89-147.27,2.22,4.36,21.5,12,22.11,12.23-12.09-13.63-26.63-49.52-26.63-49.52,9.62-.44,18.69-4.9,26.9-11.41,0,0,53.76,48.82,123.54,15.11,69.79-33.7,148,36.11,148,36.11,0,0,36.14,23.59,47.24,23.98l8-1.08s26.57-38.29,36.28-38.69c.67,2.27,1.32,4.55,1.95,6.87,0,0,.01,2.49-.44,6.3h-.67Z"/>
        <path class="cls-6" d="m1339.58,797.59h.67c-1.2,9.94-5.6,28.84-21.85,35.49,0,0-.54.03-1.46.1-3.45.26-12.19,1.05-16.86,2.56l-.24-.79c8.9-22.88,37.94-36.53,39.74-37.36Z"/>
        <path class="cls-6" d="m1333.55,895.72s2.7,25.86-6.02,36.89l-.75-.89s-21.64-23.3-20.23-28.28c0,0,.99-12.1,13.06-11.07.12.01.25.03.37.04.32.04.64.08.97.13l.21.03c3.68.53,7.8,1.54,12.39,3.15Z"/>
        <path class="cls-6" d="m1304.45,938.06c.38-3.57.46-13.35-9.71-15.53,0,0-12-9.71-2.05-19.66,0,0,5.04-10.46,21.24-10.77,1.76-.05,3.65.04,5.68.27-12.07-1.03-13.06,11.07-13.06,11.07-1.41,4.98,20.23,28.28,20.23,28.28l.75.89c-.55.7-1.16,1.35-1.81,1.92-10.9,9.53-21.47,4.85-21.47,4.85,0,0,.11-.5.2-1.32Z"/>
        <path class="cls-5" d="m1315.84,624.72c5.36-.22,9.64,4.43,9.09,9.77-2.02,19.56-8.51,71.44-20.73,73.54-14.43-22.67-30.51-41.01-45.99-55.58,6-4.34,38.15-26.91,57.63-27.73Z"/>
        <path class="cls-5" d="m1173.77,613.99l2.58-8.91s12.17,2.89,18.64,11.06l-6.98-11.74s33.43,13.43,70.2,48.05c15.48,14.57,31.56,32.91,45.99,55.58,13.63,21.42,25.78,46.73,34.54,76.39-9.71.4-36.28,38.69-36.28,38.69l-8,1.08c-11.1-.39-47.24-23.98-47.24-23.98,0,0-78.21-69.81-148-36.11-69.78,33.71-123.54-15.11-123.54-15.11,16.5-13.05,29.55-34.29,36.67-47.56,3.85-7.16,5.96-12.01,5.96-12.01,7.75-25.02,50.58-59.01,50.58-59.01-4.01-16.75-5.91-36.64,4.23-45.16,0,0,19.8-18.76,35.27-26.27,5.86-2.84,12.83-1.96,17.78,2.27,10.63,9.08,32.25,29,47.6,52.74Z"/>
        <path class="cls-1" d="m1316.94,833.18s.13,2.82-.17,7.03c-.58-1.29-1.42-2.22-2.53-2.64-3.86-1.47-9.44,3.72-12.45,11.6-1.1,2.89-1.71,5.74-1.84,8.27l-2.03-.1,1.07-21.2c.33-.14.69-.27,1.09-.4,4.67-1.51,13.41-2.3,16.86-2.56Z"/>
        <path d="m1316.77,840.21c1.43,3.21,1.16,8.68-.99,14.31-1.15,3-2.67,5.62-4.33,7.62,3.63-7.43,4.89-16.04,5.32-21.93Z"/>
        <path d="m1314.24,837.57c1.11.42,1.95,1.35,2.53,2.64-.43,5.89-1.69,14.5-5.32,21.93-2.68,3.25-5.72,4.89-8.11,3.97-2.45-.93-3.63-4.32-3.39-8.67.13-2.53.74-5.38,1.84-8.27,3.01-7.88,8.59-13.07,12.45-11.6Z"/>
        <path class="cls-1" d="m1303.34,866.11c2.39.92,5.43-.72,8.11-3.97-2.41,4.95-5.88,9.38-10.84,12.13l-.73.36c-1.63-2.91-2.59-4.96-2.59-4.96l.63-12.33,2.03.1c-.24,4.35.94,7.74,3.39,8.67Z"/>
        <path class="cls-7" d="m1283.5,949.68c-7.06,1.95-13.48,3.31-19.32,4.19-63.46,9.57-58.63-38.41-58.63-38.41,0,0,18.43-36.42,71.85-44.59l4.73-.29,15.16-.91s.96,2.05,2.59,4.96c3.03,5.41,8.36,13.79,14.05,17.47-16.2.31-21.24,10.77-21.24,10.77-9.95,9.95,2.05,19.66,2.05,19.66,10.17,2.18,10.09,11.96,9.71,15.53-5.29,7.94-20.27,11.44-20.27,11.44-.23.06-.45.13-.68.18Z"/>
        <path class="cls-5" d="m1272.68,836.76c.37-.06.73-.14,1.1-.23,2.2.19,7.02,4.13,8.35,34.05l-4.73.29c-53.42,8.17-71.85,44.59-71.85,44.59,0,0-4.83,47.98,58.63,38.41h0c-29.87,28.54-142.42-.45-142.42-.45-19.78-36.26-71.62-69.45-71.62-69.45-2.53-24.32-31.37-85.45-31.82-86.41.74.25,34.36,11.51,63.65-4.65,0,0,37.11-25.19,53.79-21.45,0,0,48.53,4.15,89.45,39.18-8.65,2.14-20.11,6.94-28.9,17.67,0,0,22.21-10.08,41.75,0,0,0,6.03,3.97,14.41,6.64-28.86-4.72-48.88,25.92-48.88,25.92,0,0,8.67,20.26,45.7,12.38,5.29-1.13,8.35-8.11,10.12-15.57.18-.42.35-.84.52-1.28,1.79-4.69,2.27-9.27,1.55-12.53.28-3.5.32-5.86.32-5.86l.12-.97c3.5.41,7.15.41,10.76-.28Z"/>
        <path class="cls-6" d="m1288.99,827.29c-4.56,5.22-9.82,8.02-15.21,9.24-.61-.05-1.02.18-1.1.23-3.61.69-7.26.69-10.76.28-3.33-.39-6.54-1.16-9.45-2.09-8.38-2.67-14.41-6.64-14.41-6.64-19.54-10.08-41.75,0-41.75,0,8.79-10.73,20.25-15.53,28.9-17.67,7.29-1.81,12.59-1.73,12.59-1.73,14.04,7.02,51.19,18.38,51.19,18.38Z"/>
        <path class="cls-1" d="m1261.92,837.04l-.12.97s-.04,2.36-.32,5.86c-.49-2.22-1.53-3.82-3.1-4.42-3.86-1.47-9.43,3.72-12.45,11.6-3.01,7.88-2.32,15.47,1.55,16.95,3.65,1.39,8.83-3.17,11.93-10.32-1.77,7.46-4.83,14.44-10.12,15.57-37.03,7.88-45.7-12.38-45.7-12.38,0,0,20.02-30.64,48.88-25.92,2.91.93,6.12,1.7,9.45,2.09Z"/>
        <path d="m1261.48,843.87c.72,3.26.24,7.84-1.55,12.53-.17.44-.34.86-.52,1.28,1.16-4.91,1.76-10.03,2.07-13.81Z"/>
        <path d="m1261.48,843.87c-.31,3.78-.91,8.9-2.07,13.81-3.1,7.15-8.28,11.71-11.93,10.32-3.87-1.48-4.56-9.07-1.55-16.95,3.02-7.88,8.59-13.07,12.45-11.6,1.57.6,2.61,2.2,3.1,4.42Z"/>
        <path class="cls-6" d="m1042.73,1023.37c-.36-.52-10.73-15.55,7.5-6.32,6.17,5.31,10.69,9.81,12.68,12.96,0,0,38.29,71.49,47.49,91.92,0,0,10.21,35.23,3.57,49.53,0,0-5.62,3.19-7.4.9,0,0,.25,7.65-8.3,5.74,0,0-14.93-5.49-27.57-46.82.15,1.11,4.18,30.37-1.33,33.71,0,0-18.38-1.53-24.17-48.51l-.93-11.15s-33.72-25.7-55.57-37.99h-.01c-.84-1.14-23.7-32.39,11.41-27.88,0,0-13.02-22.98,25.27-8.93,0,0-13.27-24.76,17.36-7.16Z"/>
        <path class="cls-5" d="m778.44,992.8h0c24.47,77.18-5.83,125.3-5.83,125.3-.26,3.27,5.05,11.36,12.21,20.64-24.82-17.15-18.59,6.68-18.59,6.68-16.86-9.7-12,8.68-12,8.68-24.26-9.19-9.71,14.08-9.71,14.08-24.67-15.89-48.25-29.91-48.25-29.91-2.79-60.24-35.72-105.04-56.4-127.45-9.64-10.46-16.62-16.04-16.62-16.04-129.51-44.03-151.47-147.88-153.58-202.87-.82-21.55,1.41-35.6,1.41-35.6,3.39-17.01,10.26-32.78,19.4-47.26,2.99-4.74,6.22-9.35,9.66-13.81,12.69-16.49,28.12-31.09,44.13-43.69l.03-.03c48.3-38.04,101.93-58.1,101.93-58.1,48-17.36,126.63,18.93,126.63,18.93,68.94,62.85,239.49,89.08,239.49,89.08-7.12,13.27-20.17,34.51-36.67,47.56-8.21,6.51-17.28,10.97-26.9,11.41,0,0,14.54,35.89,26.63,49.52-.61-.23-19.89-7.87-22.11-12.23.84,1.88,49.91,111.35,139.89,147.27-.65-.26-97,23.22-119.47,16.1,24.63,16.7,58,40.04,76.51,55.99-18.23-9.23-7.86,5.8-7.5,6.32-30.63-17.6-17.36,7.16-17.36,7.16-38.29-14.05-25.27,8.93-25.27,8.93-35.11-4.51-12.25,26.74-11.41,27.87-4.01-2.24-7.62-4.04-10.55-5.15,0,0-16.67-4.29-40.94-11.26-19.75-5.69-44.53-13.14-69.44-21.51-33.51-11.25-67.25-24.16-89.32-36.61Z"/>
        <path class="cls-6" d="m979,1193.25v3.23l-.27.1c-1.52-3.87-10.1-9.26-40.08-14.57,0,0-.31-.21-.85-.6.75-.06,39.85-3.33,41.2,11.84Z"/>
        <path class="cls-6" d="m978.73,1196.58c1.31,3.33-2.63,5.52-2.63,5.52-4.09-.68-74.21-4.77-74.21-4.77-11.05-13.43-20.12-61.42-26.13-102.68,0,0,1.02-21.74,11.74-12.29,0,0,10.98-15.83,16.85-.52,0,0,11.75-8.93,16.09,14.3,0,0,3.34-16.34,6.27,0-.82,4.19-1.32,6.9-1.32,6.9-4.41,11.23,0,63.32,0,63.32,1.71,6.79,9.75,13.11,12.4,15.05h.01c.54.39.85.6.85.6,29.98,5.31,38.56,10.7,40.08,14.57Z"/>
        <path class="cls-5" d="m937.2,1050.92c-2.63,5.62-8.01,32.38-10.49,45.22-2.93-16.34-6.27,0-6.27,0-4.34-23.23-16.09-14.3-16.09-14.3-5.87-15.31-16.85.52-16.85.52-10.72-9.45-11.74,12.29-11.74,12.29-5.1-35.05-8-65.24-8-65.24,24.91,8.37,49.69,15.82,69.44,21.51Z"/>
        <path class="cls-6" d="m820.1,1179.89c98.55,8.17,82.47,31.4,82.47,31.4-.26,3.58-4.85,4.6-4.85,4.6-10.98,2.55-97.94-5.62-97.94-5.62-2.43-6.79-29.44-25.46-55.26-42.09,0,0-14.55-23.27,9.71-14.08,0,0-4.86-18.38,12-8.68,0,0-6.23-23.83,18.59-6.68,14.07,18.26,35.28,41.15,35.28,41.15Z"/>
        <path class="cls-5" d="m643.88,304.84c23.75,67.69,13.59,135.56-7.54,193.07h0c2.37-77.13-85.08-4.58-85.08-4.58-1.02-77.61-76.6,11.84-76.6,11.84-6.13-87.23-84.76,15.74-84.76,15.74,1.01-86.9-94.83,4.07-96.87,6.02,32.54-39.93,30.4-70.49,23.81-88.22,0,0,18.71-92.44,68.61-40.35,0,0,16.7-86.81,72.36-40.35,0,0,9.19-78.63,73.02-28.59,0,0,6.13-81.19,78.64-10.21,0,0-12.86-79.3,34.42-14.37Z"/>
        <path class="cls-6" d="m542.05,218.09c-.85-.88-39.22-40.71-5.51-38.75h.01c65.7,46.96,103.32,114.84,103.32,114.84,1.44,3.55,2.78,7.11,4.01,10.66-47.28-64.93-34.42,14.37-34.42,14.37-72.51-70.98-78.64,10.21-78.64,10.21-63.83-50.04-73.02,28.59-73.02,28.59-55.66-46.46-72.36,40.35-72.36,40.35-49.9-52.09-68.61,40.35-68.61,40.35-2.08-5.62-4.62-9.96-6.64-12.89-1.83-2.67-4.24-4.87-7.04-6.5,0,0-69.01-109.82,25.97-102.16,0,0-19.4-87.83,77.11-42.89,0,0-21.96-80.68,65.36-38.3,0,0-19.92-71.99,70.46-17.88Z"/>
        <path class="cls-6" d="m551.25,493.33s87.45-72.55,85.08,4.58h0c-10.5,28.58-23.71,54.6-36.82,76.77,14.56-66.72-63.59-7.3-63.59-7.3,6.64-62.3-66.44,9.7-66.44,9.7-15.88-64.34-96.46,3.57-96.46,3.57-7.66-81.7-118.91,2.85-118.91,2.85h-.01c10.75-22.75,21.14-37.32,21.14-37.32,6.82-6.62,12.7-13.03,17.74-19.22l.03-.03c2.04-1.95,97.88-92.92,96.87-6.02,0,0,78.63-102.97,84.76-15.74,0,0,75.58-89.45,76.6-11.84Z"/>
        <path class="cls-5" d="m623.25,994.78s6.98,5.58,16.62,16.04c0,0-89.13,88.04-149.39,104.94,0,0-1.73,1-4.33,3.03,9.8-31.23-16.66-10.65-16.66-10.65,2.51-35.37-19.35-12.25-19.35-12.25-3.4-31.32-15.08,0-15.08,0-.1-13.73-1.28-26.15-4.32-34.73,0,0,37.68-31.66,38.75-53.61,0,0-56.01-112.87-27.42-195.09h0c9.3-5.06,18.48-11.8,27.42-20.54h.18c2.11,54.98,24.07,158.83,153.58,202.86Z"/>
        <path class="cls-5" d="m535.93,567.38s78.15-59.42,63.59,7.3h0c-27.35,46.27-54.25,75.78-55.22,76.84l-.03.03c-16.01,12.6-31.44,27.2-44.13,43.69-33.74-71.8-59.19,0-59.19,0-63.32-57.5-67.4,36.05-67.4,36.05-55.15-67.4-50.05,4.09-50.05,4.09-75.57-40.85-47.77,39.55-47.77,39.55h-.01c-9.54-7.89-15.03-13.51-15.03-13.51-49.5-59.1-27.38-133.85-6.58-177.92h.01s111.25-84.55,118.91-2.85c0,0,80.58-67.91,96.46-3.57,0,0,73.08-72,66.44-9.7Z"/>
        <path class="cls-5" d="m536.54,179.34c-33.71-1.96,4.66,37.87,5.51,38.75-90.38-54.11-70.46,17.88-70.46,17.88-87.32-42.38-65.36,38.3-65.36,38.3-96.51-44.94-77.11,42.89-77.11,42.89-94.98-7.66-25.97,102.16-25.97,102.16-183.49-106.44-70.03-203.26-70.03-203.26,126.36-114.37,231.64-88.03,303.42-36.72Z"/>
        <path class="cls-6" d="m500.14,695.24c-3.44,4.46-6.67,9.07-9.66,13.81-26.81-36.29-39.06,17.13-39.06,17.13-50.56-33.7-65.98,25.28-65.98,25.28-38.41-25.28-48.92,14.55-48.92,14.55-34.46-16.08-38.05,25.91-38.05,25.91-8.97-6.01-16.68-11.96-22.75-16.98h.01s-27.8-80.41,47.77-39.56c0,0-5.1-71.49,50.05-4.09,0,0,4.08-93.55,67.4-36.05,0,0,25.45-71.8,59.19,0Z"/>
        <path class="cls-6" d="m462.4,1170.44s44.93-13.79,65.87,14.81c0,0-47.49,18.89-101.62,0,0,0,8.71-49.99,8.41-89.36,0,0,11.68-31.32,15.08,0,0,0,21.86-23.12,19.35,12.25,0,0,26.46-20.58,16.66,10.65-8.26,6.45-25.31,23.3-23.75,51.65Z"/>
        <path class="cls-5" d="m451.42,726.18s12.25-53.42,39.06-17.13c-9.14,14.48-16.01,30.25-19.4,47.26,0,0-2.23,14.05-1.41,35.6h-.18c-8.94,8.75-18.12,15.49-27.42,20.54h0c-52.16,28.34-107.89,3.4-143.6-20.53,0,0,3.59-41.99,38.05-25.91,0,0,10.51-39.83,48.92-14.55,0,0,15.42-58.98,65.98-25.28Z"/>
      </g>
      <g>
        <path class="cls-3" d="m1077.55,657.42s-5.14-12.29-8.66-27.01c-4.01-16.75-5.91-36.64,4.23-45.16,0,0,19.8-18.76,35.27-26.27,5.86-2.84,12.83-1.96,17.78,2.27,10.63,9.08,32.25,29,47.6,52.74,4.28,6.63,8.08,13.55,11.01,20.62"/>
        <path class="cls-3" d="m1173.77,613.99l2.58-8.91s12.17,2.89,18.64,11.06l-6.98-11.74s33.43,13.43,70.2,48.05c15.48,14.57,31.56,32.91,45.99,55.58,13.63,21.42,25.78,46.73,34.54,76.39.67,2.27,1.32,4.55,1.95,6.87,0,0,.01,2.49-.44,6.3-1.2,9.94-5.6,28.84-21.85,35.49,0,0-.54.03-1.46.1-3.45.26-12.19,1.05-16.86,2.56-.4.13-.76.26-1.09.4l-1.07,21.2-.63,12.33s.96,2.05,2.59,4.96c3.03,5.41,8.36,13.79,14.05,17.47.16.11.31.21.47.3"/>
        <path class="cls-3" d="m1339.67,797.55s-.03,0-.09.04c-1.8.83-30.84,14.48-39.74,37.36"/>
        <path class="cls-3" d="m1257.23,653.16s.34-.25.98-.71c6-4.34,38.15-26.91,57.63-27.73,5.36-.22,9.64,4.43,9.09,9.77-2.02,19.56-8.51,71.44-20.73,73.54"/>
        <path class="cls-3" d="m1320.52,636.06s-21.04,26.45-24.94,59.18"/>
        <path class="cls-3" d="m1311.45,862.14c-2.41,4.95-5.88,9.38-10.84,12.13"/>
        <path class="cls-3" d="m1316.94,833.18s.13,2.82-.17,7.03"/>
        <path class="cls-3" d="m1225.21,810.64c-8.65,2.14-20.11,6.94-28.9,17.67,0,0,22.21-10.08,41.75,0,0,0,6.03,3.97,14.41,6.64,2.91.93,6.12,1.7,9.45,2.09,3.5.41,7.15.41,10.76-.28.37-.06.73-.14,1.1-.23,5.39-1.22,10.65-4.02,15.21-9.24,0,0-37.15-11.36-51.19-18.38,0,0-5.3-.08-12.59,1.73Z"/>
        <path class="cls-3" d="m1261.48,843.87c.28-3.5.32-5.86.32-5.86"/>
        <path class="cls-3" d="m1252.47,834.95c-28.86-4.72-48.88,25.92-48.88,25.92,0,0,8.67,20.26,45.7,12.38,5.29-1.13,8.35-8.11,10.12-15.57"/>
        <path class="cls-3" d="m1286.57,782.98s10.87,20.3,9.01,40.13"/>
        <path class="cls-3" d="m1018.32,797.56c.45.96,29.29,62.09,31.82,86.41,0,0,51.84,33.19,71.62,69.45,0,0,112.55,28.99,142.42.46"/>
        <path class="cls-3" d="m1225.21,810.64c-40.92-35.03-89.45-39.18-89.45-39.18-16.68-3.74-53.79,21.45-53.79,21.45-29.29,16.16-62.91,4.9-63.65,4.65h-.01"/>
        <path class="cls-3" d="m1282.14,870.87c0-.1-.01-.2-.01-.29-1.33-29.92-6.15-33.86-8.35-34.05-.61-.05-1.02.18-1.1.23-.01.01-.02.01-.02.01"/>
        <path class="cls-3" d="m1297.29,869.67l-15.16.91-4.73.29c-53.42,8.17-71.85,44.59-71.85,44.59,0,0-4.83,47.98,58.63,38.41,5.84-.88,12.26-2.24,19.32-4.19.23-.05.45-.12.68-.18,0,0,14.98-3.5,20.27-11.44.18-.27.35-.54.5-.81"/>
        <path class="cls-3" d="m1321.16,892.57c3.68.53,7.8,1.54,12.39,3.15,0,0,2.7,25.86-6.02,36.89-.55.7-1.16,1.35-1.81,1.92-10.9,9.53-21.47,4.85-21.47,4.85,0,0,.11-.5.2-1.32.38-3.57.46-13.35-9.71-15.53,0,0-12-9.71-2.05-19.66,0,0,5.04-10.46,21.24-10.77,1.76-.05,3.65.04,5.68.27"/>
        <path class="cls-3" d="m1319.98,892.41c.32.04.64.08.97.13"/>
        <path class="cls-3" d="m1326.78,931.72s-21.64-23.3-20.23-28.28c0,0,.99-12.1,13.06-11.07.12.01.25.03.37.04.31.03.64.07.97.13l.21.03"/>
        <path class="cls-3" d="m1251.72,915.38s20.04,29.03,31.78,34.3h.01"/>
        <path class="cls-3" d="m1247.34,916.14c.64,0,4.6-2.81,10.85,1.27"/>
        <path class="cls-3" d="m953.3,797.69c.84,1.88,49.91,111.35,139.89,147.27,9.11,3.64,18.63,6.52,28.57,8.46"/>
        <path class="cls-3" d="m975.42,809.93h-.01c-.61-.24-19.89-7.88-22.11-12.24,0,0-.01,0-.01-.02"/>
        <path class="cls-3" d="m1068.89,630.41s-42.83,33.99-50.58,59.01c0,0-2.11,4.85-5.96,12.01-7.12,13.27-20.17,34.51-36.67,47.56-8.21,6.51-17.28,10.97-26.9,11.41,0,0,14.54,35.89,26.63,49.52"/>
        <path class="cls-3" d="m988.69,1067.33c-4.01-2.24-7.62-4.04-10.55-5.15,0,0-16.67-4.29-40.94-11.26-19.75-5.69-44.53-13.14-69.44-21.51-33.51-11.25-67.25-24.16-89.32-36.61-12.28-6.92-20.95-13.7-23.96-19.98,0,0-19.74-8.17-19.91-24.85,0,0,5.78,4.77,7.83,3.58,0,0,1.53-64.34,13.1-91.24"/>
        <path class="cls-3" d="m1070.69,1131.25s0,.01.01.03c.15,1.11,4.18,30.37-1.33,33.71,0,0-18.38-1.53-24.17-48.51l-.93-11.15s-33.72-25.7-55.57-37.99"/>
        <path class="cls-3" d="m948.78,865.08s-16.09,57.45-5.87,75.45c0,0,13.16,8.56,30.81,20.53,24.63,16.7,58,40.04,76.51,55.99,6.17,5.31,10.69,9.81,12.68,12.96,0,0,38.29,71.49,47.49,91.92,0,0,10.21,35.23,3.57,49.53,0,0-5.62,3.19-7.4.9,0,0,.25,7.65-8.3,5.74,0,0-14.93-5.49-27.57-46.82"/>
        <path class="cls-3" d="m1094.48,1129.76s12.6,22.81,11.92,42.13"/>
        <path class="cls-3" d="m1093.19,944.96c-.65-.26-97,23.22-119.47,16.1"/>
        <path class="cls-3" d="m544.27,651.55c-16.01,12.6-31.44,27.2-44.13,43.69-3.44,4.46-6.67,9.07-9.66,13.81-9.14,14.48-16.01,30.25-19.4,47.26,0,0-2.23,14.05-1.41,35.6,2.11,54.99,24.07,158.84,153.58,202.87,0,0,6.98,5.58,16.62,16.04,20.68,22.41,53.61,67.21,56.4,127.45,0,0,23.58,14.02,48.25,29.91,25.82,16.63,52.83,35.3,55.26,42.09,0,0,86.96,8.17,97.94,5.62,0,0,4.59-1.02,4.85-4.6,0,0,16.08-23.23-82.47-31.4,0,0-21.21-22.89-35.28-41.15-7.16-9.28-12.47-17.37-12.21-20.64,0,0,30.3-48.12,5.83-125.29"/>
        <path class="cls-3" d="m1012.35,701.43s-170.55-26.23-239.49-89.08c0,0-78.63-36.29-126.63-18.93,0,0-53.63,20.06-101.93,58.1"/>
        <path class="cls-3" d="m859.84,1195.12s23.2,7.43,36.45,20.99"/>
        <path class="cls-3" d="m744.52,1168.18s-14.55-23.27,9.71-14.08c0,0-4.86-18.38,12-8.68,0,0-6.23-23.83,18.59-6.68"/>
        <path class="cls-3" d="m1042.74,1023.38s-.01,0-.01-.01c-.36-.52-10.73-15.55,7.5-6.32"/>
        <path class="cls-3" d="m988.71,1067.36s-.01-.01-.01-.02h-.01c-.84-1.14-23.7-32.39,11.41-27.88,0,0-13.02-22.98,25.27-8.93,0,0-13.27-24.76,17.36-7.16"/>
        <path class="cls-3" d="m937.79,1181.41c-2.65-1.94-10.69-8.26-12.4-15.05,0,0-4.41-52.09,0-63.32,0,0,.5-2.71,1.32-6.9,2.48-12.84,7.86-39.6,10.49-45.22"/>
        <path class="cls-3" d="m867.76,1029.41s2.9,30.19,8,65.24c6.01,41.26,15.08,89.25,26.13,102.68,0,0,70.12,4.09,74.21,4.77,0,0,3.94-2.19,2.63-5.52-1.52-3.87-10.1-9.26-40.08-14.57,0,0-.31-.21-.85-.6"/>
        <path class="cls-3" d="m875.76,1094.65s1.02-21.74,11.74-12.29c0,0,10.98-15.83,16.85-.52,0,0,11.75-8.93,16.09,14.3,0,0,3.34-16.34,6.27,0"/>
        <path class="cls-3" d="m937.79,1181.41h.01c.75-.06,39.85-3.33,41.2,11.84v3.23"/>
        <path class="cls-3" d="m639.87,1010.82s-89.13,88.04-149.39,104.94c0,0-1.73,1-4.33,3.03-8.26,6.45-25.31,23.3-23.75,51.65,0,0,44.93-13.79,65.87,14.81,0,0-47.49,18.89-101.62,0,0,0,8.71-49.99,8.41-89.36-.1-13.73-1.28-26.15-4.32-34.73,0,0,37.68-31.66,38.75-53.61,0,0-56.01-112.87-27.42-195.09"/>
        <path class="cls-3" d="m292.99,526.96c-5.04,6.19-10.92,12.6-17.74,19.22,0,0-10.39,14.57-21.14,37.32-20.8,44.07-42.92,118.82,6.58,177.92,0,0,5.49,5.62,15.03,13.52,6.07,5.02,13.78,10.97,22.75,16.98,35.71,23.93,91.44,48.87,143.6,20.54h0c9.3-5.06,18.48-11.8,27.42-20.54"/>
        <path class="cls-3" d="m536.54,179.34c-71.78-51.31-177.06-77.65-303.42,36.72,0,0-113.46,96.82,70.03,203.26,2.8,1.63,5.21,3.83,7.04,6.5,2.02,2.93,4.56,7.27,6.64,12.89,6.59,17.73,8.73,48.29-23.81,88.22"/>
        <path class="cls-3" d="m599.52,574.68c13.11-22.17,26.32-48.19,36.82-76.77,21.13-57.51,31.29-125.38,7.54-193.07-1.23-3.55-2.57-7.11-4.01-10.66,0,0-37.62-67.88-103.32-114.84"/>
        <path class="cls-3" d="m544.27,651.55l.03-.03c.97-1.06,27.87-30.57,55.22-76.83"/>
        <path class="cls-3" d="m481.55,1174.53s20.31,3.54,26.36,16.19"/>
        <path class="cls-3" d="m275.73,774.93s-27.8-80.4,47.77-39.55c0,0-5.1-71.49,50.05-4.09,0,0,4.08-93.55,67.4-36.05,0,0,25.45-71.8,59.19,0"/>
        <path class="cls-3" d="m292.99,526.96l.03-.03c2.04-1.95,97.88-92.92,96.87-6.02,0,0,78.63-102.97,84.76-15.74,0,0,75.58-89.45,76.6-11.84,0,0,87.45-72.55,85.08,4.58"/>
        <path class="cls-3" d="m542.06,218.1s-.01,0-.01-.01c-.85-.88-39.22-40.71-5.51-38.75h.01"/>
        <path class="cls-3" d="m303.15,419.32s-69.01-109.82,25.97-102.16c0,0-19.4-87.83,77.11-42.89,0,0-21.96-80.68,65.36-38.3,0,0-19.92-71.99,70.46-17.88"/>
        <path class="cls-3" d="m435.06,1095.89s11.68-31.32,15.08,0c0,0,21.86-23.12,19.35,12.25,0,0,26.46-20.58,16.66,10.65"/>
        <path class="cls-3" d="m316.83,438.71s18.71-92.44,68.61-40.35c0,0,16.7-86.81,72.36-40.35,0,0,9.19-78.63,73.02-28.59,0,0,6.13-81.19,78.64-10.21,0,0-12.86-79.3,34.42-14.37"/>
        <path class="cls-3" d="m254.12,583.5s111.25-84.55,118.91-2.85c0,0,80.58-67.91,96.46-3.57,0,0,73.08-72,66.44-9.7,0,0,78.15-59.42,63.59,7.3h0"/>
        <path class="cls-3" d="m298.47,791.92s3.59-41.99,38.05-25.91c0,0,10.51-39.83,48.92-14.55,0,0,15.42-58.98,65.98-25.28,0,0,12.25-53.42,39.06-17.13"/>
        <path class="cls-3" d="m975.68,748.99s53.76,48.82,123.54,15.11c69.79-33.7,148,36.11,148,36.11,0,0,36.14,23.59,47.24,23.98l8-1.08s26.57-38.29,36.28-38.69"/>
      </g>
    </g>
    <path class="cls-7" d="m1079.58,600.36s.79-30.98,29.62-24.85c0,0,16.57,6.88,21.34,31.87,0,0-11.23,31.65,16.68,23.04l-9.12,8.1s-24.49,4.93-21.47-8.1c0,0,1.21-13.53,1.28-26.39.04-6.73-6.26-18.04-18.01-18.56,0,0-11.7-1.11-20.32,14.89Z"/>
    <path class="cls-4" d="m1079.58,601.93s20.09-38.13,38.81,0c0,0-4.43,27.57,0,36.43,0,0,7.49,3.06,20.43,0"/>
    <path class="cls-7" d="m940.84,903.96s57.45,12.91,92.97,4.98c0,0,36.47,29.16,56.3,36.01,0,0-96.04,22.26-118.7,14.54,0,0-21.3-16.16-27.86-19.74-3.38-6.34-3.58-19.88-2.72-35.8Z"/>
    <path class="cls-7" d="m1287.21,682.58s17.11-45.55,32.09-46.53c0,0-22.47,33.15-24.24,56.56l-7.85-10.03Z"/>
  </g>
  <g>
    <path class="cls-2" d="m657.57,595.13s-8.5-9.62-20.08-11.48c-.37-.06-.74-.11-1.11-.15-12.14-1.39,36.88-1.14,45.81,9.84"/>
    <path class="cls-2" d="m751.77,604.83s-7.62-19.36-15.79-19.85,24.6-4.96,41.41,31.32"/>
    <path class="cls-2" d="m655.71,355.59s12.87-17.23,11.85-37.99c0,0,1.33,87.15-11.25,95.32,0,0,12.61-1.1,22.57-9.28,0,0-9.54,24.33-25.83,33.23"/>
    <path class="cls-2" d="m413.6,137.34s-23.23-15.32-33.7-12.77,24.31-19.63,76.6,18.64"/>
    <path class="cls-2" d="m212.66,244.06s1.59-8.51-8.96.34-1.39-15.28,30.66-27.78"/>
    <path class="cls-2" d="m427.72,204.23s-28.5-35.23-49.78-29.87c0,0,11.15-10.98,48.25,2.13"/>
    <path class="cls-2" d="m627.04,681.17s-19.91-28.6-39.32-27.06,23.77-9.82,48.65-.06c0,0-3.21-17.15-13.16-17.99s25.57-.33,34.36,11.41"/>
    <path class="cls-2" d="m1073.6,684.7c-23.49-7.49-49.36,4.77-36.77,3.74s21.11,9.4,21.11,9.4c0,0-5.79-2.97-16.77,2.62,0,0,12.77,1.76,10.72,10.96"/>
    <path class="cls-2" d="m777.17,885.94l-16.85-17.18s20.43-8.17,30.64,8.59"/>
    <path class="cls-2" d="m666.11,895.89s-20.68-29.91-42.89-29.13c0,0,29.87-10.21,42.89,4.1"/>
    <path class="cls-2" d="m490.48,639.43s37.82-17.37,51.58-39c0,0-3.09,21.86-13.82,29.99,0,0,15.74-5.24,17.28-8.98,0,0,1.36,9.7-5.28,13.45"/>
    <path class="cls-2" d="m300.23,247.13s-12.77-25.53-32.68-20.43c0,0,16.85-14.12,49.27-.68"/>
    <path class="cls-2" d="m843.55,731.72s-19.19-24.42-43.55-23.7,49.68-10.17,80.83,11.11c0,0-14.3-19.88-23.49-22.28,0,0,24,.66,36,9.6"/>
    <path class="cls-2" d="m481.54,994.19s-6.7-40.28-19.85-40.78c0,0,19.15-7.58,26.63,13.02"/>
    <path class="cls-2" d="m560.15,777.17s-29.62-20.94-53.11-18.38c0,0,16.85-15.01,34.21-9.8,0,0-6.64-12.66-12.77-12.66s18.89-11.74,29.11,3.57"/>
    <path class="cls-2" d="m896.29,966.44s-13.01-21.45-28.53-21.49c0,0,22.01-7.97,41.16,7.1,0,0-6.1-18.99-12.63-20.34,0,0,26.23.25,27.09,13.24"/>
    <path class="cls-2" d="m750.36,1059.81s-11.49-26.04-24.51-26.81c0,0,30.64-2.97,34.47,7.71,0,0-8.43-18.14-14.55-21.35s21.45,4.6,26.04,20.23"/>
    <path class="cls-2" d="m528.32,1052.91s14.64-16,10.21-25.19c0,0,9.5,6.81.83,26.89,0,0,9.72,1.36,13.12-11.23,0,0-3.74,17.36-12.09,19.74"/>
    <path class="cls-2" d="m574.19,371.21s19.91-22.98,17.62-42.13c0,0,14.43,10.72,9.52,36.77"/>
    <path class="cls-2" d="m292.98,612.23s21.29-19.91,18.48-36.51c0,0,9.19,11.74,8.17,26.55,0,0,7.98-11.15,9.7-18.78,0,0,.26,14.69-1.02,21.84"/>
    <path class="cls-2" d="m404.91,453.17s15.12-6.13,21.73-29.11c0,0,9.88,15.32,1.35,26.04"/>
    <path class="cls-2" d="m1116.21,892.08s-22.95-.01-45.42-28.61c0,0,17.25,8.54,23.69,5.29,0,0-23.18-16.52-23.69-20.1,0,0,26.55,12.58,31.15,11.65"/>
  </g>
</svg>