<?xml version="1.0" encoding="UTF-8"?>
<svg id="_7" data-name="7" xmlns="http://www.w3.org/2000/svg" viewBox="0 0 1600 1600">
  <defs>
    <style>
      .cls-1 {
        fill: #fff;
      }

      .cls-2 {
        stroke-width: 1.67px;
      }

      .cls-2, .cls-3, .cls-4, .cls-5 {
        stroke-miterlimit: 10;
      }

      .cls-2, .cls-3, .cls-4, .cls-6 {
        stroke: #000;
      }

      .cls-2, .cls-3, .cls-7 {
        fill: #737373;
      }

      .cls-3, .cls-4, .cls-5, .cls-6 {
        stroke-width: 2px;
      }

      .cls-4, .cls-5, .cls-6 {
        fill: none;
      }

      .cls-8 {
        fill: #2d2d30;
      }

      .cls-9 {
        fill: #d4d4d6;
      }

      .cls-5 {
        stroke: #d4d4d6;
      }

      .cls-6 {
        stroke-linecap: round;
        stroke-linejoin: round;
      }
    </style>
  </defs>
  <g>
    <g>
      <g>
        <path class="cls-9" d="m974.65,810.07c-12.08-13.62-26.62-49.52-26.62-49.52,9.62-.44,18.69-4.91,26.9-11.41,0,0,53.75,48.82,123.54,15.12,69.79-33.71,148,36.1,148,36.1,0,0,36.14,23.59,47.23,23.98l8-1.07s26.58-38.3,36.29-38.7c.67,2.26,1.32,4.55,1.95,6.87,0,0,.01,2.49-.44,6.3h-.67c-1.8.83-30.84,14.49-39.74,37.36l.24.8c-.4.13-.76.26-1.09.4l-1.07,21.2-.63,12.33-15.16.91c-1.32-29.8-6.1-33.84-8.32-34.06,5.38-1.23,10.64-4.03,15.18-9.24,0,0-37.15-11.36-51.19-18.38,0,0-5.3-.08-12.59,1.73-40.93-35.03-89.45-39.18-89.45-39.18-16.69-3.74-53.79,21.45-53.79,21.45-29.29,16.16-62.91,4.9-63.65,4.65.45.96,29.29,62.09,31.82,86.42,0,0,51.84,33.19,71.62,69.44-9.94-1.94-19.47-4.82-28.58-8.46-23.08-9.21-43.47-23.27-61.04-39.1-50.93-45.89-78.22-106.76-78.84-108.16,2.22,4.35,21.49,11.99,22.1,12.22Z"/>
        <path class="cls-8" d="m1338.83,797.74h.67c-1.2,9.94-5.6,28.84-21.86,35.49,0,0-.54.03-1.45.1-3.45.26-12.19,1.05-16.86,2.57l-.24-.8c8.9-22.87,37.94-36.53,39.74-37.36Z"/>
        <path class="cls-8" d="m1332.79,895.87s2.71,25.87-6.02,36.89l-.74-.89s-21.64-23.3-20.24-28.28c0,0,.99-12.01,12.92-11.08,4.1.45,8.77,1.5,14.08,3.36Z"/>
        <path class="cls-8" d="m1303.68,938.23c.39-3.56.49-13.37-9.7-15.55,0,0-12-9.7-2.04-19.66,0,0,5.03-10.45,21.25-10.77,1.71-.04,3.55.04,5.52.26-11.93-.93-12.92,11.08-12.92,11.08-1.4,4.98,20.24,28.28,20.24,28.28l.74.89c-.55.71-1.16,1.35-1.81,1.92-10.89,9.53-21.47,4.85-21.47,4.85,0,0,.1-.49.19-1.3Z"/>
        <path class="cls-7" d="m1294.82,695.39c-12.05-16.9-24.9-31.06-37.36-42.79,6-4.33,38.15-26.91,57.63-27.72,5.36-.23,9.64,4.43,9.09,9.76-2.02,19.56-8.51,71.44-20.74,73.54-2.81-4.43-5.69-8.69-8.62-12.79Z"/>
        <path class="cls-7" d="m1173.02,614.14l2.58-8.91s12.17,2.9,18.64,11.07l-6.98-11.75s33.43,13.43,70.2,48.05c12.46,11.73,25.31,25.89,37.36,42.79,2.93,4.1,5.81,8.36,8.62,12.79,13.63,21.42,25.78,46.72,34.55,76.39-9.71.4-36.29,38.7-36.29,38.7l-8,1.07c-11.09-.39-47.23-23.98-47.23-23.98,0,0-78.21-69.81-148-36.1-69.79,33.7-123.54-15.12-123.54-15.12,16.49-13.04,29.55-34.28,36.67-47.55,3.84-7.17,5.96-12.02,5.96-12.02,7.74-25.02,50.57-59,50.57-59h.01c-4.01-16.75-5.92-36.65,4.23-45.17,0,0,19.8-18.76,35.27-26.27,5.85-2.84,12.83-1.96,17.78,2.27,10.63,9.08,32.25,29,47.6,52.74Z"/>
        <path class="cls-1" d="m1316.19,833.33s.13,2.82-.17,7.03c-.58-1.29-1.42-2.21-2.53-2.63-3.87-1.48-9.44,3.71-12.45,11.59-1.1,2.9-1.71,5.75-1.84,8.28l-2.03-.1,1.07-21.2c.33-.14.69-.27,1.09-.4,4.67-1.52,13.41-2.31,16.86-2.57Z"/>
        <path d="m1316.02,840.36c1.42,3.21,1.16,8.69-.99,14.31-1.15,3-2.67,5.62-4.33,7.62,3.63-7.43,4.89-16.04,5.32-21.93Z"/>
        <path d="m1313.49,837.73c1.11.42,1.95,1.34,2.53,2.63-.43,5.89-1.69,14.5-5.32,21.93-2.68,3.25-5.73,4.89-8.12,3.98-2.44-.94-3.62-4.32-3.38-8.67.13-2.53.74-5.38,1.84-8.28,3.01-7.88,8.58-13.07,12.45-11.59Z"/>
        <path class="cls-1" d="m1302.58,866.27c2.39.91,5.44-.73,8.12-3.98-2.41,4.95-5.88,9.38-10.84,12.13l-.73.37c-1.63-2.91-2.59-4.96-2.59-4.96l.63-12.33,2.03.1c-.24,4.35.94,7.73,3.38,8.67Z"/>
        <path class="cls-9" d="m1281.38,870.74l15.16-.91s.96,2.05,2.59,4.96c3.04,5.41,8.37,13.8,14.06,17.46-16.22.32-21.25,10.77-21.25,10.77-9.96,9.96,2.04,19.66,2.04,19.66,10.19,2.18,10.09,11.99,9.7,15.55-5.3,7.93-20.25,11.43-20.25,11.43-.22.06-.45.12-.67.18-7.06,1.94-13.49,3.32-19.33,4.19-63.46,9.57-58.64-38.42-58.64-38.42,0,0,18.44-36.42,71.86-44.59l4.73-.28Z"/>
        <path class="cls-7" d="m1281.38,870.74l-4.73.28c-53.42,8.17-71.86,44.59-71.86,44.59,0,0-4.82,47.99,58.64,38.42-29.87,28.53-142.42-.46-142.42-.46-19.78-36.25-71.62-69.44-71.62-69.44-2.53-24.33-31.37-85.46-31.82-86.42.74.25,34.36,11.51,63.65-4.65,0,0,37.1-25.19,53.79-21.45,0,0,48.52,4.15,89.45,39.18-8.65,2.15-20.11,6.95-28.9,17.68,0,0,22.21-10.09,41.74,0,0,0,6.02,3.96,14.4,6.63-28.86-4.71-48.86,25.92-48.86,25.92,0,0,8.67,20.26,45.7,12.38,5.31-1.12,8.37-8.15,10.13-15.63.18-.4.34-.8.5-1.22,1.79-4.67,2.27-9.24,1.56-12.5.28-3.51.32-5.88.32-5.88l.12-.98c3.5.42,7.14.41,10.74-.27.38-.07.77-.15,1.15-.24,2.22.22,7,4.26,8.32,34.06Z"/>
        <path class="cls-8" d="m1288.24,827.44c-4.54,5.21-9.8,8.01-15.18,9.24-.71-.07-1.15.24-1.15.24-3.6.68-7.24.69-10.74.27-3.33-.39-6.54-1.16-9.45-2.09h-.02c-8.38-2.67-14.4-6.63-14.4-6.63-19.53-10.09-41.74,0-41.74,0,8.79-10.73,20.25-15.53,28.9-17.68,7.29-1.81,12.59-1.73,12.59-1.73,14.04,7.02,51.19,18.38,51.19,18.38Z"/>
        <path class="cls-1" d="m1261.17,837.19l-.12.98s-.04,2.37-.32,5.88c-.49-2.23-1.53-3.84-3.1-4.44-3.86-1.48-9.44,3.71-12.45,11.6-3.01,7.88-2.32,15.46,1.55,16.94,3.66,1.4,8.85-3.19,11.94-10.38-1.76,7.48-4.82,14.51-10.13,15.63-37.03,7.88-45.7-12.38-45.7-12.38,0,0,20-30.63,48.86-25.92h.02c2.91.93,6.12,1.7,9.45,2.09Z"/>
        <path d="m1260.73,844.05c.71,3.26.23,7.83-1.56,12.5-.16.42-.32.82-.5,1.22,1.15-4.88,1.75-9.96,2.06-13.72Z"/>
        <path d="m1260.73,844.05c-.31,3.76-.91,8.84-2.06,13.72-3.09,7.19-8.28,11.78-11.94,10.38-3.87-1.48-4.56-9.06-1.55-16.94,3.01-7.89,8.59-13.08,12.45-11.6,1.57.6,2.61,2.21,3.1,4.44Z"/>
        <path class="cls-8" d="m1182.92,1171.78c-3.53,1.69-6.9,2.31-6.9,2.31-20.42,1.53-86.8,0-86.8,0-16.34-21.95-67.92-65.87-67.92-65.87-1.98-6.2-4.8-12.71-8.24-19.37h0c-.08-.8-3.27-35.16,16.41-10.59,0,0,.51-31.32,17.36-3.74,0,0-2.36-30.64,12.35-3.58,0,0,1.94-33.59,15.76-4.22h.01c6.18,26.96,37.76,59.37,37.76,59.37,61.78-1.02,77.1,31.15,77.1,31.15,3.28,7.74-1.96,12.19-6.89,14.54Z"/>
        <path class="cls-9" d="m1092.43,945.11c-.26-.11-9.29.74-22,2.52-18.1,2.53-43.69,6.96-62.12,13.23-32.91,17.06-54.41,17.15-54.41,17.15-9.8.55-18.54,1.39-26.36,2.45-4.77.64-9.19,1.36-13.3,2.14,0,0,96.59-39.32,117.15-76.59,17.57,15.83,37.96,29.89,61.04,39.1Z"/>
        <path class="cls-7" d="m1074.95,1066.72h-.01c-13.82-29.37-15.76,4.22-15.76,4.22-14.71-27.06-12.35,3.58-12.35,3.58-16.85-27.58-17.36,3.74-17.36,3.74-19.68-24.57-16.49,9.79-16.41,10.58-25.68-49.9-85.52-108.38-85.52-108.38,7.82-1.06,16.56-1.9,26.36-2.45,0,0,21.5-.09,54.41-17.15,18.43-6.27,44.02-10.7,62.12-13.23l3.47,110.55c0,2.75.37,5.61,1.05,8.54Z"/>
        <path class="cls-7" d="m453.02,771.24c.54-2.51,1.14-5.02,1.81-7.53,9.89-49.7,52.98-90.4,95.69-119.53,47.71-32.53,94.95-50.61,94.95-50.61,48-17.36,126.64,18.93,126.64,18.93,68.94,62.85,239.49,89.09,239.49,89.09-7.12,13.27-20.18,34.51-36.67,47.55-8.21,6.5-17.28,10.97-26.9,11.41,0,0,14.54,35.9,26.62,49.52-.61-.23-19.88-7.87-22.1-12.22.62,1.4,27.91,62.27,78.84,108.16-20.56,37.27-117.15,76.59-117.15,76.59-39.35,7.51-49.87,20.58-57.88,22.98-10.21,3.07-22.97,61.14-22.97,61.14-.42,1.35-.89,2.67-1.39,3.97,1.34-16.09-10.19,3.83-10.19,3.83,6.75-23.28-16.68-2.72-16.68-2.72,8.51-29.62-17.7-6.17-17.7-6.17,6.07-33.07-26.79-5.02-27.46-4.44,2.72-15.21-4.54-26.88-4.54-26.88-9.53-24.56-6.13-80.74-6.13-80.74-13.96.93-53.62-10.63-53.62-10.63h-.01c-1.19,1.98-2.43,3.93-3.75,5.83,0,0,0,.01-.01.02-11.81,17.21-28.3,31.11-51.03,39.18,0,0-73.68,30.68-109.18,46.34-7.59,3.34-13.43,6-16.44,7.53,2.04-43.41-19.41-13.28-19.41-13.28-3.06-55.15-25.02-22.98-25.02-22.98-13.78-34.72-25.71,2.72-25.71,2.72-6.08-8.77-11.46-16.19-15.14-20.59,0,0,0-26.89,45.96-76.26,0,0-38.3-68.42-22.92-140.21Z"/>
        <path class="cls-8" d="m771.38,1183.87c-9.83,9.4-22.42.95-22.42.95-3.74-19.07-6.13-37.45-6.13-37.45-5.78,48.68-22.04,25.19-22.04,25.19-18.3-51.06,13.53-77.47,13.53-77.47,17.11-11.21,23.76-23.4,25.65-33.9.67-.58,33.53-28.63,27.46,4.44,0,0,26.21-23.45,17.7,6.17,0,0,23.43-20.56,16.68,2.72,0,0,11.53-19.92,10.19-3.83-13.37,35.22-51.04,53.53-51.04,53.53-1.94,2.14-1.11,8.84-.04,14.2,1.26,6.29,1.57,12.74.72,19.1-1.89,14.12-5.79,22.09-10.26,26.35Z"/>
        <path class="cls-7" d="m691.91,948.79c-.57,1.58-37.69,103.13-93.76,129.47-.59-31.16-16.76-8.34-16.76-8.34-5.37-32.42-14.81-1.27-14.81-1.27-12.51-32.94-20.44,9.18-20.44,9.18-7.43-23.43-14.44-43.52-14.44-43.52,35.5-15.66,109.18-46.34,109.18-46.34,22.73-8.07,39.22-21.97,51.03-39.18Z"/>
        <path class="cls-8" d="m652.43,1145.65c3.72,4.53,2.91,8.87,2.91,8.87-7.15,3.06-83.74,0-83.74,0-12.26-2.38-8.85-15.32-8.85-15.32-2.15-13.92-9.57-39.14-16.61-61.37,0,0,7.93-42.12,20.44-9.18,0,0,9.44-31.15,14.81,1.27,0,0,16.17-22.82,16.76,8.34,0,0-18.89,34.47,1.87,47.07,0,0,44.36,2,52.41,20.32Z"/>
        <path class="cls-7" d="m550.17,282.25c.27,3.02.37,6.06.35,9.09-.14,14.5-1.85,57.6-16.09,111.25h-.01c7.94-63.76-64.61,9.63-64.61,9.63,11.75-73.53-69.45-.51-69.45-.51,2.05-56.68-78.12,1.02-78.12,1.02-3.07-55.15-106.9,36.37-106.9,36.37-3.61-9.75-7.94-19.83-13.1-30.24,0,0-5.83-11.06-11.89-29.06,0,0,77.25-148.64,114.01-73.07,0,0,34.42-99.02,70.83-21.42,0,0,45.6-87.86,80.32-17.39,0,0,36.41-89.45,93.27-8.47.53,4.16.99,8.42,1.39,12.8Z"/>
        <path class="cls-8" d="m469.81,412.22s72.55-73.39,64.61-9.63h.01c-6.48,24.4-15.56,50.99-28.25,78.05,12.87-72.01-62.41-6.63-62.41-6.63,3.57-68.94-61.79,5.61-61.79,5.61.51-67.4-58.72,8.69-58.72,8.69-19.81-86.32-92.17,23.64-92.98,24.88-1.75-19.21-6.25-40.67-14.94-64.09,0,0,103.83-91.52,106.9-36.37,0,0,80.17-57.7,78.12-1.02,0,0,81.2-73.02,69.45.51Z"/>
        <path class="cls-8" d="m533.68,207.46c6.86,17.3,12.06,37.79,15.1,61.99-56.86-80.98-93.27,8.47-93.27,8.47-34.72-70.47-80.32,17.39-80.32,17.39-36.41-77.6-70.83,21.42-70.83,21.42-36.76-75.57-114.01,73.07-114.01,73.07-4.54-13.53-9.21-30.99-11.62-50.62.76-1.68,59.63-131.38,117.46-77.6,0,0,40.86-97.03,87.83-26.05,0,0,27.58-86.3,69.45,0,0,0,30.71-99.56,80.21-28.07Z"/>
        <path class="cls-8" d="m522.27,1110.84c.8.8,35.74,35.97,8.48,46.4,9.53-17.02-5.45-39.49-5.45-39.49-1.13-1.82-2.14-4.17-3.03-6.91Z"/>
        <path class="cls-8" d="m525.3,1117.75s14.98,22.47,5.45,39.49c0,0-33.02-13.62-38.81-52.76v-24.86s-27.08-42.81-46.82-71.32c0,0,11.93-37.44,25.71-2.72,0,0,21.96-32.17,25.02,22.98,0,0,21.45-30.13,19.41,13.28,0,0-.13,47.05,7,68.99h.01c.89,2.75,1.9,5.1,3.03,6.92Z"/>
        <path class="cls-7" d="m515.5,610.01c8.14,12.79,19.46,24.6,35.02,34.17-42.71,29.13-85.8,69.83-95.69,119.53-.67,2.51-1.27,5.02-1.81,7.53-1.31.51-98.48,38.14-170.21-3.05,0,0-26.45-76.65,46.07-61.33,0,0-26.56-73.53,67.91-46.47,0,0-18.89-70.47,61.79-31.66,0,0-.03-52.75,56.92-18.72Z"/>
        <path class="cls-7" d="m443.77,474.01s75.28-65.38,62.41,6.63c-4,8.51-6.74,17.58-8.09,26.89-2.18,15.02-3.76,38.15,1.34,62.21-61.89-67.31-62.3,10.48-62.3,10.48-82.21-54.64-75.57,28.6-75.57,28.6-81.2-60.77-76.6,38.29-76.6,38.29-51.22-46.65-59.3,51.74-59.41,53.09-5.4-13.09-9.78-28.03-12.89-45.04-3.33-18.2-1.23-36.96,5.73-54.11,7.35-18.12,15.49-48.21,11.89-87.86.81-1.24,73.17-111.2,92.98-24.88,0,0,59.23-76.09,58.72-8.69,0,0,65.36-74.55,61.79-5.61Z"/>
        <path class="cls-8" d="m499.43,569.74c2.87,13.55,7.87,27.4,16.07,40.27-56.95-34.03-56.92,18.72-56.92,18.72-80.68-38.81-61.79,31.66-61.79,31.66-94.47-27.06-67.91,46.47-67.91,46.47-72.52-15.32-46.07,61.33-46.07,61.33-23.06-13.23-43.49-34.61-57.26-67.98h0c.11-1.36,8.19-99.75,59.41-53.1,0,0-4.6-99.06,76.6-38.29,0,0-6.64-83.24,75.57-28.6,0,0,.41-77.79,62.3-10.48Z"/>
        <path class="cls-7" d="m533.68,207.46c-49.5-71.49-80.21,28.07-80.21,28.07-41.87-86.3-69.45,0-69.45,0-46.97-70.98-87.83,26.05-87.83,26.05-57.83-53.78-116.7,75.92-117.46,77.6-7.45-60.74,6.78-142.32,113.38-193,0,0,182.51-87.73,241.57,61.28Z"/>
      </g>
      <g>
        <path class="cls-5" d="m914.24,982.6s96.59-39.32,117.15-76.59"/>
        <path class="cls-4" d="m1173.02,614.15c4.29,6.62,8.08,13.54,11.01,20.61"/>
        <path class="cls-4" d="m1076.79,657.57s-5.13-12.28-8.65-27c-4.01-16.75-5.92-36.65,4.23-45.17,0,0,19.8-18.76,35.27-26.27,5.85-2.84,12.83-1.96,17.78,2.27,10.63,9.08,32.25,29,47.6,52.74"/>
        <path class="cls-4" d="m1078.84,602.08s20.08-38.12,38.8,0c0,0-4.42,27.58,0,36.43,0,0,7.49,3.06,20.43,0"/>
        <path class="cls-4" d="m1173.02,614.15h0s2.58-8.92,2.58-8.92c0,0,12.17,2.9,18.64,11.07l-6.98-11.75s33.43,13.43,70.2,48.05c12.46,11.73,25.31,25.89,37.36,42.79,2.93,4.1,5.81,8.36,8.62,12.79,13.63,21.42,25.78,46.72,34.55,76.39.67,2.26,1.32,4.55,1.95,6.87,0,0,.01,2.49-.44,6.3-1.2,9.94-5.6,28.84-21.86,35.49,0,0-.54.03-1.45.1-3.45.26-12.19,1.05-16.86,2.57-.4.13-.76.26-1.09.4l-1.07,21.2-.63,12.33s.96,2.05,2.59,4.96c3.04,5.41,8.37,13.8,14.06,17.46.15.11.3.21.45.3"/>
        <path class="cls-4" d="m1338.92,797.7s-.03.01-.09.04c-1.8.83-30.84,14.49-39.74,37.36"/>
        <path class="cls-4" d="m1256.48,653.32s.34-.25.98-.72c6-4.33,38.15-26.91,57.63-27.72,5.36-.23,9.64,4.43,9.09,9.76-2.02,19.56-8.51,71.44-20.74,73.54"/>
        <path class="cls-4" d="m1319.77,636.21s-21.04,26.45-24.95,59.18"/>
        <path class="cls-4" d="m1310.7,862.29c-2.41,4.95-5.88,9.38-10.84,12.13"/>
        <path class="cls-4" d="m1316.19,833.33s.13,2.82-.17,7.03"/>
        <path class="cls-4" d="m1251.72,835.1c2.91.93,6.12,1.7,9.45,2.09,3.5.42,7.14.41,10.74-.27.38-.07.77-.15,1.15-.24,5.38-1.23,10.64-4.03,15.18-9.24,0,0-37.15-11.36-51.19-18.38,0,0-5.3-.08-12.59,1.73-8.65,2.15-20.11,6.95-28.9,17.68,0,0,22.21-10.09,41.74,0,0,0,6.02,3.96,14.4,6.63"/>
        <path class="cls-4" d="m1260.73,844.05c.28-3.51.32-5.88.32-5.88"/>
        <path class="cls-4" d="m1251.72,835.1h-.02c-28.86-4.71-48.86,25.92-48.86,25.92,0,0,8.67,20.26,45.7,12.38,5.31-1.12,8.37-8.15,10.13-15.63"/>
        <path class="cls-4" d="m1285.81,783.13s10.87,20.3,9.01,40.14"/>
        <path class="cls-4" d="m1017.57,797.71c.45.96,29.29,62.09,31.82,86.42,0,0,51.84,33.19,71.62,69.44,0,0,112.55,28.99,142.42.46"/>
        <path class="cls-4" d="m1224.46,810.79c-40.93-35.03-89.45-39.18-89.45-39.18-16.69-3.74-53.79,21.45-53.79,21.45-29.29,16.16-62.91,4.9-63.65,4.65h-.01"/>
        <path class="cls-4" d="m1281.39,871.02c0-.09-.01-.19-.01-.28-1.32-29.8-6.1-33.84-8.32-34.06-.71-.07-1.15.24-1.15.24"/>
        <path class="cls-4" d="m1296.54,869.83l-15.16.91-4.73.28c-53.42,8.17-71.86,44.59-71.86,44.59,0,0-4.82,47.99,58.64,38.42,5.84-.87,12.27-2.25,19.33-4.19.22-.06.45-.12.67-.18,0,0,14.95-3.5,20.25-11.43.19-.27.36-.55.52-.83"/>
        <path class="cls-4" d="m1303.68,938.23c.39-3.56.49-13.37-9.7-15.55,0,0-12-9.7-2.04-19.66,0,0,5.03-10.45,21.25-10.77,1.71-.04,3.55.04,5.52.26,4.1.45,8.77,1.5,14.08,3.36,0,0,2.71,25.87-6.02,36.89-.55.71-1.16,1.35-1.81,1.92-10.89,9.53-21.47,4.85-21.47,4.85,0,0,.1-.49.19-1.3Z"/>
        <path class="cls-4" d="m1326.03,931.87s-21.64-23.3-20.24-28.28c0,0,.99-12.01,12.92-11.08.54.04,1.1.11,1.69.21"/>
        <path class="cls-4" d="m1250.96,915.53s20.06,29.05,31.8,34.31"/>
        <path class="cls-4" d="m1246.59,916.29c.64,0,4.59-2.81,10.85,1.28"/>
        <path class="cls-4" d="m952.55,797.85c.62,1.4,27.91,62.27,78.84,108.16,17.57,15.83,37.96,29.89,61.04,39.1,9.11,3.64,18.64,6.52,28.58,8.46"/>
        <path class="cls-4" d="m974.66,810.08h-.01c-.61-.24-19.88-7.88-22.1-12.23,0-.01-.01-.01-.01-.02"/>
        <path class="cls-4" d="m1068.13,630.57s-42.83,33.98-50.57,59c0,0-2.12,4.85-5.96,12.02-7.12,13.27-20.18,34.51-36.67,47.55-8.21,6.5-17.28,10.97-26.9,11.41,0,0,14.54,35.9,26.62,49.52"/>
        <path class="cls-4" d="m1092.43,945.11c-.26-.11-9.29.74-22,2.52-18.1,2.53-43.69,6.96-62.12,13.23"/>
        <path class="cls-6" d="m974.93,749.14s53.75,48.82,123.54,15.12c69.79-33.71,148,36.1,148,36.1,0,0,36.14,23.59,47.23,23.98l8-1.07s26.58-38.3,36.29-38.7"/>
        <path class="cls-4" d="m522.27,1110.84c.89,2.74,1.9,5.09,3.03,6.91,0,0,14.98,22.47,5.45,39.49,0,0-33.02-13.62-38.81-52.76v-24.86s-27.08-42.81-46.82-71.32c-6.08-8.77-11.46-16.19-15.14-20.59,0,0,0-26.89,45.96-76.26,0,0-38.3-68.42-22.92-140.21.54-2.51,1.14-5.02,1.81-7.53,9.89-49.7,52.98-90.4,95.69-119.53,47.71-32.53,94.95-50.61,94.95-50.61,48-17.36,126.64,18.93,126.64,18.93,68.94,62.85,239.49,89.09,239.49,89.09"/>
        <path class="cls-4" d="m691.91,948.79c-11.81,17.21-28.3,31.11-51.03,39.18,0,0-73.68,30.68-109.18,46.34-7.59,3.34-13.43,6-16.44,7.53,0,0-.13,47.05,7,68.99"/>
        <path class="cls-4" d="m708.28,744.39s31.81,124.88-12.61,198.55c-1.19,1.98-2.43,3.93-3.75,5.83"/>
        <path class="cls-4" d="m522.26,1110.83h.01c.8.81,35.74,35.98,8.48,46.41"/>
        <path class="cls-4" d="m445.12,1008.3s11.93-37.44,25.71-2.72c0,0,21.96-32.17,25.02,22.98,0,0,21.45-30.13,19.41,13.28"/>
        <path class="cls-4" d="m225.55,700.2c-5.4-13.09-9.78-28.03-12.89-45.04-3.33-18.2-1.23-36.96,5.73-54.11,7.35-18.12,15.49-48.21,11.89-87.86-1.75-19.21-6.25-40.67-14.94-64.09-3.61-9.75-7.94-19.83-13.1-30.24,0,0-5.83-11.06-11.89-29.06-4.54-13.53-9.21-30.99-11.62-50.62-7.45-60.74,6.78-142.32,113.38-193,0,0,182.51-87.73,241.57,61.28,6.86,17.3,12.06,37.79,15.1,61.99.53,4.16.99,8.42,1.39,12.8.27,3.02.37,6.06.35,9.09-.14,14.5-1.85,57.6-16.09,111.25-6.48,24.4-15.56,50.99-28.25,78.05-4,8.51-6.74,17.58-8.09,26.89-2.18,15.02-3.76,38.15,1.34,62.21,2.87,13.55,7.87,27.4,16.07,40.27,8.14,12.79,19.46,24.6,35.02,34.17,0,.01.01.01.01.01"/>
        <path class="cls-4" d="m453.03,771.24h-.01c-1.31.51-98.48,38.14-170.21-3.05-23.06-13.23-43.49-34.61-57.26-67.98"/>
        <path class="cls-4" d="m531.7,1034.31s7.01,20.09,14.44,43.52c7.04,22.23,14.46,47.45,16.61,61.37,0,0-3.41,12.94,8.85,15.32,0,0,76.59,3.06,83.74,0,0,0,.81-4.34-2.91-8.87-3.51-4.26-11.03-8.69-27.04-9.85"/>
        <path class="cls-4" d="m691.92,948.77s0,.01-.01.02c-.57,1.58-37.69,103.13-93.76,129.47,0,0-18.89,34.47,1.87,47.07,0,0,44.36,2,52.41,20.32.01,0,.01.03.02.04"/>
        <path class="cls-4" d="m546.14,1077.83s7.93-42.12,20.44-9.18c0,0,9.44-31.15,14.81,1.27,0,0,16.17-22.82,16.76,8.34"/>
        <path class="cls-4" d="m695.68,942.94s39.66,11.56,53.62,10.63c0,0-3.4,56.18,6.13,80.74,0,0,7.26,11.67,4.54,26.88-1.89,10.5-8.54,22.69-25.65,33.9,0,0-31.83,26.41-13.53,77.47,0,0,16.26,23.49,22.04-25.19,0,0,2.39,18.38,6.13,37.45,0,0,12.59,8.45,22.42-.95,4.47-4.26,8.37-12.23,10.26-26.35.85-6.36.54-12.81-.72-19.1-1.07-5.36-1.9-12.06.04-14.2,0,0,37.67-18.31,51.04-53.53.5-1.3.97-2.62,1.39-3.97,0,0,12.76-58.07,22.97-61.14,8.01-2.4,18.53-15.47,57.88-22.98,4.11-.78,8.53-1.5,13.3-2.14,7.82-1.06,16.56-1.9,26.36-2.45,0,0,21.5-.09,54.41-17.15"/>
        <path class="cls-4" d="m766.49,1140.22s2.46,12.84,4.89,43.65"/>
        <path class="cls-4" d="m1013.06,1088.85c3.44,6.66,6.26,13.17,8.24,19.37,0,0,51.58,43.92,67.92,65.87,0,0,66.38,1.53,86.8,0,0,0,3.37-.62,6.9-2.31,4.93-2.35,10.17-6.8,6.89-14.54,0,0-15.32-32.17-77.1-31.15,0,0-31.58-32.41-37.76-59.37-.68-2.93-1.05-5.79-1.05-8.54l-3.47-110.55"/>
        <path class="cls-4" d="m927.54,980.46s59.84,58.48,85.52,108.38"/>
        <path class="cls-4" d="m1127.26,1142.43s36.51,1,55.66,29.35"/>
        <path class="cls-4" d="m282.81,768.19s-26.45-76.65,46.07-61.33c0,0-26.56-73.53,67.91-46.47,0,0-18.89-70.47,61.79-31.66,0,0-.03-52.75,56.92-18.72"/>
        <path class="cls-4" d="m225.55,700.21h0c.11-1.36,8.19-99.75,59.41-53.1,0,0-4.6-99.06,76.6-38.29,0,0-6.64-83.24,75.57-28.6,0,0,.41-77.79,62.3-10.48"/>
        <path class="cls-4" d="m230.27,513.2h.01c.81-1.25,73.17-111.21,92.98-24.89,0,0,59.23-76.09,58.72-8.69,0,0,65.36-74.55,61.79-5.61,0,0,75.28-65.38,62.41,6.63"/>
        <path class="cls-4" d="m215.34,449.1s103.83-91.52,106.9-36.37c0,0,80.17-57.7,78.12-1.02,0,0,81.2-73.02,69.45.51,0,0,72.55-73.39,64.61-9.63"/>
        <path class="cls-4" d="m190.35,389.8s77.25-148.64,114.01-73.07c0,0,34.42-99.02,70.83-21.42,0,0,45.6-87.86,80.32-17.39,0,0,36.41-89.45,93.27-8.47"/>
        <path class="cls-4" d="m178.72,339.2s0-.01,0-.02c.76-1.68,59.63-131.38,117.46-77.6,0,0,40.86-97.03,87.83-26.05,0,0,27.58-86.3,69.45,0,0,0,30.71-99.56,80.21-28.07"/>
        <path class="cls-4" d="m759.96,1061.2h.01c.67-.59,33.53-28.64,27.46,4.43,0,0,26.21-23.45,17.7,6.17,0,0,23.43-20.56,16.68,2.72,0,0,11.53-19.92,10.19-3.83"/>
        <path class="cls-4" d="m1013.06,1088.85h0c-.08-.8-3.27-35.16,16.41-10.59,0,0,.51-31.32,17.36-3.74,0,0-2.36-30.64,12.35-3.58,0,0,1.94-33.59,15.76-4.22"/>
      </g>
    </g>
    <path class="cls-9" d="m1078.69,600.43s.79-30.98,29.62-24.85c0,0,16.57,6.88,21.34,31.87,0,0-11.23,31.65,16.68,23.04l-9.12,8.1s-24.49,4.93-21.47-8.1c0,0,1.21-13.53,1.28-26.39.04-6.73-6.26-18.04-18.01-18.56,0,0-11.7-1.11-20.32,14.89Z"/>
    <path class="cls-6" d="m1078.69,602s20.09-38.13,38.81,0c0,0-4.43,27.57,0,36.43,0,0,7.49,3.06,20.43,0"/>
    <path class="cls-9" d="m1286.32,682.65s17.11-45.55,32.09-46.53c0,0-22.47,33.15-24.24,56.56l-7.85-10.03Z"/>
    <path class="cls-6" d="m749.3,953.57s12.6-45.56,27.91-78.35"/>
    <path class="cls-9" d="m715.26,892.14s43.64,13.92,49.19,11.83l-15.91,48.43c-14.04,1.18-50.53-9.84-51.4-10.13s10.47-10.72,18.13-50.13Z"/>
  </g>
  <g>
    <path class="cls-3" d="m657.52,595.75s-8.5-9.62-20.08-11.48c-.37-.06-.74-.11-1.11-.15-12.14-1.39,36.88-1.14,45.81,9.84"/>
    <path class="cls-3" d="m751.72,605.45s-7.62-19.36-15.79-19.85,24.6-4.96,41.41,31.32"/>
    <path class="cls-3" d="m627,681.8s-19.91-28.6-39.32-27.06,23.77-9.82,48.65-.06c0,0-3.21-17.15-13.16-17.99-9.96-.84,25.57-.33,34.36,11.41"/>
    <path class="cls-3" d="m908.1,940.26s-19.91-28.6-39.32-27.06,23.77-9.82,48.65-.06c0,0-3.21-17.15-13.16-17.99-9.96-.84,25.57-.33,34.36,11.41"/>
    <path class="cls-3" d="m1073.55,685.33c-23.49-7.49-49.36,4.77-36.77,3.74,12.6-1.02,21.11,9.4,21.11,9.4,0,0-5.79-2.97-16.77,2.62,0,0,12.77,1.76,10.72,10.96"/>
    <path class="cls-3" d="m818.32,824.34l-16.85-17.18s20.43-8.17,30.64,8.59"/>
    <path class="cls-3" d="m683.99,856.16s-20.68-29.91-42.89-29.13c0,0,29.87-10.21,42.89,4.1"/>
    <path class="cls-3" d="m843.51,732.35s-19.19-24.42-43.55-23.7c-24.36.72,49.68-10.17,80.83,11.11,0,0-14.3-19.88-23.49-22.28,0,0,24,.66,36,9.6"/>
    <path class="cls-3" d="m525.98,762.62s-29.62-20.94-53.11-18.38c0,0,16.85-15.01,34.21-9.8,0,0-6.64-12.66-12.77-12.66s18.89-11.74,29.11,3.57"/>
    <path class="cls-3" d="m777.94,945.9s-13.01-21.45-28.53-21.49c0,0,22.01-7.97,41.16,7.1,0,0-6.1-18.99-12.63-20.34,0,0,26.23.25,27.09,13.24"/>
    <path class="cls-3" d="m278.83,216.35s-13.01-21.45-28.53-21.49c0,0,22.01-7.97,41.16,7.1,0,0-6.1-18.99-12.63-20.34,0,0,26.23.25,27.09,13.24"/>
    <path class="cls-3" d="m1116.16,892.7s-22.95-.01-45.42-28.61c0,0,17.25,8.54,23.69,5.29,0,0-23.18-16.52-23.69-20.1,0,0,26.55,12.58,31.15,11.65"/>
    <path class="cls-3" d="m572.01,968.17s-35.4,9.87-51.74,3.06c0,0,18.04-4.09,25.87-10.89,0,0-11.57,3.4-22.47-2.04,0,0,22.68-1.02,28.7-10.21"/>
    <path class="cls-3" d="m479.33,877.49c-16.34,12.26-34.21,2.55-34.21,2.55,0,0,15.83-5.62,17.11-13.28"/>
    <path class="cls-2" d="m1008.3,1021.23s-22.71-10.53-30.42-22.95c0,0-5.69,9.66,13.67,25.47,0,0-13.21,1.35-19.82-7.98,0,0-2.54,11.8,21.85,18.54"/>
    <path class="cls-3" d="m638.06,982.61s-11.06,17.77-29.79,24.72c0,0,6.47-10.08,4.09-16.89"/>
    <path class="cls-3" d="m540.28,304.99s20.94-10.21,19.4-27.06c0,0-4.6,47.49-15.83,55.15,0,0,11.39-7.15,15.91-16.34,0,0-8.76,32.17-19.48,38.3"/>
    <path class="cls-3" d="m411.49,127.85s-11.25-14.66-29.86-13.3c0,0,18.55-6.57,45.57,2.65,0,0-4.77-7.82-10.85-8.61s38.25-.8,43.77,25.17"/>
    <path class="cls-3" d="m425.48,347.39s45.96-13.28,48-34.72c0,0,1.53,21.45-4.6,26.55,0,0,14.3-7.15,14.3-14.3,0,0,3.57,7.4,0,14.55"/>
    <path class="cls-3" d="m225.55,204.39s-23.59,0-35.2,11.23c0,0,8.06-13.79,24.65-19.15,0,0-7.15-4.34-15.32-3.32,0,0,35.74-21.7,49.79-18.64"/>
    <path class="cls-3" d="m260.45,557.75s33.7-17.87,33.19-39.83c0,0,6.64,12.77,5.62,21.96,0,0,11.74-9.7,12.77-18.38,0,0,6.13,7.66,3.06,16.34"/>
    <path class="cls-3" d="m244.62,392.31s18.89-19.91,15.83-33.19c0,0,5.62,15.32,2.55,25.53"/>
    <path class="cls-3" d="m451.31,502.02s23.77-13.73,24.61-27.33c0,0,1.03,16.28-4.81,25.21"/>
    <path class="cls-3" d="m213.81,435.88s-16-16-25.02-14.64c0,0,8.34-11.4,18.72-4.43,0,0-13.05-9.02-17.16-9.19,0,0,4.23-7.83,12.06-3.23"/>
    <path class="cls-3" d="m396.8,785.02s-31.16,5.97-39.67,15.14c0,0-1.7-2.66.98-7.89,0,0-10.09-.96-18,3.57,0,0,7.15-10.47,18.32-14.55"/>
    <path class="cls-3" d="m425.72,689.91s-5.31-6.77-35.69-5.95c0,0,33.91-14.18,43.54-8.15,0,0-1.46-12.09-10.37-15.93,0,0,22.59-4.69,30.02,9.05"/>
  </g>
  <path class="cls-3" d="m1211.23,850.95s41.41-4.32,49.44.28c0,0,2.42-10.06-.91-12.95,0,0-10.3-8.27-28.43-1.71,0,0-12.83,5.95-20.11,14.38Z"/>
  <path class="cls-3" d="m1297.67,847.74s17.42-3.24,18.56-.85c1.14,2.38.85-13.44.85-13.44,0,0-16.21,2.16-18.51,2.93l-.9,11.36Z"/>
</svg>