<?xml version="1.0" encoding="UTF-8"?>
<svg id="_2" data-name="2" xmlns="http://www.w3.org/2000/svg" viewBox="0 0 1600 1600">
  <defs>
    <style>
      .cls-1 {
        fill: #fff;
      }

      .cls-2, .cls-3 {
        stroke-miterlimit: 10;
      }

      .cls-2, .cls-3, .cls-4 {
        stroke: #000;
        stroke-width: 2px;
      }

      .cls-2, .cls-5 {
        fill: #737373;
      }

      .cls-3, .cls-4 {
        fill: none;
      }

      .cls-6 {
        fill: #2d2d30;
      }

      .cls-7 {
        fill: #d4d4d6;
      }

      .cls-4 {
        stroke-linecap: round;
        stroke-linejoin: round;
      }
    </style>
  </defs>
  <g>
    <g>
      <g>
        <path class="cls-7" d="m1017.52,797.55c.45.96,29.29,62.1,31.82,86.42,0,0,51.84,33.19,71.62,69.45-30.59-5.97-57.28-20.87-79.85-39.2-57.21-46.47-87.95-115.04-88.61-116.53,2.22,4.36,21.5,12,22.11,12.23-12.09-13.63-26.63-49.53-26.63-49.53,9.62-.44,18.69-4.9,26.9-11.41,0,0,53.76,48.82,123.54,15.12,69.79-33.7,148,36.11,148,36.11,0,0,36.14,23.59,47.24,23.98l8-1.08s26.57-38.29,36.29-38.69c.67,2.26,1.32,4.55,1.95,6.87,0,0,.01,2.49-.44,6.3h-.68c-1.8.82-30.83,14.48-39.74,37.36l.24.79c-.4.13-.76.26-1.09.4l-1.7,33.53-15.16.91c-1.32-29.75-6.09-33.82-8.31-34.06,5.37-1.23,10.63-4.02,15.17-9.23,0,0-37.15-11.36-51.19-18.39,0,0-5.29-.08-12.59,1.73-40.93-35.03-89.45-39.17-89.45-39.17-16.68-3.75-53.79,21.44-53.79,21.44-29.28,16.17-62.91,4.9-63.65,4.65Z"/>
        <path class="cls-6" d="m1338.78,797.58h.68c-1.2,9.95-5.6,28.85-21.86,35.5,0,0-.54.03-1.46.1-3.46.26-12.2,1.05-16.86,2.56l-.24-.79c8.91-22.88,37.94-36.54,39.74-37.37Z"/>
        <path class="cls-6" d="m1332.75,895.71s2.7,25.87-6.02,36.89l-.75-.89s-21.64-23.29-20.23-28.27c0,0,.99-12.11,13.06-11.07.12.01.24.02.37.04.32.04.64.08.97.13l.21.03c3.68.53,7.8,1.53,12.39,3.14Z"/>
        <path class="cls-6" d="m1303.64,938.07c.39-3.56.49-13.37-9.7-15.55,0,0-12-9.7-2.04-19.66,0,0,5.03-10.45,21.24-10.77,1.75-.04,3.64.04,5.67.28-12.07-1.04-13.06,11.07-13.06,11.07-1.41,4.98,20.23,28.27,20.23,28.27l.75.89c-.55.71-1.16,1.35-1.81,1.92-10.9,9.53-21.47,4.85-21.47,4.85,0,0,.1-.49.19-1.3Z"/>
        <path class="cls-5" d="m1294.78,695.24c-12.06-16.9-24.9-31.07-37.37-42.8,6-4.33,38.15-26.9,57.63-27.72,5.36-.22,9.64,4.43,9.09,9.77-2.02,19.56-8.51,71.44-20.73,73.53-2.82-4.42-5.69-8.68-8.62-12.78Z"/>
        <path class="cls-5" d="m1257.41,652.44c12.47,11.73,25.31,25.9,37.37,42.8,2.93,4.1,5.8,8.36,8.62,12.78,13.63,21.43,25.78,46.73,34.55,76.4-9.72.4-36.29,38.69-36.29,38.69l-8,1.08c-11.1-.39-47.24-23.98-47.24-23.98,0,0-78.21-69.81-148-36.11-69.78,33.7-123.54-15.12-123.54-15.12,16.5-13.04,29.55-34.28,36.67-47.55,3.85-7.16,5.96-12.01,5.96-12.01,7.75-25.03,50.58-59.01,50.58-59.01-4.01-16.75-5.91-36.64,4.23-45.16,0,0,19.81-18.77,35.27-26.27,5.86-2.85,12.83-1.96,17.78,2.27,10.63,9.08,32.25,29,47.6,52.74l2.59-8.91s12.17,2.89,18.63,11.06l-6.98-11.75s33.43,13.43,70.2,48.05Z"/>
        <path class="cls-1" d="m1316.14,833.18s.13,2.82-.17,7.03c-.57-1.29-1.42-2.22-2.53-2.64-3.86-1.48-9.44,3.72-12.45,11.6s-2.32,15.46,1.55,16.94c2.38.91,5.42-.72,8.11-3.95-2.42,4.94-5.88,9.36-10.84,12.11l-.73.36c-1.63-2.91-2.59-4.96-2.59-4.96l1.7-33.53c.33-.14.69-.27,1.09-.4,4.66-1.51,13.4-2.3,16.86-2.56Z"/>
        <path d="m1315.97,840.21c1.43,3.21,1.17,8.68-.98,14.3-1.15,3.02-2.68,5.64-4.34,7.65,3.63-7.43,4.9-16.05,5.32-21.95Z"/>
        <path d="m1313.44,837.57c1.11.42,1.96,1.35,2.53,2.64-.42,5.9-1.69,14.52-5.32,21.95-2.69,3.23-5.73,4.86-8.11,3.95-3.87-1.48-4.56-9.06-1.55-16.94s8.59-13.08,12.45-11.6Z"/>
        <path class="cls-7" d="m1282.7,949.69c-7.05,1.94-13.48,3.31-19.32,4.18-63.46,9.57-58.63-38.41-58.63-38.41,0,0,18.43-36.43,71.85-44.6l4.73-.28,15.16-.91s.96,2.05,2.59,4.96c3.04,5.41,8.37,13.79,14.06,17.46-16.21.32-21.24,10.77-21.24,10.77-9.96,9.96,2.04,19.66,2.04,19.66,10.19,2.18,10.09,11.99,9.7,15.55-5.29,7.93-20.25,11.43-20.25,11.43-.23.06-.45.13-.68.19h0Z"/>
        <path class="cls-5" d="m1281.33,870.58l-4.73.28c-53.42,8.17-71.85,44.6-71.85,44.6,0,0-4.83,47.98,58.63,38.41h0c-29.87,28.53-142.42-.45-142.42-.45-19.78-36.26-71.62-69.45-71.62-69.45-2.53-24.32-31.37-85.46-31.82-86.42.74.25,34.37,11.52,63.65-4.65,0,0,37.11-25.19,53.79-21.44,0,0,48.52,4.14,89.45,39.17-8.65,2.15-20.1,6.95-28.9,17.68,0,0,22.22-10.09,41.75,0,0,0,6.03,3.97,14.41,6.64-28.86-4.73-48.88,25.91-48.88,25.91,0,0,8.67,20.26,45.7,12.39,5.28-1.13,8.34-8.09,10.1-15.54.19-.43.37-.87.54-1.32,1.8-4.7,2.27-9.29,1.54-12.55.29-3.48.33-5.83.33-5.83l.12-.97c3.49.41,7.13.41,10.74-.28.38-.06.77-.14,1.15-.24h.01c2.22.24,6.99,4.31,8.31,34.06Z"/>
        <path class="cls-6" d="m1224.41,810.63c7.3-1.81,12.59-1.73,12.59-1.73,14.04,7.03,51.19,18.39,51.19,18.39-4.54,5.21-9.8,8-15.17,9.23h-.01c-.71-.07-1.15.24-1.15.24-3.61.69-7.25.69-10.74.28-3.33-.39-6.54-1.16-9.45-2.09-8.38-2.67-14.41-6.64-14.41-6.64-19.53-10.09-41.75,0-41.75,0,8.8-10.73,20.25-15.53,28.9-17.68Z"/>
        <path class="cls-1" d="m1261.12,837.04l-.12.97s-.04,2.35-.33,5.83c-.49-2.2-1.53-3.79-3.09-4.39-3.86-1.47-9.43,3.72-12.44,11.6-3.02,7.88-2.32,15.47,1.54,16.94,3.64,1.4,8.81-3.14,11.91-10.28-1.76,7.45-4.82,14.41-10.1,15.54-37.03,7.87-45.7-12.39-45.7-12.39,0,0,20.02-30.64,48.88-25.91,2.91.93,6.12,1.7,9.45,2.09Z"/>
        <path d="m1260.67,843.84c.73,3.26.26,7.85-1.54,12.55-.17.45-.35.89-.54,1.32,1.18-4.93,1.78-10.08,2.08-13.87Z"/>
        <path d="m1260.67,843.84c-.3,3.79-.9,8.94-2.08,13.87-3.1,7.14-8.27,11.68-11.91,10.28-3.86-1.47-4.56-9.06-1.54-16.94,3.01-7.88,8.58-13.07,12.44-11.6,1.56.6,2.6,2.19,3.09,4.39Z"/>
        <path class="cls-6" d="m1215.63,1193.04c-33.51-.61-72.33-4.27-72.33-4.27-26.83-15.73-63.9-41.69-97.78-66.45,0,0-4.86-33.66,14.03-16.81,0,0-7.15-33.19,20.43-16.85,0,0-.51-33.19,19.4-11.23,0,0,3.68-19.08,15.37-4.95,27.73,60.3,73.48,81.29,73.48,81.29,72.77,12.25,58.31,38.55,58.31,38.55-1.18.11-2.4.21-3.66.29-7.85.53-17.32.61-27.25.43Z"/>
        <path class="cls-5" d="m952.5,797.69c.66,1.49,31.4,70.06,88.61,116.53,9.53,8.16,61.85,125.76,61.85,125.76,3.28,11.92,7.3,22.73,11.79,32.5-11.69-14.13-15.37,4.95-15.37,4.95-19.91-21.96-19.4,11.23-19.4,11.23-27.58-16.34-20.43,16.85-20.43,16.85-18.89-16.85-14.03,16.81-14.03,16.81-46.4-33.92-86.82-65.58-86.82-65.58-12.56-2.76-24.71-5.86-36.42-9.23-45.2-12.96-83.82-29.77-114.28-45.59-28.36-14.72-49.65-28.59-62.6-37.69-9.52-6.69-14.53-10.81-14.53-10.81-20.76,5.01-34.38-4.68-34.38-4.68,9.68-6.98,15.28-23.41,18.32-43.61l-1.98-.3s-65.16,47.19-139.15,80.75c-37.32,16.92-76.88,30.38-111.45,32.57-.48.03-.95.09-1.43.19-3.06.64-14.66,3.54-28.81,13.57,13.29-30.2-8.18-23.93-8.18-23.93,5.1-28.09-18.38-18.89-18.38-18.89,5.61-21.45-15.18-14.31-15.18-14.31.09-7.37-.14-11.74-.14-11.74,41.87-16,55.4-50.64,55.4-50.64-7.41-65.92,5.58-120.15,27.97-164.01,20.32-39.81,48.38-71.08,75.94-94.78,48.79-41.94,96.01-60.19,96.01-60.19,48-17.37,126.64,18.93,126.64,18.93,68.93,62.84,239.48,89.08,239.48,89.08-7.12,13.27-20.17,34.51-36.67,47.55-8.21,6.51-17.28,10.97-26.9,11.41,0,0,14.54,35.9,26.63,49.53-.61-.23-19.89-7.87-22.11-12.23Z"/>
        <path class="cls-6" d="m924.58,1188.76c-3.61,3.6-11.84,4.37-11.84,4.37-1.96.41-3.92.76-5.86,1.05-38.27,5.7-72.26-10.81-72.26-10.81,3.45-15.85,1.31-42.52-2.96-70.6,0,0,8.15-24.45,14.62-5.73,0,0,16.34-13.24,16.68-.66,0,0,12.6-14.36,14.3,0,0,0,9.78-15.05,7.27,4.04-1.37,2.07-2.17,3.26-2.17,3.26-20.42,37.28,6.13,56,6.13,56,32.68.68,37.45,13.45,37.45,13.45.76,2.39.06,4.23-1.36,5.63Z"/>
        <path class="cls-5" d="m922.28,1047.51h0c-1.68,8.06-29.68,50.72-37.75,62.91,2.51-19.09-7.27-4.04-7.27-4.04-1.7-14.36-14.3,0-14.3,0-.34-12.58-16.68.66-16.68.66-6.47-18.72-14.62,5.73-14.62,5.73-8.05-52.92-23.66-110.85-23.66-110.85,30.46,15.82,69.08,32.63,114.28,45.59Z"/>
        <path class="cls-5" d="m730.87,953.42s5.01,4.12,14.53,10.81c-12.89,41.53-99.46,126.98-99.46,126.98-.71,1.06-1.28,2.2-1.74,3.4-10.42-23.97-22.26-3.23-22.26-3.23-10.56-18.38-22.47,4.43-22.47,4.43-10.56-17.7-15.41,6.91-15.41,6.91-15.18-14.53-26.97-24.78-26.97-24.78,2.02-31.88,16.33-91.28,16.59-92.36,73.99-33.56,139.15-80.75,139.15-80.75l1.98.3c-3.04,20.2-8.64,36.63-18.32,43.61,0,0,13.62,9.69,34.38,4.68Z"/>
        <path class="cls-6" d="m665.85,1156.57c62.3,3.58,50.55,23.49,50.55,23.49-4.59,1.54-67.91,0-67.91,0-7.83-20.65-40.39-54.35-64.43-77.34,0,0,4.85-24.61,15.41-6.91,0,0,11.91-22.81,22.47-4.43,0,0,11.84-20.74,22.26,3.23h0c-8.08,21.26,21.65,61.96,21.65,61.96Z"/>
        <path class="cls-5" d="m584.15,167.47s110.98,101.73-55.88,228.79h-.01c20.71-48.5-59.52-59.26-59.52-59.26,36.26-65.87-72.51-53.11-72.51-53.11,16.34-70.46-66.89-38.29-66.89-38.29-3.54-63.35-107.84,18.88-109.41,20.12,38.25-90.7,141.26-247.65,364.22-98.25Z"/>
        <path class="cls-5" d="m549.42,653.61c-27.56,23.7-55.62,54.97-75.94,94.78-1.13.11-93.27,8.72-171.66-23.29,0,0-3.37-52.87,44.12-39.08,0,0,1.63-36.62,60.61-24.51,3.73.77,7.94-43.66,50.64-12.25,0,0,.61-35.62,33.08-13.68.02.02.05.03.07.05,14.34,9.76,33.6,16.25,59.08,17.98Z"/>
        <path class="cls-6" d="m468.74,337s80.23,10.76,59.52,59.25h.01c-6.97,5.31-14.42,10.65-22.38,16.04-2.77,1.87-5.42,3.88-7.95,6.01,18.48-46.87-72.09-49.13-72.09-49.13,45.96-52.6-59.23-46.47-59.23-46.47,23.49-74.04-64.85-33.19-64.85-33.19,2.53-55.32-92.86,11.42-94.02,12.24,1.31-6.51,3.14-12.93,5.48-19.19,1.96-5.26,4.19-10.9,6.69-16.83h.01c1.57-1.25,105.87-83.48,109.41-20.13,0,0,83.23-32.17,66.89,38.29,0,0,108.77-12.76,72.51,53.11Z"/>
        <path class="cls-5" d="m425.85,369.17s90.57,2.26,72.09,49.13c-13.07,11.01-22.93,25.41-28.37,41.75-1.67,5.01-3.37,10.45-5.03,16.24.62-58.73-43.54-14.69-43.54-14.69,0-72-66.91-13.82-66.91-13.82-2.58-57.47-74.03,5.39-74.03,5.39-15.22-74.56-69.58,17.16-70.31,18.39,4.42-31.49,6.07-73.69-2.62-122.82-2.76-15.62-2.52-31.56.61-46.99h.01c1.16-.82,96.55-67.56,94.02-12.24,0,0,88.34-40.85,64.85,33.19,0,0,105.19-6.13,59.23,46.47Z"/>
        <path class="cls-6" d="m467.92,612.34c5.54,8.89,12.87,16.78,22.35,23.24-32.47-21.94-33.08,13.68-33.08,13.68-42.7-31.41-46.91,13.02-50.64,12.25-58.98-12.11-60.61,24.51-60.61,24.51-47.49-13.79-44.12,39.08-44.12,39.08-14.04-5.73-27.64-12.76-40.19-21.39,0,0,2.35-90.45,57.5-52.16,0,0,4.59-81.95,73.53-17.61,0,0-3.06-62.05,46.72-12.26,0,0-10.35-36.28,28.53-9.33h.01Z"/>
        <path class="cls-5" d="m467.92,612.34h-.01c-38.88-26.94-28.53,9.34-28.53,9.34-49.78-49.79-46.72,12.26-46.72,12.26-68.94-64.34-73.53,17.61-73.53,17.61-55.15-38.29-57.5,52.16-57.5,52.16-45.88-31.48-77.85-84.11-66.59-171.65,0,0,4.29-10.24,8.71-28.64,0,0,55.63-72.46,70.95-10.42,0,0,68.17-57.45,73.53-1.53,0,0,55.92-51.32,65.88,4.59,0,0,35.62-24.64,43.08,11.04h0c-6.69,35.48-7.7,75.81,10.72,105.24Z"/>
        <path class="cls-6" d="m421,461.6s44.16-44.04,43.54,14.69c-2.72,9.51-5.3,19.93-7.34,30.81h0c-7.46-35.68-43.08-11.04-43.08-11.04-9.96-55.91-65.88-4.59-65.88-4.59-5.36-55.92-73.53,1.53-73.53,1.53-15.32-62.04-70.95,10.42-70.95,10.42,2.12-8.82,4.28-19.51,6-31.85h0c.73-1.24,55.09-92.96,70.31-18.4,0,0,71.45-62.86,74.03-5.39,0,0,66.91-58.18,66.91,13.82Z"/>
        <path class="cls-6" d="m377.6,1186.32c-1.32,2.87-4.34,2.42-4.34,2.42-52.09-8.68-32.17-70.97-32.17-70.97,43.62-37.52,48.83-113.79,49.16-142.99,0,0,20.79-7.14,15.18,14.31,0,0,23.48-9.2,18.38,18.89,0,0,21.47-6.27,8.18,23.93-18.77,13.29-42.01,39.12-55.72,88.76-.32,1.16-.44,2.36-.38,3.56.21,3.82.91,12.99,3.13,22.75,0,0,0,.01,0,.02,2.14,9.41,5.69,19.37,11.56,25.6,2.53,2.67,3.58,6.51,2.59,10.06-.07.24-.14.48-.23.71-1.37,3.75-5.26,6.59-15.35,2.95Z"/>
      </g>
      <g>
        <path class="cls-3" d="m1076.75,657.42s-5.14-12.29-8.66-27.01c-4.01-16.75-5.91-36.64,4.23-45.16,0,0,19.81-18.77,35.27-26.27,5.86-2.85,12.83-1.96,17.78,2.27,10.63,9.08,32.25,29,47.6,52.74,4.28,6.63,8.08,13.55,11.01,20.62"/>
        <path class="cls-3" d="m1078.79,601.93s20.08-38.13,38.81,0c0,0-4.43,27.57,0,36.42,0,0,7.49,3.07,20.42,0"/>
        <path class="cls-3" d="m1172.97,613.99l2.59-8.91s12.17,2.89,18.63,11.06l-6.98-11.75s33.43,13.43,70.2,48.05c12.47,11.73,25.31,25.9,37.37,42.8,2.93,4.1,5.8,8.36,8.62,12.78,13.63,21.43,25.78,46.73,34.55,76.4.67,2.26,1.32,4.55,1.95,6.87,0,0,.01,2.49-.44,6.3-1.2,9.94-5.6,28.84-21.86,35.49,0,0-.54.03-1.46.1-3.46.26-12.2,1.05-16.86,2.56-.4.13-.76.26-1.09.4l-1.7,33.53s.96,2.05,2.59,4.96c3.04,5.41,8.37,13.79,14.06,17.46.15.11.31.21.46.3"/>
        <path class="cls-3" d="m1338.87,797.54s-.03.01-.09.04c-1.8.83-30.83,14.49-39.74,37.37"/>
        <path class="cls-3" d="m1256.43,653.16s.34-.25.98-.72c6-4.33,38.15-26.9,57.63-27.72,5.36-.22,9.64,4.43,9.09,9.77-2.02,19.56-8.51,71.44-20.73,73.53"/>
        <path class="cls-3" d="m1319.73,636.05s-21.05,26.45-24.95,59.19"/>
        <path class="cls-3" d="m1310.65,862.16c-2.42,4.94-5.88,9.36-10.84,12.11"/>
        <path class="cls-3" d="m1316.14,833.18s.13,2.82-.17,7.03"/>
        <path class="cls-3" d="m1273.02,836.52c5.37-1.23,10.63-4.02,15.17-9.23,0,0-37.15-11.36-51.19-18.39,0,0-5.29-.08-12.59,1.73-8.65,2.15-20.1,6.95-28.9,17.68,0,0,22.22-10.09,41.75,0,0,0,6.03,3.97,14.41,6.64,2.91.93,6.12,1.7,9.45,2.09,3.49.41,7.13.41,10.74-.28.38-.06.77-.14,1.15-.24"/>
        <path class="cls-3" d="m1260.67,843.84c.29-3.48.33-5.83.33-5.83"/>
        <path class="cls-3" d="m1251.67,834.95c-28.86-4.73-48.88,25.91-48.88,25.91,0,0,8.67,20.26,45.7,12.39,5.28-1.13,8.34-8.09,10.1-15.54"/>
        <path class="cls-3" d="m1285.77,782.97s10.87,20.31,9.01,40.14"/>
        <path class="cls-3" d="m1017.52,797.55c.45.96,29.29,62.1,31.82,86.42,0,0,51.84,33.19,71.62,69.45,0,0,112.55,28.98,142.42.46"/>
        <path class="cls-3" d="m1224.42,810.64h-.01c-40.93-35.04-89.45-39.18-89.45-39.18-16.68-3.75-53.79,21.44-53.79,21.44-29.28,16.17-62.91,4.9-63.65,4.65h-.01"/>
        <path class="cls-3" d="m1281.34,870.86c0-.09-.01-.19-.01-.28-1.32-29.75-6.09-33.82-8.31-34.06h-.01c-.71-.07-1.15.24-1.15.24"/>
        <path class="cls-3" d="m1282.71,949.69c.23-.06.45-.13.68-.19,0,0,14.96-3.5,20.25-11.43.18-.27.35-.54.51-.82"/>
        <path class="cls-3" d="m1296.49,869.67l-15.16.91-4.73.28c-53.42,8.17-71.85,44.6-71.85,44.6,0,0-4.83,47.98,58.63,38.41,5.84-.87,12.27-2.24,19.32-4.18"/>
        <path class="cls-3" d="m1320.36,892.57c3.68.53,7.8,1.53,12.39,3.14,0,0,2.7,25.87-6.02,36.89-.55.71-1.16,1.35-1.81,1.92-10.9,9.53-21.47,4.85-21.47,4.85,0,0,.1-.49.19-1.3.39-3.56.49-13.37-9.7-15.55,0,0-12-9.7-2.04-19.66,0,0,5.03-10.45,21.24-10.77,1.75-.04,3.64.04,5.67.28"/>
        <path class="cls-3" d="m1319.18,892.41c.32.04.64.08.97.13"/>
        <path class="cls-3" d="m1325.98,931.71s-21.64-23.29-20.23-28.27c0,0,.99-12.11,13.06-11.07.12.01.24.02.37.04.31.03.64.07.97.13l.21.03"/>
        <path class="cls-3" d="m1250.92,915.37s20.04,29.04,31.78,34.32h0"/>
        <path class="cls-3" d="m1246.54,916.13c.64,0,4.6-2.81,10.85,1.28"/>
        <path class="cls-3" d="m952.5,797.69c.66,1.49,31.4,70.06,88.61,116.53,22.57,18.33,49.26,33.23,79.85,39.2"/>
        <path class="cls-3" d="m974.62,809.93h-.01c-.61-.24-19.89-7.88-22.11-12.24,0-.01-.01-.01-.01-.02"/>
        <path class="cls-3" d="m1068.09,630.41s-42.83,33.98-50.58,59.01c0,0-2.11,4.85-5.96,12.01-7.12,13.27-20.17,34.51-36.67,47.55-8.21,6.51-17.28,10.97-26.9,11.41,0,0,14.54,35.9,26.63,49.53"/>
        <path class="cls-3" d="m1011.55,701.43s-170.55-26.24-239.48-89.08c0,0-78.64-36.3-126.64-18.93,0,0-47.22,18.25-96.01,60.19-27.56,23.7-55.62,54.97-75.94,94.78-22.39,43.86-35.38,98.09-27.97,164.01,0,0-13.53,34.64-55.4,50.64,0,0,.23,4.37.14,11.74-.33,29.2-5.54,105.47-49.16,142.99,0,0-19.92,62.29,32.17,70.97,0,0,3.02.45,4.34-2.42,1.51-3.26.84-10.82-8.94-28.21"/>
        <path class="cls-4" d="m974.88,748.98s53.76,48.82,123.54,15.12c69.79-33.7,148,36.11,148,36.11,0,0,36.14,23.59,47.24,23.98l8-1.08s26.57-38.29,36.29-38.69"/>
        <path class="cls-3" d="m379.03,1147c2.14,9.41,5.69,19.37,11.56,25.6,2.53,2.67,3.58,6.51,2.59,10.06-.07.24-.14.48-.23.71-1.37,3.75-5.26,6.59-15.35,2.95"/>
        <path class="cls-3" d="m712.83,904.83s-65.16,47.19-139.15,80.75c-37.32,16.92-76.88,30.38-111.45,32.57-.48.03-.95.09-1.43.19-3.06.64-14.66,3.54-28.81,13.57-18.77,13.29-42.01,39.12-55.72,88.76-.32,1.16-.44,2.36-.38,3.56.21,3.82.91,12.99,3.13,22.75"/>
        <path class="cls-3" d="m379.02,1146.98s0,.01,0,.02c.69.87,28.17,36.04,13.92,36.37"/>
        <path class="cls-3" d="m712.83,771.08s10.07,80.34,1.98,134.05c-3.04,20.2-8.64,36.63-18.32,43.61,0,0,13.62,9.69,34.38,4.68,0,0,5.01,4.12,14.53,10.81,12.95,9.1,34.24,22.97,62.6,37.69,30.46,15.82,69.08,32.63,114.28,45.59,11.71,3.37,23.86,6.47,36.42,9.23,0,0,40.42,31.66,86.82,65.58,33.88,24.76,70.95,50.72,97.78,66.45,0,0,38.82,3.66,72.33,4.27,9.93.18,19.4.1,27.25-.43,1.26-.08,2.48-.18,3.66-.29,0,0,14.46-26.3-58.31-38.55,0,0-45.75-20.99-73.48-81.29-4.49-9.77-8.51-20.58-11.79-32.5,0,0-52.32-117.6-61.85-125.76"/>
        <path class="cls-3" d="m1178.53,1175.81s29.27-12.17,37.1,17.23"/>
        <path class="cls-3" d="m1212.57,1168.32s21.13-2.83,30.31,24.29"/>
        <path class="cls-3" d="m644.2,1094.61c.46-1.2,1.03-2.34,1.74-3.4,0,0,86.57-85.45,99.46-126.98h0"/>
        <path class="cls-3" d="m573.68,985.57h0c-.26,1.09-14.57,60.49-16.59,92.37,0,0,11.79,10.25,26.97,24.78,24.04,22.99,56.6,56.69,64.43,77.34,0,0,63.32,1.54,67.91,0,0,0,11.75-19.91-50.55-23.49,0,0-29.73-40.7-21.65-61.95"/>
        <path class="cls-3" d="m808,1001.92s15.61,57.93,23.66,110.85c4.27,28.08,6.41,54.75,2.96,70.6,0,0,33.99,16.51,72.26,10.81,1.94-.29,3.9-.64,5.86-1.05,0,0,8.23-.77,11.84-4.37,1.42-1.4,2.12-3.24,1.36-5.63,0,0-4.77-12.77-37.45-13.45,0,0-26.55-18.72-6.13-56,0,0,.8-1.19,2.17-3.26,8.07-12.19,36.07-54.85,37.75-62.9"/>
        <path class="cls-3" d="m875.21,1175.98c.1,0,23.52.02,31.67,18.2.17.39.34.78.5,1.19"/>
        <path class="cls-3" d="m676.57,1163.72s27.58,4.29,30.13,16.7"/>
        <path class="cls-3" d="m907.38,1175.98s11.91,1.58,17.2,12.78h0"/>
        <path class="cls-3" d="m1045.52,1122.32s-4.86-33.66,14.03-16.81c0,0-7.15-33.19,20.43-16.85,0,0-.51-33.19,19.4-11.23,0,0,3.68-19.08,15.37-4.95"/>
        <path class="cls-3" d="m831.66,1112.77s8.15-24.45,14.62-5.73c0,0,16.34-13.24,16.68-.66,0,0,12.6-14.36,14.3,0,0,0,9.78-15.05,7.27,4.04"/>
        <path class="cls-3" d="m584.06,1102.72s4.85-24.61,15.41-6.91c0,0,11.91-22.81,22.47-4.43,0,0,11.84-20.74,22.26,3.23h0"/>
        <path class="cls-3" d="m390.25,974.78s20.79-7.14,15.18,14.31c0,0,23.48-9.2,18.38,18.89,0,0,21.47-6.27,8.18,23.93"/>
        <path class="cls-3" d="m490.34,635.63c14.34,9.76,33.6,16.25,59.08,17.98h.02"/>
        <path class="cls-3" d="m219.93,265.72c38.25-90.7,141.26-247.65,364.22-98.25,0,0,110.98,101.73-55.88,228.79-6.97,5.3-14.42,10.64-22.38,16.03-2.77,1.87-5.42,3.88-7.95,6.01-13.07,11.01-22.93,25.41-28.37,41.75-1.67,5.01-3.37,10.45-5.03,16.24-2.72,9.51-5.3,19.93-7.34,30.81-6.69,35.48-7.7,75.81,10.72,105.24,5.54,8.89,12.87,16.78,22.35,23.24"/>
        <path class="cls-3" d="m207.75,301.75c1.31-6.51,3.14-12.93,5.48-19.19,1.96-5.26,4.19-10.9,6.69-16.83"/>
        <path class="cls-3" d="m209.75,471.56c4.42-31.49,6.07-73.69-2.62-122.82-2.76-15.62-2.52-31.56.61-46.99"/>
        <path class="cls-3" d="m473.49,748.39h0c-1.13.11-93.27,8.72-171.66-23.29-14.04-5.73-27.64-12.76-40.19-21.39-45.88-31.48-77.85-84.11-66.59-171.65,0,0,4.29-10.24,8.71-28.64,2.12-8.82,4.28-19.51,6-31.85"/>
        <path class="cls-3" d="m219.91,265.74h.01s.01-.02.01-.02c1.57-1.24,105.87-83.47,109.41-20.12,0,0,83.23-32.17,66.89,38.29,0,0,108.77-12.76,72.51,53.11,0,0,80.23,10.76,59.52,59.25"/>
        <path class="cls-3" d="m207.74,301.75h.01c1.16-.82,96.55-67.56,94.02-12.24,0,0,88.34-40.85,64.85,33.19,0,0,105.19-6.13,59.23,46.47,0,0,90.57,2.26,72.09,49.13"/>
        <path class="cls-3" d="m209.75,471.57h0c.73-1.24,55.09-92.96,70.31-18.4,0,0,71.45-62.86,74.03-5.39,0,0,66.91-58.18,66.91,13.82,0,0,44.16-44.04,43.54,14.69v.04"/>
        <path class="cls-3" d="m203.75,503.42s55.63-72.46,70.95-10.42c0,0,68.17-57.45,73.53-1.53,0,0,55.92-51.32,65.88,4.59,0,0,35.62-24.64,43.08,11.04"/>
        <path class="cls-3" d="m261.63,703.71s2.35-90.45,57.5-52.16c0,0,4.59-81.95,73.53-17.61,0,0-3.06-62.05,46.72-12.26,0,0-10.35-36.28,28.53-9.33"/>
        <path class="cls-3" d="m301.82,725.1s-3.37-52.87,44.12-39.08c0,0,1.63-36.62,60.61-24.51,3.73.77,7.94-43.66,50.64-12.25,0,0,.61-35.62,33.08-13.68.02.02.05.03.07.05"/>
      </g>
    </g>
    <path class="cls-7" d="m1078.8,600.41s.79-30.98,29.62-24.85c0,0,16.57,6.88,21.34,31.87,0,0-11.23,31.65,16.68,23.04l-9.12,8.1s-24.49,4.93-21.47-8.1c0,0,1.21-13.53,1.28-26.39.04-6.73-6.26-18.04-18.01-18.56,0,0-11.7-1.11-20.32,14.89Z"/>
    <path class="cls-4" d="m1078.8,601.98s20.09-38.13,38.81,0c0,0-4.43,27.57,0,36.43,0,0,7.49,3.06,20.43,0"/>
    <path class="cls-7" d="m1286.43,682.63s17.11-45.55,32.09-46.53c0,0-22.47,33.15-24.24,56.56l-7.85-10.03Z"/>
  </g>
  <g>
    <path class="cls-2" d="m657.51,595.19s-8.5-9.62-20.08-11.48c-.37-.06-.74-.11-1.11-.15-12.14-1.39,36.88-1.14,45.81,9.84"/>
    <path class="cls-2" d="m751.7,604.89s-7.62-19.36-15.79-19.85,24.6-4.96,41.41,31.32"/>
    <path class="cls-2" d="m626.98,681.23s-19.91-28.6-39.32-27.06,23.77-9.82,48.65-.06c0,0-3.21-17.15-13.16-17.99s25.57-.33,34.36,11.41"/>
    <path class="cls-2" d="m1073.53,684.77c-23.49-7.49-49.36,4.77-36.77,3.74s21.11,9.4,21.11,9.4c0,0-5.79-2.97-16.77,2.62,0,0,12.77,1.76,10.72,10.96"/>
    <path class="cls-2" d="m777.11,886l-16.85-17.18s20.43-8.17,30.64,8.59"/>
    <path class="cls-2" d="m666.04,895.96s-20.68-29.91-42.89-29.13c0,0,29.87-10.21,42.89,4.1"/>
    <path class="cls-2" d="m843.49,731.79s-19.19-24.42-43.55-23.7,49.68-10.17,80.83,11.11c0,0-14.3-19.88-23.49-22.28,0,0,24,.66,36,9.6"/>
    <path class="cls-2" d="m560.08,777.23s-29.62-20.94-53.11-18.38c0,0,16.85-15.01,34.21-9.8,0,0-6.64-12.66-12.77-12.66s18.89-11.74,29.11,3.57"/>
    <path class="cls-2" d="m896.22,966.5s-13.01-21.45-28.53-21.49c0,0,22.01-7.97,41.16,7.1,0,0-6.1-18.99-12.63-20.34,0,0,26.23.25,27.09,13.24"/>
    <path class="cls-2" d="m1116.14,892.14s-22.95-.01-45.42-28.61c0,0,17.25,8.54,23.69,5.29,0,0-23.18-16.52-23.69-20.1,0,0,26.55,12.58,31.15,11.65"/>
    <path class="cls-2" d="m606.28,302.62s16.68-6.13,23.83-15.66c0,0-18.35,34.29-35.39,41.99"/>
    <path class="cls-2" d="m557.77,154.02s.6-21.7-13.19-28.34c0,0,18.81,3.32,29.89,23.13,0,0,3.52-5.75,1.67-14.36,0,0,13.58,22.59,15.66,49.63"/>
    <path class="cls-2" d="m517.51,267.59s33.45-18.08,30.04-38.85c0,0,9.77,18.72,3.65,38.85,0,0,14.8-1.31,16.98-16.63,0,0,5.75,15.57-5.31,29.19"/>
    <path class="cls-2" d="m211.26,360.36s-22.79-34.98-18.48-52.41c0,0,4.27,16.52,12.46,21,0,0-5.98-11.99-5.34-16.59,0,0,2.43,6.64,10.47,8.04"/>
    <path class="cls-2" d="m242.7,628.44s-20.09-7.88-22.13-39.36c0,0,11.23,18.22,19.74,16.52,0,0-10.21-10.55-8.68-20.09,0,0,6.64,13.62,14.47,14.47"/>
    <path class="cls-2" d="m367.64,585.51s-17.87-9.02-20.43-27.91c0,0,16.6,17.62,26.3,17.62"/>
    <path class="cls-2" d="m275.38,393.85s-22.47-28.96-15.32-50.91c0,0,12.6,28.78,21.45,29.46,0,0-6.13-7.49-3.4-13.96,0,0,9.87,11.91,15.32,12.26"/>
    <path class="cls-2" d="m433,721s-30.49,5.62-36.95-8.43c0,0,9.88-.51,15.25-4.85,0,0-10.98-5.11-12-8.17,0,0,14.37,2.04,17.91-2.04"/>
    <path class="cls-2" d="m329.2,128.56s-5.82-.58-16.37-13.86c0,0,13.96,5.45,23.83,2.38,0,0-6.13-6.81-7.83-8.17s22.81,8.41,44.94,9.82"/>
    <path class="cls-2" d="m553.17,930.7s-35.4,9.87-51.74,3.06c0,0,18.04-4.09,25.87-10.89,0,0-11.57,3.4-22.47-2.04,0,0,22.68-1.02,28.7-10.21"/>
    <path class="cls-2" d="m492.74,871.13c-16.34,12.26-34.21,2.55-34.21,2.55,0,0,15.83-5.62,17.11-13.28"/>
    <path class="cls-2" d="m1061.85,991.79s-27.37-13.91-37.08-29.39c0,0-6.26,11.48,17.4,31.64,0,0-15.56,1-23.82-10.66,0,0-2.43,14.24,26.73,23.62"/>
    <path class="cls-2" d="m567.55,1018.59s-13.02,35.48-19.49,40.8c0,0,6.61,4.56,16.55-1.74"/>
    <path class="cls-2" d="m697.85,1001.92s-5.79,17.29-17.36,23.42c0,0,15.66-.23,21.45-6.75"/>
    <path class="cls-2" d="m557.09,988.91s-11.06,17.77-29.79,24.72c0,0,6.47-10.08,4.09-16.89"/>
  </g>
</svg>