<svg width="23" height="22" viewBox="0 0 23 22" fill="none" xmlns="http://www.w3.org/2000/svg">
<path d="M1.39971 13.2078C0.53816 11.7719 0.538159 9.97807 1.39971 8.54215C1.66261 8.10398 2.09817 7.79703 2.59924 7.69682L4.64499 7.28767C4.76687 7.26329 4.87673 7.19793 4.9563 7.10244L8.04584 3.39499C9.2284 1.97592 9.81968 1.26638 10.3473 1.45742C10.875 1.64846 10.875 2.57207 10.875 4.41928L10.875 17.3307C10.875 19.1779 10.875 20.1015 10.3473 20.2926C9.81968 20.4836 9.2284 19.7741 8.04585 18.355L4.9563 14.6476C4.87673 14.5521 4.76687 14.4867 4.64499 14.4623L2.59924 14.0532C2.09817 13.953 1.66261 13.646 1.39971 13.2078Z" fill="white"/>
<path d="M13.9388 6.60288C15.066 7.73008 15.702 9.25709 15.7083 10.8512C15.7146 12.4453 15.0906 13.9772 13.9723 15.1133" stroke="white" stroke-width="2" stroke-linecap="round"/>
<path d="M18.918 4.03961C20.7216 5.84314 21.7392 8.28635 21.7493 10.8369C21.7593 13.3874 20.7609 15.8386 18.9717 17.6563" stroke="white" stroke-width="2" stroke-linecap="round"/>
</svg>
